<svg width="131" height="24" viewBox="0 0 131 24" fill="none" xmlns="http://www.w3.org/2000/svg">
<path d="M1.5883 9.51972L1.60569 9.28741V9.19806L1.69266 8.91212C1.83182 8.48323 1.97098 8.17944 2.12753 7.96499C2.28408 7.76841 2.37105 7.62546 2.37105 7.5361C2.38844 7.44675 2.44063 7.3574 2.5276 7.26805C2.61457 7.16082 2.68415 7.07147 2.71894 6.99999L2.80591 6.87489C2.80591 6.7498 2.87549 6.60684 3.03204 6.46387C3.18859 6.32091 3.27556 6.19582 3.29295 6.10646C3.31035 6.01711 3.41472 5.87414 3.60606 5.64183C3.60606 5.58821 3.67563 5.46313 3.81479 5.30229C3.95394 5.14146 4.04092 5.01637 4.07571 4.94488C4.1105 4.8734 4.19747 4.81979 4.33662 4.76618C4.35402 4.62321 4.4236 4.49812 4.54536 4.40877C4.64973 4.31942 4.7367 4.23006 4.78888 4.15858C4.84107 4.0871 4.91065 4.03348 4.99762 3.97987L5.10198 3.85478C5.15416 3.78329 5.25853 3.67607 5.44987 3.53311C5.64121 3.39015 5.74558 3.28293 5.79776 3.21144L6.05868 3.10421L6.09347 3.06848L6.11086 2.94339C6.14565 2.92552 6.18044 2.88978 6.25002 2.80042C6.3196 2.71107 6.37178 2.65746 6.42396 2.62172L6.70228 2.33578C6.80664 2.2643 6.91101 2.2107 6.98059 2.17496C7.06756 2.13922 7.10235 2.0856 7.13714 2.01412C7.17193 1.94264 7.2763 1.87115 7.50242 1.79967C7.62419 1.63884 7.79813 1.53162 8.02426 1.51375C8.11123 1.37078 8.35475 1.20995 8.75482 1.03124C9.1549 0.852536 9.45061 0.763184 9.60716 0.763184C9.76371 0.763184 9.90286 0.781052 10.0246 0.816793L10.1812 0.798927C10.216 0.816797 10.2681 0.834668 10.3725 0.888279H10.3899L10.4769 0.906145C10.7204 1.19207 10.8248 1.478 10.8248 1.79967C10.8248 1.94263 10.8248 2.12134 10.8074 2.31792C10.7378 2.56811 10.703 2.76468 10.703 2.90764C10.703 2.99699 10.6682 3.12209 10.5986 3.26505L10.5117 3.55098C10.4769 3.962 10.3377 4.17644 10.0942 4.17644C9.72892 4.17644 9.53758 3.99774 9.53758 3.64033C9.53758 3.40801 9.62455 3.21145 9.81589 3.06848C10.1464 2.85404 10.3203 2.49662 10.3203 2.01412C10.3203 1.88902 10.2681 1.81755 10.1638 1.81755H10.1464C10.0768 1.85329 10.0246 1.87116 9.98983 1.87116L9.79849 1.81755H9.7811L9.69413 1.85328C9.67674 1.83541 9.62455 1.85328 9.53758 1.92477C9.4506 1.97838 9.34624 2.03199 9.18969 2.0856C9.05053 2.13922 8.89398 2.24644 8.75482 2.40727C8.61567 2.56811 8.44173 2.6932 8.26778 2.76468C8.09384 2.83616 7.93728 2.97912 7.79813 3.1757C7.79813 3.19357 7.79813 3.19357 7.78074 3.19357L7.572 3.1757C7.53721 3.1757 7.50242 3.26505 7.43285 3.44376L7.36326 3.4795H7.31108C7.27629 3.49737 7.24151 3.53311 7.17193 3.6046L7.05017 3.71181C7.01538 3.83691 6.92841 3.94413 6.80664 3.99774L6.68488 4.21219C6.6327 4.24793 6.56312 4.28367 6.49354 4.33728C6.42396 4.39089 6.35438 4.42664 6.31959 4.46238C6.28481 4.49812 6.23262 4.5696 6.18044 4.69469C6.12826 4.83766 5.9717 4.94488 5.71079 5.0521C5.69339 5.08784 5.676 5.10572 5.676 5.12359C5.676 5.14146 5.676 5.15933 5.6934 5.21294V5.23081C5.6934 5.37377 5.51945 5.58821 5.17156 5.87414V5.90988C5.17156 5.98137 5.11938 6.12433 4.99762 6.33878C4.87586 6.55323 4.78888 6.69619 4.70191 6.78554C4.61494 6.87489 4.58015 6.9285 4.58015 6.94637V7.08934C4.58015 7.19657 4.52796 7.26804 4.44099 7.30378C4.35402 7.37526 4.28444 7.44674 4.24965 7.48248C4.24965 7.62545 4.19747 7.73268 4.07571 7.80416C3.95394 7.87564 3.90176 7.92926 3.86698 7.98287L3.93655 8.10795V8.14369C3.93655 8.34027 3.83218 8.46537 3.64084 8.53685V8.57259C3.64084 8.64407 3.58866 8.7513 3.48429 8.87639C3.37993 9.01935 3.29296 9.10871 3.22338 9.14445C3.20598 9.14445 3.18859 9.16231 3.18859 9.18018L3.22338 9.46611C3.04943 9.85927 2.87549 10.1452 2.70154 10.3596C2.63196 10.3775 2.59717 10.4133 2.59717 10.449L2.63197 10.6098V10.6456C2.63197 10.8243 2.59718 10.9494 2.54499 11.003C2.49281 11.0566 2.45802 11.1102 2.45802 11.1281L2.5276 11.271C2.5276 11.3246 2.49281 11.3783 2.44063 11.414C2.38844 11.4497 2.35365 11.4676 2.35365 11.5033C2.35365 11.5212 2.35365 11.5391 2.37105 11.557V11.6106C2.37105 11.6642 2.31886 11.8608 2.23189 12.2003V12.3433L2.1971 12.4862C2.1971 12.5041 2.2145 12.5398 2.24928 12.6113C2.28407 12.6828 2.30147 12.7543 2.30147 12.8079L2.23189 12.9509C2.21449 12.9687 2.2145 12.9866 2.2145 13.0045C2.2145 13.1296 2.24929 13.3083 2.30147 13.5048C2.35365 13.7193 2.45802 13.8086 2.59717 13.8086C2.8233 13.8086 2.96246 13.7729 3.01464 13.7193C3.06682 13.6657 3.20598 13.5406 3.4495 13.344C3.69303 13.1474 3.84958 13.0223 3.93655 12.933C4.02353 12.8436 4.07571 12.8079 4.1105 12.79C4.16268 12.7722 4.33662 12.5577 4.66712 12.1288C4.99761 11.7178 5.27593 11.3425 5.51945 11.003C5.53685 10.9851 5.55424 10.9494 5.57163 10.86C5.58903 10.7707 5.676 10.6813 5.79776 10.5562C5.91952 10.4311 6.11086 10.1988 6.35439 9.84139L6.54573 9.64482C6.70228 9.43037 6.78925 9.28741 6.80664 9.2338C6.82404 9.18019 6.87622 9.12657 6.96319 9.07296C7.05017 9.01935 7.10235 8.94787 7.13714 8.85851C7.17193 8.76916 7.24151 8.71555 7.31108 8.71555C7.39806 8.69768 7.43285 8.66195 7.43285 8.60833L7.41545 8.39389C7.50242 8.23305 7.62418 8.1437 7.74595 8.09009C7.72855 8.05434 7.72855 8.0186 7.72855 7.96499C7.72855 7.80416 7.79813 7.69693 7.93729 7.64332C8.07644 7.58971 8.14602 7.55397 8.16341 7.50036C8.16341 7.44675 8.18081 7.39314 8.2156 7.32166L8.25038 7.2323C8.30257 7.10721 8.35475 7.01786 8.40693 6.96425L8.5287 6.76766L8.73743 6.55323C8.73743 6.53536 8.73743 6.51748 8.75482 6.51748L8.72004 6.28517C8.72004 6.24943 8.80701 6.19581 8.98096 6.12433L8.99835 6.08859V5.90988C8.99835 5.85627 9.06792 5.78479 9.18969 5.71331C9.22447 5.57035 9.29405 5.46312 9.39842 5.40951C9.41582 5.23081 9.468 5.06998 9.58976 4.94488C9.69413 4.81979 9.79849 4.69469 9.88547 4.55173C9.97244 4.42664 10.0942 4.35515 10.2508 4.35515C10.3377 4.35515 10.4943 4.42664 10.7204 4.55173C10.9465 4.67682 11.0683 4.87339 11.0683 5.10571C11.0683 5.14145 11.0335 5.21294 10.9639 5.3559C10.8943 5.49887 10.8248 5.76693 10.7726 6.19582C10.6334 6.58897 10.5291 6.82128 10.4943 6.89276C10.5291 6.98211 10.5639 7.07146 10.5639 7.12507C10.5639 7.21443 10.5117 7.32166 10.3899 7.44675C10.3725 7.57185 10.3377 7.67907 10.3029 7.76842V7.92925C10.3029 8.05434 10.216 8.16157 10.0246 8.21518C10.0072 8.21518 9.97244 8.30453 9.93765 8.46536C9.90286 8.64407 9.88547 8.73342 9.88547 8.73342L9.92026 9.01935C9.92026 9.10871 9.88547 9.19806 9.83328 9.25167C9.7811 9.30528 9.71152 9.39463 9.60716 9.53759C9.50279 9.68055 9.468 9.75204 9.468 9.78778C9.468 9.91288 9.45061 10.0022 9.43321 10.0737C9.41582 10.1452 9.38103 10.2167 9.38103 10.306C9.38103 10.3954 9.34624 10.4669 9.29405 10.5383C9.24187 10.6098 9.20708 10.6634 9.18969 10.6992C9.22447 10.7885 9.25927 10.8421 9.25927 10.86C9.25927 10.8958 9.24187 10.9851 9.18969 11.1102C9.12011 11.1817 9.08532 11.2353 9.08532 11.2889C9.08532 11.2889 9.10272 11.3425 9.1549 11.4319C9.13751 11.5212 9.10272 11.6284 9.05053 11.7714L9.03314 11.825L9.06793 12.4147C9.06793 12.4326 9.05053 12.4684 8.98096 12.5398V12.5935C8.98096 12.6649 8.99835 12.7007 9.05053 12.7007C9.08532 12.7007 9.18969 12.6471 9.36363 12.5398C9.53758 12.4326 9.64195 12.3611 9.67673 12.3075C9.74631 12.1824 10.0246 11.9858 10.5291 11.682L11.851 10.5205C11.938 10.4311 12.0076 10.3775 12.0424 10.3775C12.1641 10.3775 12.2163 10.4311 12.2163 10.5383C12.2163 10.6992 12.1815 10.8779 12.112 11.0923V11.2532C12.112 11.4319 12.025 11.6106 11.8337 11.7714C11.8163 11.825 11.7815 11.8786 11.6945 11.9144C11.6075 11.9501 11.5553 12.0037 11.5206 12.0573C11.4858 12.1109 11.4162 12.1824 11.2944 12.236C11.1727 12.2897 11.0857 12.3611 11.0161 12.4147L10.9291 12.4505C10.8248 12.5041 10.7552 12.5756 10.7204 12.6828C10.6856 12.79 10.6508 12.8436 10.616 12.8436C10.4595 12.8436 10.2508 12.9866 9.98983 13.2547L9.86808 13.2904L9.74631 13.3797C9.67673 13.4334 9.62455 13.4691 9.58976 13.4691L9.43321 13.4512L8.89398 13.5585C8.80701 13.5585 8.73743 13.487 8.65046 13.3619H8.49391L8.35475 13.201C8.1982 13.1474 8.04165 12.9509 7.91989 12.6292C7.79813 12.3075 7.72855 12.0216 7.72855 11.7893C7.72855 11.6463 7.76334 11.414 7.81552 11.1102C7.86771 10.8064 7.91989 10.5741 7.91989 10.4311C7.91989 10.2703 7.93728 10.1273 8.00686 9.98435C8.05905 9.84139 8.09384 9.7163 8.09384 9.60908C8.09384 9.57334 8.12862 9.48399 8.18081 9.32315C8.23299 9.16232 8.26778 8.98361 8.26778 8.82277C8.26778 8.8049 8.25038 8.8049 8.23299 8.8049C7.8851 9.34102 7.64158 9.64482 7.51982 9.69843C7.46764 9.73417 7.41545 9.76991 7.36326 9.84139C7.43284 9.96649 7.46763 10.0201 7.46763 10.038C7.46763 10.1452 7.32848 10.3418 7.06756 10.6098L6.96319 10.8421C6.9284 10.8779 6.89362 10.8958 6.87622 10.8958L6.65009 10.8779L6.58051 10.9672L6.65009 11.1817C6.58052 11.3425 6.47615 11.4319 6.37178 11.4676L6.33699 11.5033L6.31959 11.6106L6.21523 11.682C6.19784 11.682 6.19784 11.6821 6.19784 11.6999L6.23262 11.9144C6.19783 11.9501 6.16305 12.0037 6.11086 12.0395C6.05868 12.0752 6.0065 12.1646 5.95431 12.3075C5.90213 12.4505 5.83255 12.522 5.71079 12.522L5.62382 12.4862H5.60642L5.58903 12.6828L5.60642 12.7722C5.60642 12.8258 5.55424 12.8972 5.44987 12.9687L5.34551 13.076C5.34551 13.1653 5.27593 13.2904 5.11938 13.4334C4.96283 13.5942 4.85846 13.7372 4.77149 13.8623C4.64972 13.9159 4.52796 14.041 4.4062 14.2018C4.18007 14.3984 4.04092 14.5235 4.00613 14.5771C3.95395 14.6307 3.88437 14.6664 3.76261 14.6843C3.67564 14.7737 3.55387 14.8451 3.41472 14.863C3.27556 14.8809 3.1538 14.9166 3.04943 14.9702C2.94507 15.006 2.87549 15.0238 2.85809 15.0238C2.61457 15.0238 2.35365 14.9166 2.11013 14.72C1.93619 14.72 1.81442 14.6486 1.76224 14.5413L1.32738 14.1303C1.04907 13.7014 0.909912 13.2368 0.909912 12.7543C0.909912 12.6649 0.927304 12.5756 0.962093 12.5041C0.996882 12.4326 1.01427 12.379 1.01427 12.3611C1.01427 12.3254 0.996882 12.3075 0.962093 12.2718C0.927304 12.236 0.909912 12.2003 0.909912 12.1824C0.909912 12.1288 0.962096 12.0573 1.08386 11.9859C0.996885 11.8965 0.962093 11.825 0.962093 11.7535C0.962093 11.6999 0.996882 11.6106 1.04907 11.5212C1.10125 11.4319 1.13604 11.3783 1.17083 11.3783C1.20562 11.3783 1.24041 11.414 1.30998 11.4855C1.30998 11.5033 1.30998 11.5033 1.32738 11.5033C1.36217 11.5033 1.36216 11.4855 1.36216 11.4676C1.36216 11.3961 1.32738 11.3425 1.2578 11.3068C1.18822 11.271 1.13604 11.1817 1.11864 11.0745C1.08385 11.0387 1.08386 11.0209 1.08386 11.0209L1.2578 10.2167C1.30999 10.0022 1.41435 9.80565 1.5883 9.64482V9.51972Z" fill="#1A1413"/>
<path d="M12.3209 12.2538V12.1824C12.3209 12.093 12.3209 12.0037 12.3383 11.9501C12.3035 11.8428 12.2687 11.7356 12.2687 11.6463C12.2687 11.6284 12.3035 11.539 12.373 11.3603L12.46 11.0387C12.5122 10.9136 12.5296 10.8421 12.547 10.8421C12.5122 10.7349 12.4774 10.6634 12.4774 10.6634C12.4774 10.5026 12.5296 10.3775 12.6166 10.2702C12.7035 10.163 12.7731 10.02 12.8427 9.82347L13.0514 9.18013L13.3819 8.34022C13.3819 8.32235 13.4167 8.26874 13.4863 8.17939C13.5385 8.09003 13.5907 8.01855 13.6254 7.94707C13.6602 7.87559 13.7124 7.78623 13.782 7.66114L13.8864 7.64327C13.9211 7.60753 13.9211 7.58966 13.9211 7.55392C13.9211 7.53605 13.9038 7.48243 13.8864 7.39308L14.2342 6.78549L14.443 6.33873C14.5126 6.21364 14.5821 6.14216 14.6691 6.10641C14.8083 5.83836 14.93 5.69539 15.017 5.64178C15.0518 5.51668 15.1388 5.37373 15.2431 5.21289L15.4345 5.19501C15.4693 5.10566 15.504 5.01631 15.5388 4.98057L15.5562 4.76613C15.5562 4.80187 15.5736 4.80187 15.6084 4.73039C15.6432 4.6589 15.6954 4.5338 15.765 4.3551L16.0433 4.03343L16.1302 3.89047C16.165 3.83686 16.2172 3.74751 16.2868 3.60455C16.3912 3.56881 16.4781 3.47945 16.5477 3.37222L16.7564 3.19352C16.739 3.12204 16.826 2.94334 17 2.67528C17.1217 2.62167 17.2261 2.56806 17.3131 2.49658L17.4522 2.46083C17.4522 2.21065 17.5392 2.04982 17.7131 1.96046L17.8349 1.87111C17.9393 1.8175 18.0088 1.78176 18.0088 1.78176L18.0784 1.76388C18.1654 1.72814 18.2524 1.72815 18.3567 1.72815C18.6177 1.72815 18.8438 1.8175 19.0351 2.01407C19.2439 2.21065 19.3482 2.4251 19.3482 2.67528C19.3482 2.76463 19.296 2.87186 19.1917 2.97908L19.1569 3.06843C19.0699 3.46159 19.0003 3.64028 18.9481 3.64028C18.9134 3.64028 18.8786 3.65816 18.8438 3.6939C18.8264 3.92622 18.809 4.0513 18.809 4.08704C18.6872 4.10491 18.635 4.26575 18.635 4.55168C18.6177 4.58742 18.5655 4.65891 18.4785 4.76613C18.3915 4.87335 18.3219 5.01631 18.2872 5.17715C18.235 5.35585 18.1828 5.44521 18.1306 5.44521H18.0262L18.061 5.60603C18.061 5.69539 18.0088 5.80261 17.9219 5.89197C17.8349 5.98132 17.7653 6.08854 17.7479 6.19577C17.7305 6.30299 17.6436 6.42808 17.5044 6.57104L17.4 6.73188C17.3653 6.80336 17.3131 6.87484 17.2435 6.94632C17.1739 7.0178 17.1217 7.14289 17.0695 7.30373L16.8086 7.80411C16.6173 8.14365 16.4781 8.30448 16.3912 8.30448C16.3216 8.57254 16.2868 8.73337 16.2694 8.76911C16.252 8.80485 16.1998 8.85846 16.1302 8.8942C16.0607 8.92994 15.9911 8.98356 15.9563 9.07291C15.9215 9.16226 15.8693 9.21587 15.8171 9.26948L15.6432 9.66263C15.5388 9.71624 15.4519 9.8056 15.3997 9.93069C15.2953 9.96643 15.2257 10.0558 15.1909 10.2166C15.1735 10.2524 15.1214 10.306 15.0866 10.4132L14.7387 10.7706C14.5647 10.8957 14.4604 11.0565 14.443 11.2174C14.4256 11.3961 14.3386 11.4676 14.1821 11.4676C14.0603 11.4676 13.9038 11.4139 13.6776 11.3067H13.6602C13.6428 11.3961 13.5907 11.5212 13.5211 11.6284L13.5559 11.9143C13.5559 11.9501 13.5037 12.1645 13.3993 12.5755C13.4515 12.6827 13.4863 12.7542 13.4863 12.79L13.4689 13.0223L13.5211 13.3082C13.5559 13.5405 13.6428 13.6477 13.7646 13.6477L14.0081 13.6835C14.0255 13.6835 14.1125 13.6299 14.269 13.5227L14.6517 13.3082C14.6691 13.3082 14.6691 13.3082 14.6691 13.3261C14.7387 13.3618 14.7909 13.3618 14.8257 13.3618C14.8952 13.3618 14.93 13.3082 14.93 13.201V13.058C14.9648 12.9865 15.017 12.9508 15.0866 12.9329C15.1388 12.9151 15.1909 12.8793 15.2431 12.8436C15.2953 12.79 15.3301 12.7721 15.3475 12.7721H15.4519C15.5562 12.7721 15.6084 12.647 15.6084 12.4147C15.6432 12.3968 15.678 12.3789 15.7128 12.3253H15.8345C15.8867 12.3253 15.9389 12.2539 16.0085 12.1109C16.0781 11.9679 16.1128 11.8964 16.1476 11.8607C16.2694 11.8428 16.3564 11.825 16.4086 11.8071C16.6347 11.3961 16.7912 11.1995 16.913 11.1995H16.9826C17.1043 11.0923 17.1565 10.9851 17.1739 10.8957C17.1913 10.8063 17.2261 10.7527 17.2783 10.717C17.3305 10.6813 17.3826 10.6634 17.4348 10.6098C17.487 10.574 17.5218 10.5562 17.5218 10.5562C17.6262 10.5562 17.6784 10.5919 17.6784 10.6634L17.6436 10.9493L17.7131 11.271C17.7131 11.3067 17.6783 11.3603 17.6262 11.4318C17.574 11.5212 17.5392 11.6105 17.5392 11.6999C17.5392 11.8964 17.5044 12.0037 17.4348 12.0215C17.3653 12.0394 17.3131 12.0751 17.2609 12.1645C17.2087 12.2538 17.1391 12.3253 17.0348 12.3789C16.9304 12.4504 16.8608 12.5398 16.8086 12.6649L16.6347 12.7006L16.5303 12.7542C16.4433 12.9687 16.3564 13.1116 16.2694 13.1474C16.1824 13.201 16.0607 13.3439 15.9215 13.5941C15.9041 13.5941 15.8867 13.5941 15.8867 13.612L15.7302 13.5941C15.6606 13.7014 15.6084 13.7728 15.5562 13.7907C15.4866 13.8086 15.4519 13.8443 15.3997 13.9158C15.3649 13.9694 15.2953 14.023 15.1736 14.0588C15.0692 14.0945 14.9996 14.1481 14.9822 14.2017C14.9474 14.2553 14.9126 14.2911 14.8604 14.2911C14.8083 14.2911 14.7561 14.3268 14.7039 14.3626C14.6517 14.4162 14.6169 14.434 14.5821 14.434C14.5647 14.434 14.5126 14.4341 14.443 14.4162H14.4082C14.2864 14.5055 14.1995 14.5413 14.1299 14.5413C14.0429 14.5413 13.9733 14.5591 13.9385 14.577C13.9038 14.5413 13.8342 14.5234 13.7472 14.5055C13.6602 14.4877 13.5733 14.4519 13.4515 14.3983C13.3297 14.434 13.2602 14.434 13.2428 14.434C13.121 14.434 12.9819 14.309 12.8079 14.0766C12.634 13.8443 12.547 13.612 12.547 13.3976C12.547 13.3976 12.5122 13.3439 12.4252 13.2367C12.3383 13.1295 12.3035 13.0223 12.3035 12.9151V12.8078L12.3209 12.6827V12.5577L12.3383 12.504C12.4426 12.4862 12.4948 12.4683 12.4948 12.4683L12.3209 12.2538ZM14.3908 9.48393L14.5995 9.35883C14.6343 9.25161 14.7213 9.10865 14.8604 8.94781C14.9996 8.78698 15.1214 8.7155 15.1736 8.7155H15.2605C15.2605 8.66189 15.2779 8.62615 15.2953 8.57254C15.3127 8.51893 15.3301 8.46531 15.3301 8.37596C15.3301 8.34021 15.4171 8.21513 15.6084 8.03642L15.6954 7.85772C15.765 7.67901 15.9041 7.53605 16.1476 7.41096C16.2346 7.21438 16.3216 7.10716 16.3564 7.10716L16.4433 7.08929C16.4781 6.98207 16.5303 6.89271 16.5999 6.80336L16.6347 6.74975V6.58891C16.6347 6.57104 16.6869 6.51743 16.7738 6.4102C16.8608 6.30298 16.9304 6.21363 16.9652 6.12428C17 6.03493 17.0522 5.96345 17.1391 5.92771C17.2261 5.89197 17.2609 5.78475 17.2957 5.65965L17.4522 5.64178C17.4522 5.55242 17.4522 5.49881 17.4696 5.46307L17.487 5.35585C17.5218 5.2665 17.6436 5.05205 17.8349 4.69464L17.9915 4.30149C17.9915 4.26575 18.0262 4.21214 18.0784 4.15853C18.1306 4.10492 18.1654 4.01556 18.1654 3.90834L18.2524 3.56881C18.2524 3.40797 18.2176 3.33649 18.1654 3.33649C18.0958 3.3901 18.0262 3.42584 17.9741 3.44371C17.9219 3.46158 17.8697 3.58667 17.8001 3.81899C17.5914 3.8726 17.4696 3.96195 17.4522 4.12279C17.4174 4.26575 17.3479 4.39085 17.2087 4.49807L17.1391 4.62316C17.1217 4.69464 17.0521 4.784 16.9478 4.85548C16.826 4.94483 16.7217 5.08779 16.6173 5.28437C16.2694 5.76687 16.0955 6.01705 16.0607 6.05279L15.9563 6.17789L15.7997 6.16002C15.8345 6.26725 15.8345 6.33872 15.8345 6.3566C15.8345 6.39234 15.8171 6.44595 15.765 6.48169C15.7302 6.51743 15.6954 6.57104 15.678 6.62465C15.6606 6.67826 15.6084 6.74975 15.5562 6.82123C15.4866 6.89272 15.4345 7.01781 15.3823 7.17864C15.3301 7.33948 15.2953 7.4467 15.2431 7.46457L15.104 7.4467C15.017 7.50031 14.9648 7.55392 14.9648 7.60753L14.9996 7.75049C14.9996 7.78623 14.9822 7.8041 14.9474 7.83984C14.9126 7.87558 14.8778 7.94707 14.8431 8.07217C14.8083 8.17939 14.7213 8.35809 14.5821 8.57254C14.443 8.80485 14.3386 9.03717 14.2516 9.28736C14.1647 9.53754 14.0951 9.69838 14.0255 9.76986C14.0429 9.78773 14.0603 9.78773 14.0951 9.78773C14.2169 9.76986 14.3038 9.66263 14.3908 9.48393Z" fill="#1A1413"/>
<path d="M18.2348 10.4848L18.4435 10.3061C18.6001 10.2882 18.7044 10.1988 18.7044 10.038C18.7218 9.87716 18.8262 9.73419 19.0349 9.62697L19.1567 9.44826C19.261 9.34104 19.5394 9.21595 19.9916 9.03724C20.1134 8.96576 20.1829 8.91215 20.2351 8.85854C20.2525 8.84067 20.2525 8.84067 20.2699 8.84067L20.4265 8.87642C20.5134 8.87642 20.6352 8.85854 20.7744 8.80493C20.9135 8.75132 21.0527 8.73344 21.1744 8.73344L21.6093 8.71558C21.6267 8.71558 21.6963 8.73344 21.7832 8.76919C21.8702 8.80493 21.9746 8.82279 22.0963 8.82279C22.2529 8.82279 22.3747 8.89428 22.5138 9.03724C22.6356 9.18021 22.7052 9.3053 22.7052 9.4304C22.7052 9.64484 22.6008 9.85929 22.3747 10.0916C22.1485 10.3239 21.992 10.449 21.8528 10.4669C21.7311 10.592 21.6441 10.6635 21.5919 10.6992C21.5223 10.7349 21.4701 10.7886 21.4006 10.8422C21.331 10.8958 21.2788 10.9315 21.244 10.9315C21.2092 10.9315 21.1918 10.9315 21.1744 10.8958C21.157 10.8779 21.1396 10.86 21.1049 10.86C21.0005 10.86 20.8787 11.003 20.757 11.2711L20.5656 11.2532C20.4439 11.3247 20.3743 11.414 20.3395 11.5034C20.3047 11.5927 20.2351 11.6463 20.1308 11.6463C19.8872 11.9144 19.7133 12.0395 19.6263 12.0395C19.6089 12.0395 19.5567 12.0216 19.4872 12.0038C19.435 12.0752 19.4002 12.1467 19.4002 12.2182C19.4002 12.3075 19.348 12.3433 19.2436 12.3612L19.1045 12.4862L19.0001 12.4684L18.7914 12.6828C18.687 12.6828 18.5827 12.7186 18.4783 12.79C18.4609 12.8794 18.4435 12.9866 18.4087 13.1117C18.3739 13.2368 18.3739 13.3083 18.3739 13.3262C18.3739 13.5227 18.5479 13.63 18.9132 13.63L19.4002 13.5585C19.522 13.5585 19.6437 13.5227 19.7655 13.4513C19.8699 13.3798 19.9916 13.344 20.1308 13.344C20.1656 13.344 20.2351 13.3262 20.3221 13.3083L20.4265 13.344C20.4787 13.2368 20.5656 13.1475 20.6874 13.0581C20.8092 12.9688 20.9135 12.933 21.0005 12.933L21.1049 12.8794C21.1223 12.79 21.1744 12.7364 21.2266 12.7186L21.3136 12.6471C21.3658 12.5935 21.418 12.5577 21.4701 12.5577H21.6093L21.6441 12.5399C21.7311 12.3612 21.8354 12.2539 21.992 12.2182C22.1311 12.1824 22.2355 12.1288 22.2703 12.0574C22.3051 11.9859 22.3747 11.9501 22.4616 11.9323C22.5486 11.9144 22.6356 11.8787 22.7052 11.7893C22.7747 11.7 22.8443 11.6285 22.9487 11.557C23.0356 11.4855 23.1052 11.4319 23.14 11.3962C23.1748 11.3604 23.2096 11.3425 23.2444 11.3425C23.2792 11.3425 23.314 11.3783 23.314 11.4319C23.314 11.4855 23.3314 11.5212 23.3487 11.5212C23.3661 11.5212 23.3835 11.5034 23.3835 11.4855C23.3835 11.4676 23.3835 11.4319 23.3661 11.3783V11.3068C23.3661 11.1996 23.4183 11.1281 23.5227 11.0924L23.9749 10.7885C23.9923 10.6456 24.0271 10.5562 24.0967 10.5384C24.1663 10.5205 24.2185 10.4848 24.2533 10.449C24.288 10.4133 24.3228 10.3954 24.3576 10.3954C24.4446 10.3954 24.4968 10.449 24.4968 10.5562L24.4446 10.8243L24.4968 11.1102C24.4968 11.146 24.462 11.2175 24.3924 11.2889C24.3228 11.3604 24.288 11.4676 24.2359 11.6285C24.2011 11.7714 24.1489 11.8608 24.0967 11.8787H24.0271C23.9054 12.0037 23.801 12.0931 23.7314 12.111C23.6618 12.1288 23.6097 12.1825 23.5575 12.2361L23.2096 12.6471C23.14 12.7186 23.0878 12.7722 23.0356 12.8437C22.9835 12.8973 22.9487 12.933 22.9313 12.933L22.8443 12.8437C22.8443 12.8258 22.8269 12.8258 22.8095 12.8258C22.7399 12.8258 22.7051 12.8615 22.6878 12.9509C22.6704 13.0402 22.6356 13.1117 22.5834 13.1653C22.3747 13.2547 22.2529 13.344 22.1833 13.4334L22.1137 13.4513H21.9398C21.8528 13.4513 21.7832 13.5227 21.7658 13.6657C21.7311 13.8087 21.6267 13.8801 21.4701 13.898C21.3136 13.9159 21.1918 13.9516 21.1223 14.0231C21.1049 14.041 21.0701 14.0589 21.0353 14.0589C20.9831 14.0767 20.8961 14.1303 20.757 14.2197L19.9046 14.5414C19.8351 14.5771 19.8003 14.595 19.7655 14.595L19.4872 14.6307C19.4524 14.6307 19.4002 14.595 19.3654 14.5414C19.3306 14.4877 19.2958 14.452 19.2784 14.452L19.0871 14.5056C18.9479 14.5414 18.8262 14.5592 18.7044 14.5592C18.6348 14.5592 18.5653 14.5414 18.4783 14.4877C18.3913 14.4341 18.3391 14.3984 18.287 14.3805C18.0956 14.3805 17.9565 14.2197 17.8695 13.9159L17.7477 13.9338C17.7129 13.9338 17.626 13.6836 17.4694 13.1832C17.4346 13.1296 17.365 13.0938 17.2781 13.0581C17.1911 13.0402 17.1389 12.9688 17.1389 12.8615C17.1389 12.5399 17.2085 12.3433 17.3303 12.2361C17.4694 12.1288 17.539 12.0395 17.5564 11.9859L17.6955 11.4498C17.7129 11.4319 17.7651 11.3604 17.7999 11.2353L18.026 10.7885C18.0782 10.7885 18.1478 10.6813 18.2348 10.4848ZM20.3917 9.84142L20.2699 9.89502C20.2351 9.9129 20.1656 9.96651 20.0264 10.0737C19.8872 10.181 19.7655 10.2703 19.6437 10.3418C19.522 10.4133 19.3828 10.5741 19.261 10.86C19.1393 11.146 19.0697 11.3068 19.0697 11.3425C19.0697 11.3783 19.0871 11.3962 19.1393 11.3962L19.4872 11.2353C19.6089 11.1817 19.7307 11.0924 19.8525 11.003C19.9568 10.9136 20.1308 10.7886 20.3395 10.6456L20.4265 10.5562C20.4439 10.5205 20.4961 10.4848 20.6178 10.4133C20.7222 10.3418 20.8092 10.2703 20.8613 10.1988L20.9657 10.1631C21.0875 9.98438 21.1918 9.85929 21.3136 9.82355C21.4354 9.78781 21.4875 9.73419 21.4875 9.69845C21.4875 9.6091 21.418 9.57336 21.2962 9.57336C21.244 9.57336 21.157 9.60911 21.0527 9.68059H20.8092C20.7744 9.68059 20.7048 9.71632 20.583 9.80567L20.3917 9.84142Z" fill="#1A1413"/>
<path d="M20.4614 23.7266C20.444 23.673 20.4092 23.6016 20.3571 23.5301C20.3049 23.4586 20.2875 23.3692 20.2875 23.2977L20.2527 22.7974L20.2701 21.9753C20.2875 21.9575 20.3049 21.9039 20.3397 21.7966C20.4962 21.1712 20.6006 20.8316 20.6354 20.7601C20.6876 20.6887 20.7049 20.5993 20.7223 20.4742C20.7919 20.3849 20.8441 20.2598 20.9311 20.0989C21.0006 19.9202 21.0528 19.7951 21.0528 19.6879C21.0528 19.5807 21.1224 19.5092 21.2094 19.4377C21.279 19.2412 21.3659 19.0803 21.4877 18.9731L21.5921 18.7944C21.7312 18.5799 21.8704 18.4549 22.0095 18.437C22.2009 18.0438 22.4966 17.6328 22.8793 17.2397C23.2793 16.8286 23.575 16.5963 23.749 16.5427C23.7838 16.4534 23.8533 16.3819 23.9229 16.3283C23.9925 16.2746 24.0795 16.2032 24.1491 16.1317L24.3404 15.9709C24.4622 15.5598 24.5491 15.2918 24.6187 15.1667C24.6883 15.0416 24.7231 14.8629 24.7753 14.6484C24.8274 14.434 24.8622 14.2553 24.9318 14.1302L24.9492 13.9336C24.9492 13.9158 24.984 13.8621 25.0536 13.7549C25.1231 13.6477 25.1927 13.4154 25.2449 13.058C25.2449 12.9865 25.2797 12.915 25.3319 12.8078C25.3841 12.7006 25.4189 12.647 25.4189 12.6291L25.3841 12.3789V12.3431C25.3841 12.3074 25.4015 12.2538 25.4536 12.1823L25.6972 11.6462C25.7146 11.5926 25.732 11.5568 25.7493 11.5211C25.7667 11.4854 25.7841 11.4317 25.7841 11.3245L25.8711 11.0565C25.8885 11.0207 25.8885 10.9671 25.8885 10.8599L25.9929 10.4667L25.9755 10.2523C25.7146 10.4131 25.5058 10.5561 25.3493 10.6812L25.1405 10.7884C25.1058 10.8242 25.0536 10.8956 24.984 11.0565L24.81 11.1816C24.6883 11.3067 24.6187 11.396 24.6187 11.4139C24.6187 11.4854 24.5317 11.5568 24.3752 11.6283C24.2186 11.6998 24.1143 11.807 24.0969 11.95V11.9857C24.0273 12.0572 23.9577 12.093 23.8881 12.093C23.7838 12.093 23.6794 12.0394 23.575 11.9321C23.4707 11.8249 23.4185 11.7177 23.4185 11.6462C23.4185 11.396 23.4533 11.2531 23.5055 11.1994C23.5576 11.1458 23.6098 11.0922 23.662 11.0029C23.7142 10.9135 23.836 10.8242 24.0447 10.7348C24.2012 10.5204 24.3404 10.3953 24.4448 10.3417C24.5491 10.288 24.6883 10.1629 24.8448 9.93063C25.2449 9.62683 25.558 9.41239 25.7841 9.2873C25.8015 9.2873 25.8537 9.21581 25.9581 9.09072C26.0625 8.96562 26.2538 8.8048 26.5669 8.60822L26.6887 8.46525C26.7408 8.39377 26.8278 8.35803 26.967 8.35803C27.1409 8.35803 27.3149 8.46526 27.4714 8.66183C27.628 8.87628 27.7149 9.07285 27.7149 9.2873C27.7149 9.41239 27.6801 9.51961 27.6106 9.62683L27.541 9.82341C27.5062 10.02 27.4714 10.1808 27.4192 10.288C27.367 10.5918 27.3322 10.8599 27.3149 11.0922C27.2279 11.2352 27.1235 11.5032 27.0365 11.8964L26.8974 12.361C26.8974 12.5219 26.8626 12.6827 26.7756 12.8435C26.6887 12.9865 26.6365 13.1831 26.6191 13.4333L26.5321 13.5583L26.5147 13.737C26.5147 13.7728 26.4973 13.8085 26.4799 13.8264C26.4625 13.8443 26.4277 13.9157 26.3929 14.0408C26.3408 14.1659 26.306 14.2732 26.2712 14.3446C26.2016 14.4697 26.1668 14.6842 26.1668 14.988L26.1842 15.0416C26.132 15.0416 26.0624 15.1488 25.9929 15.3097C25.9059 15.4884 25.8711 15.5777 25.8711 15.6134C25.8711 15.6492 25.8885 15.6671 25.9059 15.6671L26.3234 15.542C26.4625 15.5062 26.5669 15.4884 26.6365 15.4884C26.706 15.4884 26.7756 15.4705 26.8278 15.4526C26.88 15.4347 27.0539 15.399 27.3496 15.3454C27.6454 15.2918 27.8367 15.2739 27.9585 15.2739L28.1672 15.2918L28.6716 15.2024C28.689 15.1846 28.7412 15.1846 28.8108 15.1846C29.1761 15.1846 29.4892 15.2918 29.6979 15.5062C29.924 15.7207 30.0284 15.9887 30.0284 16.2747C30.0284 16.6321 29.8371 16.8286 29.4544 16.8465H29.3848L29.2456 16.8644C29.1587 16.8644 29.0543 16.7572 28.9847 16.5606C28.8978 16.364 28.8108 16.2568 28.7238 16.2568L28.5325 16.3104C28.4455 16.2568 28.3585 16.2389 28.3063 16.2389C28.2542 16.2389 28.1846 16.221 28.1324 16.1853C28.0802 16.1496 27.9932 16.1138 27.8715 16.0781C27.7671 16.0423 27.6106 16.0066 27.4366 15.9351C27.2105 15.9887 27.0713 16.0245 27.0018 16.0245H26.88L26.3929 16.1674H26.306L26.1146 16.1138C26.0277 16.2032 25.8363 16.2925 25.5754 16.3997C25.5406 16.4355 25.5058 16.5248 25.4884 16.6321C25.471 16.7393 25.4362 16.8465 25.3667 16.9359L25.3319 17.0788C25.2971 17.1324 25.2623 17.186 25.2101 17.2218C25.1579 17.2575 25.1231 17.2933 25.1231 17.3111C25.1231 17.329 25.1405 17.3826 25.1579 17.472V17.5077C25.1579 17.5256 25.1579 17.5435 25.1405 17.5613L25.1231 17.6864V17.7936C25.1231 17.8294 25.0884 17.8651 25.0362 17.9187C24.984 17.9723 24.897 18.0796 24.8448 18.2225L24.81 18.2583C24.7753 18.294 24.7753 18.3119 24.7753 18.3476L24.7927 18.705C24.7927 18.7944 24.7405 18.8659 24.6187 18.8837C24.5317 19.0803 24.4969 19.2054 24.4796 19.2948C24.4622 19.3841 24.4274 19.4556 24.3752 19.5092L23.9925 20.1883C23.9925 20.2598 23.9577 20.367 23.9055 20.51C23.8533 20.6529 23.8186 20.7423 23.8186 20.7959C23.7838 20.8316 23.7316 20.8674 23.6968 20.9031C23.6098 21.2069 23.5576 21.3677 23.5229 21.4035C23.4881 21.4392 23.4533 21.5286 23.4185 21.7073C23.2967 21.7966 23.2098 21.9217 23.175 22.0647C23.1402 22.2255 23.0358 22.3685 22.8619 22.4936C22.6879 22.9225 22.4096 23.3335 22.0269 23.7445" fill="#1A1413"/>
<path d="M21.9226 22.2078H21.9574C22.0096 22.2078 22.0617 22.1899 22.1139 22.1721L22.027 21.9576C22.027 21.8683 22.0791 21.7253 22.1835 21.5645C22.2879 21.4036 22.3922 21.2071 22.4966 20.9926C22.601 20.7782 22.7053 20.6352 22.8097 20.5816L22.7227 20.4386C22.7749 20.2778 22.8097 20.1348 22.8271 20.0455L23.7316 17.758C23.8708 17.4364 23.923 17.2219 23.923 17.1326C23.749 17.2577 23.6273 17.4006 23.5229 17.5436C23.5229 17.5615 23.4359 17.6329 23.2794 17.7759C23.1228 17.9189 22.9663 18.0261 22.8445 18.0976L22.3574 18.7767C22.2879 18.8839 22.2183 18.9554 22.1487 18.9911C21.9226 19.4021 21.7834 19.6881 21.7312 19.831C21.6791 19.974 21.6269 20.0633 21.5747 20.0991L21.4703 20.3671L21.3486 20.5816L21.3312 20.8496C21.279 20.9926 21.2268 21.082 21.192 21.1356C21.1572 21.1892 21.1224 21.2249 21.1224 21.2607L21.1572 21.7253C21.0355 21.8861 20.9833 22.0291 20.9833 22.1542L21.0529 22.601C21.0702 22.7618 21.105 22.8511 21.1572 22.8511C21.192 22.8511 21.2442 22.8154 21.3138 22.7261C21.3834 22.6367 21.4703 22.5831 21.5399 22.5652C21.6095 22.5473 21.6791 22.5116 21.7486 22.4759C21.8008 22.3508 21.853 22.2614 21.9226 22.2078Z" fill="#1A1413"/>
<path d="M27.6629 4.1228C27.8543 4.1228 28.063 4.21216 28.2544 4.40874C28.4457 4.58744 28.5501 4.78401 28.5501 4.96271C28.5501 4.99845 28.5327 5.0342 28.4805 5.08781C28.4457 5.14142 28.3935 5.24864 28.3239 5.40947C28.2544 5.57031 28.0978 5.64178 27.8369 5.64178C27.576 5.64178 27.402 5.51669 27.2629 5.24863C27.1411 4.98058 27.0715 4.81975 27.0715 4.74827C27.0715 4.71253 27.0715 4.67678 27.0889 4.62317C27.1063 4.56956 27.1063 4.48021 27.1237 4.37299C27.1237 4.26577 27.1933 4.21215 27.3325 4.21215L27.5586 4.15855C27.576 4.1228 27.6108 4.1228 27.6629 4.1228Z" fill="#1A1413"/>
<path d="M36.4994 12.0395L36.6559 11.8965C36.7603 11.8965 36.8125 11.8429 36.8299 11.7536C36.8472 11.6642 36.9168 11.5749 37.056 11.5212C37.1777 11.4676 37.2995 11.3604 37.4039 11.1817C37.5082 11.003 37.63 10.9315 37.7344 10.9315C37.7692 10.9315 37.8213 10.9673 37.8735 11.0387C37.9257 11.1102 37.9605 11.1638 37.9605 11.1996C37.9605 11.4319 37.8909 11.6642 37.7518 11.9144L37.717 12.2003L37.6474 12.3433C37.543 12.3969 37.4734 12.4684 37.456 12.522C37.4213 12.5935 37.3517 12.6649 37.2125 12.7543L37.1082 12.8973C36.9516 12.9509 36.8646 13.0224 36.8125 13.1296C36.7603 13.2368 36.6907 13.3083 36.6037 13.3083C36.5168 13.3083 36.4124 13.3976 36.308 13.5227C36.2384 13.5585 36.1515 13.5942 36.0645 13.6121L36.0471 13.7193C35.9775 13.7908 35.8731 13.8444 35.7166 13.8801C35.5774 13.9159 35.4557 13.9695 35.3861 14.0052C35.3165 14.041 35.2643 14.0589 35.2469 14.0589C35.1252 14.0589 35.0034 14.0231 34.8991 13.9874C34.7947 13.9516 34.6729 13.898 34.5686 13.8801C34.5338 13.8444 34.499 13.7908 34.499 13.7372C34.499 13.6836 34.4642 13.63 34.3946 13.5406C34.325 13.4513 34.3076 13.344 34.3076 13.2189L34.3424 13.0224C34.3424 12.9866 34.325 12.9687 34.2902 12.9151C34.2555 12.8794 34.2381 12.8437 34.2381 12.8079C34.2381 12.7722 34.2381 12.7543 34.2555 12.7543C34.2729 12.7364 34.2729 12.7186 34.2729 12.7007C34.2729 12.6649 34.2729 12.6292 34.2555 12.5756C34.2381 12.5399 34.2381 12.5041 34.2381 12.4684L34.2902 11.9501C34.2902 11.9144 34.2729 11.8965 34.2555 11.8965C34.2381 11.8965 34.1859 11.9323 34.0989 12.0037C34.0293 12.0752 33.9424 12.111 33.8554 12.111C33.8032 12.1467 33.751 12.2361 33.7162 12.379C33.664 12.4505 33.5945 12.5041 33.5075 12.5577L33.4727 12.6113C33.4553 12.6649 33.4031 12.7007 33.3162 12.7364C33.2292 12.7722 33.1596 12.8079 33.1248 12.8615L33.0204 12.9687L32.8291 12.9509C32.8117 12.9688 32.7769 13.0224 32.7073 13.1296C32.6552 13.2368 32.5682 13.3262 32.4812 13.3976L31.6985 14.041C31.6115 14.0946 31.4897 14.1661 31.3506 14.2554L31.281 14.309C30.7418 14.6843 30.3591 14.863 30.133 14.863C29.9416 14.863 29.7329 14.8094 29.4894 14.7022C29.2458 14.595 29.1067 14.4699 29.0893 14.3269L28.9849 13.898C28.9153 13.8087 28.8979 13.6657 28.8979 13.487C28.8979 13.3976 28.898 13.344 28.9153 13.3262V13.2725L28.8979 12.933C28.8979 12.8437 28.9675 12.8079 29.0893 12.8079L29.0719 12.522C29.0719 12.4862 29.1241 12.379 29.2458 12.2003C29.3676 12.0037 29.4372 11.8965 29.4894 11.8787L29.5937 11.7357C29.5937 11.6463 29.6285 11.557 29.7329 11.4676C29.8373 11.3783 29.9068 11.2711 29.9764 11.1817C30.046 11.0923 30.1504 10.9673 30.3243 10.86L30.6374 10.5384C30.8809 10.2882 31.1418 10.0916 31.4201 9.94865C31.4549 9.93078 31.5419 9.85929 31.6637 9.7342C31.7854 9.6091 31.9246 9.51975 32.0985 9.46614C32.2551 9.41253 32.4116 9.32318 32.5682 9.23383C32.7247 9.14447 32.8465 9.09085 32.9335 9.09085H33.0204C33.0552 9.09085 33.2292 9.0015 33.5597 8.8228H33.6293C33.664 8.8228 33.7162 8.85854 33.8206 8.91215H33.838L33.9945 8.8228C34.0293 8.80493 34.0467 8.80493 34.0989 8.80493C34.5164 8.80493 34.7599 9.10873 34.7947 9.69845C34.8121 9.82355 34.8469 9.89503 34.8991 9.89503C34.9686 9.89503 35.073 9.76994 35.1948 9.51975C35.3165 9.26956 35.5948 9.14447 35.9949 9.14447C36.2906 9.14447 36.4298 9.34104 36.4298 9.71632C36.4298 10.1631 36.2384 10.592 35.8384 11.003C35.8036 11.0566 35.7862 11.1281 35.7862 11.1817L35.647 11.6106V11.6285C35.647 11.6642 35.6122 11.7357 35.5601 11.8072C35.5079 11.8786 35.4731 11.9501 35.4731 12.0037L35.4905 12.2718L35.4557 12.5577C35.4557 12.6828 35.4731 12.7722 35.5253 12.8258C35.7514 12.7722 35.8905 12.6828 35.9949 12.5399C36.0993 12.4148 36.1689 12.3433 36.2036 12.3254L36.308 12.2897C36.3602 12.2003 36.4298 12.111 36.4994 12.0395ZM33.1248 12.0395C33.1596 11.8786 33.2292 11.7714 33.3683 11.6821C33.5075 11.5927 33.5945 11.5212 33.6119 11.4319C33.7336 11.3425 33.925 11.1638 34.1685 10.9136C34.412 10.6635 34.5338 10.5026 34.5338 10.449C34.5338 10.4311 34.5164 10.4133 34.499 10.4133H34.4816L34.3946 10.4669L34.2207 10.449L34.0293 10.4669L33.8902 10.3954L33.751 10.4133L33.5423 10.3775C33.4379 10.3775 33.3336 10.3954 33.264 10.449C33.177 10.5026 33.0378 10.5384 32.8117 10.592C32.5856 10.6456 32.3942 10.7349 32.2203 10.8779C32.0464 11.0209 31.9072 11.0745 31.8376 11.0745C31.7854 11.1817 31.6289 11.3247 31.3506 11.5212C31.194 11.5749 31.0897 11.6999 31.0375 11.8787C30.8635 12.0216 30.7766 12.111 30.7766 12.1288L30.707 12.3075C30.6548 12.3611 30.5852 12.3969 30.4982 12.4326C30.4113 12.4684 30.3765 12.5399 30.3591 12.6471C30.3417 12.7722 30.3069 12.8615 30.2199 12.9687C30.133 13.076 30.0982 13.1474 30.0982 13.2011C30.0982 13.5406 30.1677 13.7193 30.2895 13.7193C30.3417 13.7193 30.4635 13.6836 30.6374 13.6121C30.8113 13.5406 30.9157 13.487 30.9331 13.4691C30.9679 13.4334 31.0201 13.4155 31.0897 13.3798L31.281 13.2725C31.3158 13.2368 31.3332 13.2189 31.368 13.2189C31.4028 13.2189 31.4376 13.1832 31.4723 13.1475C31.5071 13.1117 31.5593 13.0581 31.6463 13.0224C31.7333 12.9687 31.8028 12.9151 31.855 12.8437C31.9768 12.7722 32.1507 12.6649 32.4116 12.522L32.6204 12.3612C32.7769 12.2897 32.8639 12.2361 32.8987 12.1825C32.9509 12.1288 33.0205 12.0931 33.1248 12.0395Z" fill="#1A1413"/>
<path d="M46.6749 12.6829H46.7097L46.8141 12.7186C46.8315 12.7186 46.8489 12.7186 46.8489 12.7008C46.8489 12.5757 46.901 12.4863 47.0054 12.397C47.0402 12.2719 47.1098 12.1646 47.2315 12.0932C47.3533 12.0217 47.5446 11.9145 47.8056 11.7536L48.0665 11.5213L48.1882 11.4677L48.2752 11.3605C48.3448 11.2711 48.4144 11.2175 48.4839 11.2175C48.5883 11.2175 48.6405 11.2532 48.6405 11.3426L48.5535 11.557L48.5883 11.8966C48.5883 12.0217 48.5535 12.1289 48.4665 12.2361C48.3796 12.3433 48.2578 12.4684 48.0665 12.665L47.5446 13.2369L47.2663 13.3798C47.1967 13.4156 47.1446 13.4692 47.0924 13.5228L46.6923 13.8623C46.6923 13.9517 46.6575 14.041 46.6053 14.0768H46.4488L46.3618 14.1125C46.3096 14.2376 46.1705 14.3806 45.9443 14.5057L45.8052 14.6129C45.753 14.6486 45.7182 14.6665 45.666 14.6665L45.3877 14.6308L45.1964 14.6665C45.1442 14.6665 45.0746 14.6308 44.9702 14.5772C44.8833 14.5235 44.7789 14.4699 44.6919 14.4521C44.605 14.4342 44.4832 14.2912 44.3266 14.0589C44.1875 13.8266 44.1005 13.6836 44.0831 13.6122C44.0831 13.5764 44.0657 13.5407 44.0309 13.4692C43.9961 13.3977 43.9788 13.362 43.9788 13.3441C43.9788 13.3262 44.0135 13.2547 44.0657 13.1296V13.1118C44.0657 13.0939 44.0483 13.0403 44.0135 12.9688C43.9788 12.8973 43.9614 12.7901 43.9614 12.6829C43.9614 12.6293 43.944 12.5399 43.9092 12.4506C43.9614 12.397 43.9962 12.3612 43.9962 12.3255C43.9962 12.2897 43.9788 12.254 43.9614 12.2004C43.944 12.1468 43.9266 12.111 43.9266 12.0753L43.9788 11.557L43.944 11.289L43.9614 11.0388C43.9614 10.8958 43.9092 10.8244 43.7874 10.8244C43.7352 10.8244 43.6657 10.8601 43.5787 10.9494L43.5091 10.9673C43.3352 11.0567 43.196 11.1282 43.1264 11.1996C43.0569 11.2533 42.9699 11.289 42.9003 11.289C42.8655 11.3247 42.7785 11.3783 42.6742 11.3962L42.5872 11.4498C42.5524 11.4856 42.5002 11.5213 42.4306 11.5749C42.4306 11.5928 42.3089 11.7179 42.048 11.9323C41.787 12.1468 41.5609 12.3434 41.3696 12.5399C41.1608 12.7186 41.0217 12.8258 40.9347 12.8437C40.8477 12.8616 40.7956 12.9509 40.7956 13.1118C40.7956 13.1475 40.7434 13.2011 40.6216 13.2726C40.6042 13.2726 40.5346 13.3441 40.4129 13.5049C40.3085 13.4156 40.2389 13.3798 40.2389 13.3798C40.152 13.3798 40.0824 13.5049 40.0476 13.7194C40.0128 13.8087 39.891 13.8623 39.7171 13.8802C39.6997 13.8802 39.6823 13.9338 39.6475 14.041L39.6127 14.0768H39.5084C39.491 14.0768 39.4562 14.1125 39.3692 14.2019C39.2822 14.2912 39.2127 14.327 39.1605 14.3448C39.0735 14.5414 39.0039 14.6308 38.9343 14.6308C38.8996 14.6308 38.8648 14.6129 38.8126 14.595C38.7604 14.5593 38.6908 14.5414 38.6212 14.5235C38.5517 14.5057 38.4647 14.4163 38.3777 14.2734C38.2907 14.1304 38.2386 14.0053 38.2386 13.8981C38.2386 13.1296 38.3777 12.7008 38.6734 12.6293L38.6908 12.5935V12.5042C38.6908 12.4148 38.7256 12.3433 38.8126 12.3076C38.8996 12.2719 38.9691 12.1825 39.0561 12.0753C39.1431 11.9502 39.1953 11.8966 39.2127 11.8787H39.3518C39.3866 11.8787 39.3866 11.8072 39.3866 11.6643C39.3866 11.6285 39.404 11.5749 39.4388 11.5392C39.4736 11.5034 39.491 11.4498 39.491 11.3962C39.491 11.3247 39.5432 11.2175 39.6301 11.0745C39.7171 10.9316 39.7693 10.8422 39.7693 10.8065L39.7519 10.7707C39.5779 10.9316 39.4562 11.0209 39.3866 11.0388C39.317 11.0567 39.2127 11.146 39.0735 11.3426L38.917 11.3069C38.6386 11.5213 38.4473 11.6464 38.3951 11.6643C38.3255 11.7 38.256 11.7715 38.169 11.8966C38.169 11.9323 38.1516 11.9681 38.0994 11.9859C38.0472 12.0038 37.9603 12.0574 37.8385 12.1468H37.7863C37.6124 12.1468 37.5254 12.0217 37.5254 11.7715L37.7341 11.1818C37.7863 11.0031 37.9429 10.8422 38.169 10.6993C38.3951 10.5742 38.5865 10.4491 38.743 10.324C38.8996 10.1989 39.0561 10.1453 39.2127 10.1453L39.2822 10.0381C39.5084 9.94871 39.6649 9.80574 39.7519 9.60917C39.8389 9.41259 39.9432 9.32324 40.0824 9.32324C40.4651 9.32324 40.7434 9.4662 40.9347 9.75213C41.1261 10.0381 41.2304 10.2525 41.2304 10.4312L41.2478 10.7171C41.2478 10.8065 41.2304 10.9494 41.1956 11.1282C41.1087 11.2532 41.0739 11.3426 41.0739 11.4141C41.0739 11.4677 41.1087 11.5034 41.1782 11.5034C41.213 11.5034 41.2652 11.4677 41.3348 11.4141C41.4044 11.3605 41.474 11.3069 41.5609 11.2532C41.6479 11.1996 41.7001 11.1639 41.7001 11.1282C41.7697 10.9673 41.8914 10.8422 42.048 10.7886C42.2219 10.7171 42.3263 10.6635 42.3611 10.6278L42.4654 10.5384L42.5524 10.3776C42.7437 10.2882 42.8655 10.2168 42.9177 10.1453C42.9699 10.0738 43.0568 10.0202 43.1612 10.0023C43.2656 9.98445 43.3873 9.91297 43.5091 9.82361L43.6657 9.78787L43.8048 9.69852C43.8222 9.68065 43.857 9.66278 43.9266 9.64491C43.9962 9.62704 44.1005 9.59129 44.2223 9.53768C44.3614 9.48407 44.4484 9.4662 44.4832 9.4662C44.8311 9.4662 45.1094 9.60916 45.3007 9.89509C45.5095 10.181 45.5964 10.4133 45.5964 10.592L45.5791 10.7707L45.6138 11.0567V11.0924L45.5269 11.6643L45.5443 11.8608C45.5443 12.1825 45.4747 12.4148 45.3355 12.5399C45.3007 12.5578 45.2833 12.5935 45.2833 12.6471V12.7365L45.4921 13.1833C45.5443 13.3441 45.5964 13.4156 45.6312 13.4156L45.9617 13.3262C46.0487 13.2905 46.1357 13.219 46.1879 13.1118C46.24 13.076 46.3444 13.0046 46.4662 12.8616C46.5184 12.7365 46.5879 12.6829 46.6749 12.6829Z" fill="#1A1413"/>
<path d="M48.9537 13.7371L48.8667 13.201C48.8667 13.1653 48.8841 13.0938 48.9189 13.0044C48.9537 13.0044 48.9885 12.9866 49.0232 12.9687L48.9711 12.7721C48.9711 12.5219 49.0406 12.3254 49.1624 12.1467C49.3016 11.968 49.3711 11.8429 49.3885 11.7893C49.4059 11.7356 49.4929 11.5212 49.6842 11.1817C49.8582 10.8421 49.9973 10.6098 50.0843 10.5204L50.1365 10.3775L50.2235 10.3596C50.38 10.0916 50.6061 9.85924 50.8845 9.66267C50.9714 9.50183 51.0932 9.37675 51.2323 9.28739C51.3715 9.19804 51.4585 9.12656 51.5107 9.07295C51.5628 9.01933 51.6324 9.00146 51.7194 8.98359L51.7542 8.96573C51.9455 8.76915 52.1195 8.66193 52.2586 8.66193C52.3108 8.60832 52.3978 8.5547 52.5369 8.50109H52.6413C52.6761 8.50109 52.7283 8.48322 52.7631 8.46535C52.7978 8.4296 52.85 8.42961 52.8848 8.42961C52.9196 8.42961 52.9892 8.46535 53.0936 8.51897C53.1979 8.41174 53.2849 8.35813 53.3545 8.35813C53.4936 8.35813 53.6502 8.41174 53.7893 8.51897C53.9285 8.62619 54.0329 8.76915 54.0676 8.92998C54.1024 9.09082 54.1372 9.18017 54.172 9.21591C54.2068 9.25165 54.2242 9.26953 54.259 9.32314C54.3112 9.32314 54.3807 9.19804 54.4677 8.92998L54.5895 8.76915C54.7808 8.51896 54.9026 8.23303 54.9722 7.91137C54.9895 7.8935 55.0069 7.83988 55.0243 7.73266C55.0591 7.62544 55.1287 7.4646 55.2331 7.21441C55.4244 6.92849 55.581 6.62469 55.6505 6.32089L55.7723 6.14219C55.8593 6.08857 55.8941 6.01709 55.9115 5.96348C55.9115 5.892 55.9462 5.83839 55.9636 5.78478C55.9984 5.73116 56.0332 5.65969 56.0854 5.58821C56.1376 5.49885 56.1724 5.44524 56.1898 5.42737C56.2072 5.4095 56.2593 5.30228 56.3115 5.14144C56.3637 4.98061 56.4333 4.89126 56.5029 4.87339C56.5724 4.85552 56.6594 4.81977 56.7464 4.74829L56.7638 4.67682L56.729 4.53384C56.729 4.44449 56.816 4.30153 56.9899 4.08708C57.1639 3.87264 57.303 3.71181 57.3726 3.56885C57.4596 3.42588 57.5813 3.22931 57.7727 2.94338C57.964 2.65745 58.0858 2.49661 58.1727 2.42513L58.3989 2.17495C58.5032 2.01412 58.6598 1.94263 58.8511 1.94263C59.0077 1.94263 59.1642 2.03198 59.3208 2.19282C59.4773 2.35365 59.5643 2.51449 59.5643 2.67532C59.5643 2.72893 59.5295 2.85403 59.4425 3.06847L59.4251 3.19356C59.4251 3.30078 59.3904 3.44375 59.3208 3.58671C59.2512 3.74755 59.199 3.85477 59.1816 3.94412L58.6076 5.37376C58.538 5.4095 58.5032 5.42737 58.4858 5.42737C58.3119 5.82052 58.1727 6.03497 58.0684 6.07071V6.28516C58.0684 6.35664 58.0162 6.41024 57.9292 6.44599L57.8944 6.46386C57.8422 6.73192 57.7553 6.92849 57.6683 7.03571C57.5813 7.14293 57.4944 7.26802 57.4596 7.39312C57.4248 7.51821 57.3378 7.5897 57.2508 7.5897C57.1639 7.5897 57.1117 7.73266 57.1117 8.00072C57.0769 8.14368 57.0247 8.21517 56.9029 8.21517C56.7986 8.21517 56.729 8.30452 56.7116 8.48322C56.6768 8.66193 56.5551 8.76915 56.3115 8.76915C56.242 8.80489 56.2072 8.8585 56.1898 8.91211L56.2767 9.18016C56.2767 9.21591 56.155 9.39462 55.8941 9.68055L55.8071 9.9486C55.6853 10.0022 55.581 10.3596 55.494 11.0208L55.3722 11.7356L55.3896 12.0216L55.3548 12.1645L55.4766 12.5934L55.4592 12.8257C55.4592 12.933 55.494 12.9866 55.581 12.9866C55.6158 12.9866 55.7201 12.933 55.8593 12.79L55.9984 12.7364C56.4333 12.5041 56.6942 12.2896 56.7986 12.0931C56.8334 12.0573 56.8682 12.0394 56.9377 12.0037C57.0073 11.968 57.0595 11.9322 57.0943 11.8965C57.1291 11.8429 57.1465 11.8071 57.1813 11.7893C57.5987 11.5033 57.8596 11.271 57.9814 11.0566C58.1032 10.8421 58.2249 10.717 58.3641 10.6813L58.451 10.5919C58.538 10.5205 58.6076 10.4847 58.6598 10.4847C58.7815 10.4847 58.8337 10.5205 58.8337 10.5919L58.7468 10.8779C58.8163 11.0744 58.8511 11.1817 58.8511 11.1995C58.8511 11.4497 58.7468 11.5927 58.538 11.6463C58.451 11.7356 58.3815 11.8429 58.3293 11.968C58.2771 12.0931 58.1727 12.1645 57.9988 12.1824C57.877 12.3432 57.7727 12.4505 57.6857 12.5041C57.5987 12.5577 57.5465 12.6113 57.5465 12.6649V12.7543C57.4944 12.8436 57.4422 12.8972 57.4074 12.9151L57.216 12.8794C57.1813 12.9687 57.1291 13.0759 57.0421 13.2189C57.0073 13.1832 56.9725 13.1832 56.9551 13.1832C56.8682 13.1832 56.7812 13.2368 56.729 13.3619C56.6768 13.4869 56.6246 13.5406 56.5898 13.5406H56.3637C56.3289 13.5584 56.2767 13.612 56.2072 13.6835C56.1376 13.755 55.9984 13.7908 55.8245 13.7908L55.5114 13.8444C55.2157 13.8444 54.9374 13.755 54.6764 13.5406C54.4155 13.344 54.2938 13.1653 54.2764 13.0044C54.259 12.8436 54.2068 12.647 54.1024 12.4147L54.085 11.9858C54.0155 11.5391 53.9285 11.3068 53.8241 11.3068L53.8067 11.4497L53.7198 11.4855C53.685 11.6999 53.6154 11.8071 53.511 11.8071C53.4762 11.825 53.424 11.8607 53.3719 11.9144L53.3197 11.9501C53.2849 11.968 53.2501 12.0216 53.1979 12.1288C53.1457 12.236 53.0066 12.379 52.7805 12.5756C52.6935 12.8436 52.6065 12.9687 52.5717 12.9687L52.45 12.8794H52.4326C52.3804 12.8794 52.3282 12.9687 52.2934 13.1295C52.2586 13.2904 52.189 13.3797 52.0847 13.3797C52.0499 13.3797 52.0325 13.4333 52.0151 13.5227C51.9977 13.612 51.9281 13.6835 51.8412 13.7014C51.7542 13.7193 51.6672 13.8265 51.5802 13.9873C51.4933 14.1482 51.4585 14.2375 51.4237 14.2375C51.4063 14.2375 51.3889 14.2375 51.3715 14.2196L51.1976 14.2554C51.1628 14.309 51.1106 14.3805 51.0584 14.4877C51.0062 14.5056 50.9366 14.5413 50.9018 14.577C50.6931 14.7915 50.4148 14.8987 50.0669 14.8987C49.8234 14.8987 49.6321 14.8451 49.4929 14.7379C49.3537 14.6307 49.2668 14.5413 49.232 14.4698C49.1972 14.3983 49.145 14.2911 49.0754 14.1839C49.0232 14.0409 48.9885 13.898 48.9537 13.7371ZM53.0414 11.3604L53.1109 11.2174C53.2327 11.1817 53.3023 11.0744 53.3371 10.8957C53.3893 10.86 53.5284 10.6634 53.7545 10.3596C53.9807 10.038 54.085 9.85925 54.085 9.82351C54.0155 9.75203 53.9459 9.71628 53.8589 9.71628C53.8415 9.71628 53.8067 9.73415 53.7372 9.75202C53.6676 9.76989 53.598 9.80563 53.5284 9.80563C53.4588 9.8235 53.3893 9.84137 53.3023 9.89498L53.0414 9.85925C52.9718 9.85925 52.7978 9.96646 52.5369 10.163L52.3108 10.1273C52.276 10.1273 52.2064 10.2167 52.1021 10.3954L51.5802 10.8242H51.5281C51.4411 10.8242 51.3715 10.9136 51.3367 11.0923C51.2149 11.2531 51.1106 11.3604 51.0062 11.414C50.9019 11.4676 50.8323 11.5569 50.7975 11.6642V11.8071C50.6061 12.0216 50.5192 12.1824 50.5192 12.3075C50.38 12.4505 50.293 12.5934 50.2409 12.7543C50.1887 12.9151 50.1539 13.0581 50.0843 13.1653C50.1191 13.2546 50.1365 13.3797 50.1365 13.5227C50.1539 13.6657 50.2235 13.7371 50.3452 13.7371C50.5366 13.7371 50.7627 13.612 51.0062 13.3797C51.0236 13.3619 51.0758 13.3261 51.1802 13.2546C51.2845 13.201 51.4237 13.0759 51.5976 12.8794C51.7716 12.7006 51.8759 12.5934 51.8933 12.5934C51.9629 12.5219 51.9977 12.4862 52.0151 12.4862L52.1021 12.3968C52.1021 12.3611 52.1369 12.3432 52.189 12.3075C52.2412 12.2718 52.3282 12.2003 52.4152 12.0931C52.5021 11.9858 52.5891 11.9143 52.6413 11.8965C52.6935 11.8786 52.7283 11.8429 52.7457 11.8071C52.7631 11.7714 52.7978 11.7356 52.85 11.6999C52.9022 11.6642 52.9196 11.6284 52.9196 11.5927L52.937 11.4676L53.0414 11.3604ZM56.5724 7.10719L56.4681 7.411C56.555 7.39312 56.642 7.30377 56.6942 7.12506C56.9029 6.82126 57.0421 6.64256 57.1117 6.57108C57.1986 6.57108 57.2682 6.51747 57.3204 6.39238C57.3726 6.28515 57.4422 6.16006 57.5639 6.05283C57.5639 5.99922 57.6161 5.90987 57.7205 5.76691C57.8248 5.62395 57.8944 5.53459 57.9292 5.46311C57.964 5.4095 58.0162 5.32015 58.1206 5.2308C58.2075 5.14144 58.3119 4.96274 58.3815 4.73043C58.4684 4.49811 58.538 4.35514 58.6076 4.30153C58.6598 4.24792 58.6946 4.15857 58.6946 4.01561C58.6946 3.81903 58.6772 3.71181 58.6598 3.71181C58.6076 3.71181 58.5554 3.74755 58.5206 3.8369C58.4858 3.92625 58.4163 4.01561 58.3293 4.1407L57.9814 4.73043C57.8422 4.96274 57.7553 5.15932 57.7205 5.30228C57.6683 5.44525 57.6335 5.51672 57.5639 5.55246C57.4944 5.5882 57.4422 5.64182 57.3552 5.74904L57.216 5.89201C57.1813 5.98136 57.1639 6.07071 57.1291 6.19581L57.0421 6.28516V6.48173C57.0421 6.57108 56.9899 6.66044 56.8855 6.73192C56.7812 6.8034 56.729 6.85701 56.729 6.87488L56.5724 7.10719Z" fill="#1A1413"/>
<path d="M59.8947 9.66265L60.0512 9.62691L60.1034 9.48394C60.4339 9.28737 60.6774 9.09079 60.8166 8.91209C60.834 8.87635 60.8688 8.85848 60.9036 8.82274C60.9557 8.78699 61.0079 8.75126 61.0601 8.67977C61.321 8.41172 61.6167 8.28662 61.9646 8.28662C62.3647 8.28662 62.5908 8.53682 62.6256 9.05506L62.6778 9.21589C62.73 9.30524 62.817 9.51968 62.9039 9.80561C63.0083 10.1094 63.0431 10.2881 63.0431 10.3596C63.0431 10.5562 62.9909 10.7349 62.8691 10.9315C62.7822 10.9851 62.5386 11.2353 62.1908 11.7178L62.0864 11.7892C62.0342 11.9143 61.9646 12.0394 61.8777 12.1645C61.7385 12.2181 61.6689 12.2717 61.6689 12.3254V12.5041C61.6689 12.5219 61.6515 12.5398 61.6167 12.5934C61.582 12.6292 61.5472 12.7185 61.495 12.8257L61.408 12.9508C61.3732 12.9866 61.3558 13.0402 61.321 13.1295C61.2862 13.2189 61.2515 13.2904 61.1993 13.3618C61.1471 13.4333 61.1297 13.4869 61.1297 13.5227C61.1297 13.6299 61.2689 13.6835 61.5298 13.6835C61.5472 13.6835 61.5993 13.6656 61.6863 13.6299L61.8255 13.6656C61.8429 13.6656 61.8777 13.6478 61.9298 13.5942C61.982 13.5405 62.069 13.5048 62.1734 13.4869C62.2951 13.4512 62.3821 13.4155 62.4691 13.3618C62.556 13.3082 62.6604 13.2546 62.7822 13.2189C62.9039 13.1831 63.0083 13.1116 63.1301 13.0223C63.2344 12.9329 63.3388 12.8615 63.4432 12.8257C63.5475 12.79 63.6519 12.7185 63.7389 12.6292C63.8258 12.5398 63.9302 12.4504 64.052 12.379C64.1737 12.3075 64.3477 12.1288 64.6086 11.8786C64.7651 11.7535 64.8869 11.6641 64.9391 11.6641C64.9565 11.6641 65.0086 11.5748 65.113 11.3961C65.2174 11.2174 65.3391 11.1102 65.4783 11.1102C65.6175 11.1102 65.687 11.1816 65.687 11.3246C65.687 11.3961 65.6522 11.4676 65.5827 11.539V11.5927L65.6001 11.7535C65.6174 11.7714 65.6175 11.8071 65.6175 11.8428C65.6175 11.8786 65.5827 11.9143 65.5479 11.9679C65.4957 12.0216 65.4609 12.093 65.4435 12.1824C65.4261 12.2717 65.3565 12.3254 65.2522 12.3611C65.2174 12.5219 65.1652 12.5934 65.0956 12.6292C65.026 12.647 64.9391 12.7185 64.8173 12.8436C64.6955 12.9687 64.539 13.0938 64.3303 13.2546C64.1215 13.4155 63.9824 13.5405 63.8954 13.6299C63.8084 13.7192 63.7563 13.755 63.7389 13.755C63.7215 13.755 63.7041 13.7371 63.6519 13.7192C63.6171 13.6835 63.5823 13.6835 63.5649 13.6835C63.5301 13.6835 63.4953 13.7371 63.4779 13.8265L63.4432 13.9337C63.3562 13.9873 63.304 14.023 63.2866 14.023L63.2344 14.0052H63.1996C63.1127 14.0052 63.0779 14.0409 63.0779 14.0945L63.1301 14.2018V14.2196C63.1301 14.309 63.0779 14.3626 62.9735 14.3626C62.9039 14.3626 62.6778 14.4877 62.3125 14.7557L62.0168 14.8093L61.7733 14.9523C61.6863 14.8987 61.6341 14.8808 61.6167 14.8808L61.4602 14.9344L61.1645 14.9523C61.1645 14.9523 61.0253 14.8808 60.7992 14.7379C60.5557 14.5949 60.4165 14.4519 60.3643 14.3268C60.3122 14.1839 60.26 14.0409 60.1904 13.898C60.1208 13.755 60.086 13.6478 60.086 13.5942C60.086 13.2546 60.1208 13.0223 60.173 12.8793C60.2252 12.7364 60.26 12.6292 60.2774 12.5577C60.2948 12.4862 60.3296 12.4147 60.3991 12.3254C60.4687 12.236 60.5209 12.1109 60.5557 11.9322C60.747 11.5212 60.8862 11.271 60.9558 11.1816C61.0253 11.0923 61.0949 10.9851 61.1297 10.8421L61.2689 10.6634C61.2862 10.6455 61.3036 10.5919 61.321 10.5026C61.3558 10.4132 61.3732 10.3596 61.4254 10.3417C61.4776 10.2524 61.5124 10.1809 61.5124 10.163C61.5124 9.96645 61.4254 9.85923 61.2515 9.85923C61.2167 9.85923 61.1819 9.89497 61.1471 9.96645C61.1123 10.0379 61.0079 10.1094 60.8688 10.1809C60.7296 10.2524 60.6253 10.306 60.6079 10.3417C60.5731 10.3775 60.5035 10.4132 60.3817 10.4668C60.26 10.5204 60.173 10.6098 60.086 10.717L59.9121 10.8064C59.8599 10.9315 59.8077 11.0208 59.7729 11.0208C59.7381 11.0387 59.599 11.0744 59.3903 11.128C59.3729 11.128 59.3381 11.1816 59.2859 11.2531C59.2337 11.3246 59.1467 11.3603 59.0598 11.3603C58.9728 11.4497 58.9032 11.5391 58.8162 11.6463C58.7814 11.6463 58.7119 11.682 58.6075 11.7356L58.3988 11.7892C58.3466 11.825 58.277 11.8965 58.2248 11.9858C58.1553 12.0752 58.0335 12.1288 57.8595 12.1288C57.7552 12.1288 57.703 12.0394 57.703 11.8786C57.703 11.5391 57.8248 11.271 58.0509 11.0565C58.277 10.86 58.451 10.7527 58.5727 10.7349C58.6945 10.717 58.7467 10.6813 58.7815 10.6098C58.8162 10.5383 58.8684 10.4847 58.9902 10.4311C59.0945 10.3775 59.2163 10.2881 59.3555 10.1273C59.4946 9.96645 59.6512 9.85922 59.8077 9.80561L59.8947 9.66265Z" fill="#1A1413"/>
<path d="M73.202 12.0395L73.3586 11.8965C73.463 11.8965 73.5151 11.8429 73.5325 11.7536C73.5499 11.6642 73.6195 11.5749 73.7587 11.5212C73.8804 11.4676 74.0022 11.3604 74.1066 11.1817C74.2109 11.003 74.3327 10.9315 74.4371 10.9315C74.4718 10.9315 74.524 10.9673 74.5762 11.0387C74.6284 11.1102 74.6632 11.1638 74.6632 11.1996C74.6632 11.4319 74.5936 11.6642 74.4544 11.9144L74.4197 12.2003L74.3501 12.3433C74.2457 12.3969 74.1761 12.4684 74.1587 12.522C74.1239 12.5935 74.0544 12.6649 73.9152 12.7543L73.8108 12.8973C73.6543 12.9509 73.5673 13.0224 73.5151 13.1296C73.463 13.2368 73.3934 13.3083 73.3064 13.3083C73.2194 13.3262 73.1151 13.3976 73.0107 13.5227C72.9411 13.5585 72.8541 13.5942 72.7672 13.6121L72.7498 13.7193C72.6802 13.7908 72.5758 13.8444 72.4367 13.8801C72.2975 13.9159 72.1758 13.9695 72.1062 14.0052C72.0366 14.041 71.9844 14.0589 71.967 14.0589C71.8453 14.0589 71.7235 14.0231 71.6191 13.9874C71.5148 13.9338 71.393 13.898 71.2886 13.8801C71.2539 13.8444 71.2191 13.7908 71.2191 13.7372C71.2191 13.6836 71.1843 13.63 71.1147 13.5406C71.0625 13.4513 71.0277 13.344 71.0277 13.2189L71.0625 13.0224C71.0625 12.9866 71.0451 12.9687 71.0103 12.9151C70.9755 12.8794 70.9582 12.8437 70.9582 12.8079C70.9582 12.7722 70.9581 12.7543 70.9755 12.7543C70.9929 12.7364 70.9929 12.7186 70.9929 12.7007C70.9929 12.6649 70.9929 12.6292 70.9755 12.5756C70.9581 12.5399 70.9582 12.5041 70.9582 12.4684L71.0103 11.9501C71.0103 11.9144 70.9929 11.8965 70.9755 11.8965C70.9408 11.8965 70.906 11.9323 70.8364 12.0037C70.7668 12.0752 70.6798 12.111 70.5929 12.111C70.5407 12.1467 70.4885 12.2361 70.4537 12.379C70.4015 12.4505 70.3319 12.5041 70.245 12.5577L70.2102 12.6113C70.1928 12.6649 70.1406 12.7007 70.0536 12.7364C69.9667 12.7722 69.8971 12.8079 69.8623 12.8615L69.7579 12.9687L69.5666 12.9509C69.5492 12.9688 69.5144 13.0224 69.4448 13.1296C69.3926 13.2368 69.3057 13.3262 69.2187 13.3976L68.436 14.041C68.349 14.0946 68.2272 14.1661 68.0881 14.2554L68.0359 14.309C67.4966 14.6843 67.114 14.863 66.8878 14.863C66.7139 14.863 66.4878 14.8094 66.2442 14.7022C66.0007 14.595 65.8616 14.4699 65.8442 14.3269L65.7398 13.898C65.6876 13.8087 65.6528 13.6657 65.6528 13.487C65.6528 13.3976 65.6528 13.344 65.6702 13.3262V13.2725L65.6528 12.933C65.6528 12.8437 65.7224 12.8079 65.8442 12.8079L65.8268 12.522C65.8268 12.4862 65.879 12.379 66.0007 12.2003C66.1225 12.0037 66.2094 11.8965 66.2442 11.8787L66.3486 11.7357C66.3486 11.6463 66.3834 11.557 66.4878 11.4676C66.5921 11.3783 66.6617 11.2711 66.7313 11.1817C66.7835 11.0923 66.9052 10.9673 67.0792 10.86L67.3923 10.5384C67.6358 10.2882 67.8793 10.0916 68.175 9.94865C68.2098 9.93078 68.2968 9.85929 68.4186 9.7342C68.5403 9.6091 68.6795 9.51975 68.8534 9.46614C69.01 9.41253 69.1665 9.32318 69.3231 9.23383C69.4796 9.14447 69.6014 9.09085 69.6883 9.09085H69.7753C69.8101 9.09085 69.9841 9.0015 70.3146 8.8228H70.3667C70.4015 8.8228 70.4537 8.85854 70.5581 8.91215H70.5755L70.732 8.8228C70.7668 8.80493 70.7842 8.80493 70.8364 8.80493C71.2539 8.80493 71.4974 9.10873 71.5322 9.69845C71.5496 9.82355 71.5843 9.89503 71.6365 9.89503C71.7061 9.89503 71.8105 9.76994 71.9322 9.51975C72.054 9.26956 72.3323 9.14447 72.7324 9.14447C73.0281 9.14447 73.1672 9.34104 73.1672 9.71632C73.1672 10.1631 72.9759 10.592 72.5758 11.003C72.541 11.0566 72.5237 11.1281 72.5237 11.1817L72.3845 11.6106V11.6285C72.3845 11.6642 72.3497 11.7357 72.2975 11.8072C72.2453 11.8786 72.2105 11.9501 72.2105 12.0037L72.2279 12.2718L72.1932 12.5577C72.1932 12.6828 72.2106 12.7722 72.2627 12.8258C72.4889 12.7722 72.6454 12.6828 72.7324 12.5399C72.8367 12.4148 72.9063 12.3433 72.9411 12.3254L73.0455 12.2897C73.0455 12.2003 73.1151 12.111 73.202 12.0395ZM69.8101 12.0395C69.8449 11.8786 69.9145 11.7714 70.0536 11.6821C70.1928 11.5927 70.2798 11.5212 70.2972 11.4319C70.4189 11.3425 70.6103 11.1638 70.8538 10.9136C71.0973 10.6635 71.2191 10.5026 71.2191 10.449C71.2191 10.4311 71.2017 10.4133 71.1843 10.4133H71.1669L71.0799 10.4669L70.906 10.449L70.7146 10.4669L70.5755 10.3954L70.4363 10.4133L70.2276 10.3775C70.1232 10.3775 70.0188 10.3954 69.9493 10.449C69.8797 10.5026 69.7231 10.5384 69.497 10.592C69.2709 10.6456 69.0795 10.7349 68.9056 10.8779C68.7316 11.0209 68.5925 11.0745 68.5229 11.0745C68.4707 11.1817 68.3142 11.3247 68.0359 11.5212C67.8793 11.5749 67.775 11.6999 67.7228 11.8787C67.5488 12.0216 67.4619 12.111 67.4619 12.1288L67.3923 12.3075C67.3401 12.3611 67.2705 12.3969 67.1835 12.4326C67.0966 12.4684 67.0618 12.5399 67.0444 12.6471C67.027 12.7722 66.9922 12.8615 66.9052 12.9687C66.8183 13.0581 66.7835 13.1474 66.7835 13.2011C66.7835 13.5406 66.853 13.7193 66.9748 13.7193C67.027 13.7193 67.1488 13.6836 67.3227 13.6121C67.4966 13.5406 67.601 13.487 67.6184 13.4691C67.6532 13.4334 67.7054 13.4155 67.775 13.3798L67.9663 13.2725C68.0011 13.2368 68.0185 13.2189 68.0533 13.2189C68.0881 13.2189 68.1228 13.1832 68.1576 13.1475C68.1924 13.1117 68.2446 13.0581 68.3316 13.0224C68.4186 12.9687 68.4881 12.9151 68.5403 12.8437C68.6621 12.7722 68.836 12.6649 69.0969 12.522L69.3057 12.3612C69.4448 12.2897 69.5492 12.2361 69.584 12.1825C69.6362 12.1288 69.7057 12.0931 69.8101 12.0395Z" fill="#1A1413"/>
<path d="M82.5599 9.07295L82.6817 8.94786V8.8585C82.6817 8.82276 82.7165 8.75129 82.786 8.60832C82.8556 8.46536 82.9252 8.376 82.9774 8.32239C83.0296 8.26878 83.0818 8.21517 83.0991 8.14369C83.1339 8.0722 83.1861 8.03646 83.2905 8.01859C83.2557 7.94711 83.2209 7.8935 83.2209 7.85776L83.1861 7.66118C83.1861 7.64331 83.2035 7.62544 83.2557 7.57183L83.3079 7.48248C83.3427 7.44674 83.3949 7.42887 83.447 7.37526C83.4992 7.33952 83.534 7.28591 83.534 7.19655C83.534 7.12507 83.5862 7.01785 83.6732 6.89275C83.7601 6.76766 83.8297 6.69618 83.8819 6.69618C83.9341 6.69618 83.9689 6.67831 84.0037 6.66044C84.0385 6.6247 84.0732 6.6247 84.0906 6.6247C84.1254 6.6247 84.1602 6.66044 84.195 6.71405C84.2298 6.76766 84.2472 6.8034 84.2646 6.8034C84.3168 6.8034 84.3516 6.76766 84.3516 6.69618C84.3516 6.66044 84.3168 6.64257 84.2646 6.6247C84.2124 6.60683 84.1602 6.57109 84.1428 6.51748C84.1254 6.46387 84.108 6.41026 84.0906 6.37452C84.0732 6.33878 84.0558 6.30303 84.0558 6.30303C84.0558 6.24942 84.0906 6.17794 84.1428 6.10646C84.2124 6.03498 84.2646 5.99923 84.3168 5.99923C84.3689 5.99923 84.4211 5.96349 84.4733 5.90988C84.3863 5.87414 84.3516 5.82053 84.3516 5.76692C84.4385 5.67757 84.5081 5.55248 84.5951 5.39164C84.682 5.23081 84.769 5.14145 84.856 5.14145C84.8734 5.14145 84.9082 5.15932 84.9604 5.17719C84.9778 5.14145 85.0125 5.05209 85.0647 4.89126L84.9951 4.67682C85.1169 4.49812 85.2213 4.37302 85.2735 4.35515L85.3604 4.30154C85.3952 4.10496 85.5692 3.94413 85.8475 3.80117C86.2128 3.40802 86.4215 3.21144 86.5085 3.21144C86.5259 3.21144 86.5433 3.22931 86.5954 3.28292L86.6998 3.24719C86.7346 3.24719 86.752 3.26505 86.752 3.31866C86.5259 3.53311 86.4215 3.64034 86.4215 3.65821H86.4389C86.4563 3.64034 86.4911 3.62247 86.5085 3.6046C86.5433 3.56886 86.5954 3.53311 86.665 3.46162C86.665 3.49737 86.6824 3.49737 86.6998 3.49737C86.7694 3.40802 86.8216 3.30079 86.8216 3.19357C86.8216 3.1757 86.7868 3.15783 86.6998 3.10422L86.6824 3.05061C86.6824 3.01487 86.8042 2.8719 87.0477 2.65745C87.2912 2.44301 87.5521 2.24644 87.8305 2.08561L87.9348 1.96051C87.9696 1.92477 88.0044 1.9069 88.0392 1.9069C88.0914 1.9069 88.1783 1.94264 88.2827 2.01412L88.3175 1.99626C88.3001 1.96051 88.3001 1.9069 88.3001 1.83542C88.3001 1.79968 88.3349 1.76394 88.3871 1.74606C88.4566 1.63884 88.5958 1.54949 88.8219 1.47801C89.0481 1.40653 89.2046 1.33504 89.2742 1.26356L89.4829 1.17421C89.5873 1.15634 89.6917 1.13847 89.7612 1.1206C89.8482 1.08486 89.9352 1.08486 90.0395 1.08486C90.0569 1.08486 90.1091 1.06699 90.1961 1.01338C90.2831 0.959769 90.3526 0.941895 90.3874 0.941895C90.4222 0.941895 90.5092 0.995504 90.6136 1.08486C90.6136 1.10273 90.631 1.10273 90.6484 1.10273L90.7875 1.01338H90.8049C90.8919 1.10273 90.9962 1.19209 91.118 1.28144C91.3963 1.49588 91.5529 1.76393 91.5529 2.06773L91.5007 2.51449L91.5181 2.8719C91.5181 2.99699 91.4659 3.10422 91.3615 3.19357C91.3094 3.51524 91.2572 3.72969 91.1876 3.87265C91.118 4.01562 91.0484 4.19432 91.0136 4.42663C90.9615 4.65895 90.7701 4.99848 90.4222 5.42737C90.4222 5.44524 90.3874 5.49886 90.3005 5.60608C90.2135 5.7133 90.1091 5.90988 89.9874 6.17794C89.796 6.39238 89.6743 6.55321 89.6221 6.67831C89.5699 6.8034 89.4829 6.89275 89.3264 6.94636H89.2916L89.3264 7.17869C89.0655 7.60758 88.8219 7.82202 88.561 7.82202C88.4045 7.82202 88.2479 7.75054 88.1088 7.60757C87.9696 7.46461 87.8826 7.32165 87.8826 7.17869C87.8826 6.83915 88.2653 6.42813 89.0481 5.92776C89.0655 5.92776 89.0829 5.92775 89.135 5.94562L89.222 5.80266C89.1872 5.74905 89.1872 5.7133 89.1872 5.69543C89.1872 5.60608 89.2916 5.48099 89.5003 5.3559C89.5873 5.15932 89.6917 5.0521 89.8134 5.03423L90.2135 4.39089L90.2483 4.28367V4.12283C90.2483 4.08709 90.3179 4.03348 90.457 3.94413L90.4744 3.90839V3.69395C90.4744 3.6046 90.5266 3.53311 90.631 3.4795C90.6658 3.44376 90.6831 3.33653 90.7179 3.13996C90.7527 2.94338 90.8049 2.78256 90.8919 2.62172C90.8571 2.30005 90.8223 2.0856 90.7701 2.01412C90.7179 1.94264 90.631 1.9069 90.5266 1.9069C90.4396 1.9069 90.2657 1.96051 90.0395 2.08561C89.8134 2.2107 89.6743 2.26431 89.6047 2.26431C89.5699 2.26431 89.5525 2.24644 89.5177 2.22857C89.4829 2.2107 89.4655 2.19283 89.4307 2.19283C89.396 2.19283 89.3612 2.22856 89.3264 2.30004C89.2916 2.37153 89.2568 2.42514 89.2046 2.42514C89.1524 2.44301 89.1002 2.47876 89.0307 2.53237C88.9611 2.58598 88.8567 2.65746 88.735 2.71107L88.5784 2.92551L88.4045 3.05061C88.3871 3.19357 88.3001 3.26505 88.1436 3.26505C88.1088 3.26505 88.0566 3.35441 87.9696 3.51524L87.8826 3.6046H87.7261L87.7087 3.69395V3.80117C87.7087 3.83691 87.6913 3.87264 87.6391 3.90839L87.2564 4.33728L87.1869 4.37302H87.0999L87.0651 4.39089C87.0477 4.64108 86.9781 4.76617 86.8564 4.78404C86.8564 4.87339 86.752 4.99849 86.5606 5.14145L86.4737 5.24867H86.3345L86.3171 5.26655C86.3693 5.30229 86.3867 5.33803 86.3867 5.3559C86.3867 5.39164 86.3519 5.48099 86.2649 5.58821C86.178 5.71331 86.1258 5.74904 86.091 5.73117C86.0562 5.92775 86.004 6.08859 85.8997 6.24942L85.8127 6.41025C85.7779 6.48173 85.7257 6.53535 85.6909 6.57109V6.66044C85.6909 6.83914 85.517 6.99998 85.1865 7.16081L85.2387 7.42887C85.2039 7.48248 85.1517 7.57184 85.0821 7.67906L84.9951 7.87563C84.9604 8.00072 84.9082 8.0722 84.856 8.10794C84.8386 8.16155 84.8038 8.23304 84.769 8.26878C84.7168 8.32239 84.6994 8.35814 84.6994 8.39388L84.7168 8.53684C84.6125 8.73341 84.5603 8.8585 84.5429 8.94786C84.5255 9.03721 84.4907 9.10869 84.4385 9.18017C84.3863 9.25165 84.3516 9.32314 84.3168 9.41249C84.282 9.50185 84.2298 9.5912 84.1254 9.68055C84.0384 9.98435 84.0037 10.1452 84.0037 10.1809L83.8645 10.306C83.8645 10.3239 83.8471 10.3775 83.8123 10.4668L83.7949 10.5562V10.6992C83.7949 10.7885 83.708 10.8957 83.534 11.0208C83.621 11.0566 83.6558 11.1102 83.6558 11.1817C83.6558 11.3425 83.621 11.4676 83.5688 11.5391C83.5166 11.6284 83.4644 11.7178 83.4296 11.7893C83.3948 11.8786 83.3427 11.9858 83.2731 12.1288C83.3427 12.1824 83.3775 12.236 83.3775 12.3075L83.2905 13.0045L83.3601 13.201C83.3427 13.2189 83.3079 13.2368 83.2209 13.2546C83.2383 13.344 83.2731 13.4155 83.3427 13.4691C83.4122 13.5227 83.5166 13.7014 83.6558 13.9873C83.6906 14.0231 83.7427 14.0231 83.8297 14.0231C83.9167 14.0231 83.9689 14.0231 84.0037 14.0052C84.0385 13.9873 84.1428 13.9695 84.2646 13.9516C84.4037 13.9337 84.5603 13.8622 84.6994 13.755H84.856C85.0125 13.755 85.1343 13.7014 85.2039 13.5763C85.2735 13.4512 85.343 13.3976 85.3952 13.3976C85.4474 13.3976 85.5518 13.3619 85.6909 13.3083H85.7431C85.7779 13.2546 85.7953 13.2189 85.8301 13.1832C85.8649 13.1653 85.9171 13.0938 86.004 12.9866C86.091 12.8794 86.1606 12.8257 86.2302 12.8257C86.4737 12.6649 86.6476 12.5219 86.7868 12.3969C86.8042 12.379 86.839 12.379 86.9085 12.3611C86.9607 12.3611 87.0129 12.3254 87.0477 12.2539C87.0825 12.2003 87.239 12.0394 87.5 11.8071C87.7783 11.5748 87.9348 11.3961 87.987 11.2531C88.0392 11.1102 88.1088 11.0566 88.1783 11.0566C88.2131 11.0566 88.2479 11.0566 88.3175 11.0744H88.3349C88.3697 11.0744 88.3871 11.0387 88.3871 10.9851C88.4045 10.9315 88.5436 10.8064 88.8045 10.6455C88.8045 10.5026 88.9263 10.3775 89.1176 10.2881L89.4655 9.93073L89.6221 9.94861C89.6569 9.91287 89.6917 9.85926 89.6917 9.7699C89.6917 9.68055 89.7438 9.60906 89.8482 9.57332H89.9352L89.9874 9.53758C90.0395 9.30526 90.1091 9.19805 90.2135 9.19805H90.3005C90.3526 9.19805 90.3874 9.12656 90.3874 9.00146C90.3874 8.87637 90.5266 8.76915 90.8223 8.71554L91.031 8.60832C91.0484 8.59045 91.0832 8.57258 91.118 8.57258C91.292 8.57258 91.3789 8.71554 91.3789 9.00146C91.3789 9.07295 91.3441 9.14443 91.292 9.18017L91.1528 9.30527L91.1354 9.48397L90.7701 9.82351C90.7179 9.87712 90.6832 9.93073 90.6658 10.0201C90.6658 10.1094 90.631 10.1452 90.6136 10.1452C90.5962 10.1809 90.544 10.2167 90.4918 10.2345C90.4222 10.2524 90.3874 10.2881 90.37 10.3417C90.2831 10.5741 90.1265 10.717 89.9178 10.7528C89.796 11.0208 89.6917 11.1817 89.5873 11.2353C89.4829 11.2889 89.4307 11.3425 89.4133 11.3961C89.3786 11.5748 89.2916 11.6642 89.135 11.6463C88.8741 11.8965 88.7176 12.0931 88.648 12.236C88.648 12.2539 88.648 12.2539 88.6306 12.2539L88.4914 12.236C88.474 12.2539 88.4393 12.2896 88.3871 12.3611C88.3349 12.4326 88.2479 12.4683 88.1609 12.4862C88.0566 12.4862 87.987 12.5577 87.9522 12.6649C87.9174 12.79 87.8652 12.8436 87.8305 12.8794C87.7957 12.9151 87.7609 12.9508 87.7087 13.0223C87.6739 13.0938 87.6217 13.1295 87.5869 13.1295C87.5347 13.1295 87.4826 13.0759 87.4478 12.9508C87.3956 12.9866 87.3434 13.0402 87.2912 13.1117L87.3434 13.2546C87.3434 13.2904 87.326 13.3082 87.3086 13.3261C87.2738 13.344 87.239 13.4155 87.1695 13.5227C87.0999 13.6478 86.9259 13.7193 86.665 13.755C86.6476 13.755 86.6302 13.8086 86.578 13.898C86.5433 13.9873 86.4389 14.0409 86.2997 14.0588C86.1606 14.2733 86.0388 14.3805 85.9518 14.3805L85.517 14.5234C85.4474 14.5234 85.3778 14.5234 85.3256 14.5056C85.2909 14.5949 85.2387 14.6485 85.1865 14.6485L85.0473 14.6843C84.9951 14.7558 84.943 14.7915 84.8734 14.7915C84.7864 14.7915 84.7342 14.7558 84.7342 14.7021C84.7342 14.6843 84.7342 14.6664 84.7516 14.6485V14.6128C84.7516 14.5771 84.7342 14.5592 84.7168 14.5592C84.7168 14.863 84.6299 15.0059 84.4907 15.0059C84.4559 15.0059 84.3863 14.9702 84.2646 14.9166H84.2472L84.0558 15.0238C84.0384 15.0417 84.0211 15.0417 83.9689 15.0417C83.708 15.0417 83.4644 14.9523 83.2209 14.8094H83.1513C82.9426 14.8094 82.786 14.6843 82.6643 14.4341L82.6469 14.3983C82.4903 14.3626 82.386 14.2554 82.3686 14.0767C82.3338 14.0409 82.2816 13.9695 82.1598 13.8622C82.1424 13.7729 82.1077 13.6835 82.0729 13.5942C82.0207 13.5048 82.0033 13.4691 82.0033 13.4512L81.7772 12.6649C81.7424 12.4326 81.7424 12.2539 81.7424 12.0931L81.725 12.0037V11.9501L81.7598 11.6642L81.7424 11.5569C81.7424 11.5033 81.812 11.2889 81.9337 10.9315C82.0555 10.5741 82.1425 10.306 82.1772 10.1273C82.212 9.94861 82.2468 9.84138 82.2642 9.80564L82.5599 9.07295Z" fill="#1A1413"/>
<path d="M98.6496 12.0395L98.8062 11.8965C98.9105 11.8965 98.9627 11.8429 98.9801 11.7536C98.9975 11.6642 99.0671 11.5749 99.2062 11.5212C99.3454 11.4676 99.4498 11.3604 99.5541 11.1817C99.6585 11.003 99.7803 10.9315 99.8846 10.9315C99.9194 10.9315 99.9716 10.9673 100.024 11.0387C100.076 11.1102 100.111 11.1638 100.111 11.1996C100.111 11.4319 100.041 11.6642 99.902 11.9144L99.8672 12.2003L99.7977 12.3433C99.6933 12.3969 99.6237 12.4684 99.6063 12.522C99.5715 12.5935 99.502 12.6649 99.3628 12.7543L99.2584 12.8973C99.1019 12.9509 99.0149 13.0224 98.9627 13.1296C98.9105 13.2368 98.841 13.3083 98.754 13.3083C98.667 13.3262 98.5627 13.3976 98.4583 13.5227C98.3887 13.5585 98.3017 13.5942 98.2148 13.6121L98.1974 13.7193C98.1278 13.7908 98.0234 13.8444 97.8843 13.8801C97.7451 13.9159 97.6233 13.9695 97.5538 14.0052C97.4842 14.041 97.432 14.0589 97.4146 14.0589C97.2929 14.0589 97.1711 14.0231 97.0667 13.9874C96.9624 13.9516 96.8406 13.898 96.7362 13.8801C96.7014 13.8444 96.6667 13.7908 96.6667 13.7372C96.6667 13.6836 96.6319 13.63 96.5623 13.5406C96.5101 13.4513 96.4753 13.344 96.4753 13.2189L96.5101 13.0224C96.5101 12.9866 96.4927 12.9687 96.4579 12.9151C96.4231 12.8794 96.4057 12.8437 96.4057 12.8079C96.4057 12.7722 96.4057 12.7543 96.4231 12.7543C96.4405 12.7364 96.4405 12.7186 96.4405 12.7007C96.4405 12.6649 96.4405 12.6292 96.4231 12.5756C96.4057 12.5399 96.4057 12.5041 96.4057 12.4684L96.4579 11.9501C96.4579 11.9144 96.4405 11.8965 96.4231 11.8965C96.4057 11.8965 96.3535 11.9323 96.284 12.0037C96.2144 12.0752 96.1274 12.111 96.0404 12.111C95.9883 12.1467 95.9361 12.2361 95.9013 12.379C95.8491 12.4505 95.7795 12.5041 95.6926 12.5577L95.6578 12.6113C95.6404 12.6649 95.5882 12.7007 95.5012 12.7364C95.4142 12.7722 95.3447 12.8079 95.3273 12.8615L95.2229 12.9687L95.0316 12.9509C95.0142 12.9688 94.9794 13.0224 94.9098 13.1296C94.8576 13.2368 94.7706 13.3262 94.6837 13.3976L93.9009 14.041C93.8139 14.0946 93.6922 14.1661 93.553 14.2554L93.5008 14.309C92.9616 14.6843 92.5789 14.863 92.3528 14.863C92.1789 14.863 91.9527 14.8094 91.7092 14.7022C91.4657 14.595 91.3265 14.4699 91.3091 14.3269L91.2048 13.898C91.1526 13.8087 91.1178 13.6657 91.1178 13.487C91.1178 13.3976 91.1178 13.344 91.1352 13.3262V13.2725L91.1178 12.933C91.1178 12.8437 91.1874 12.8079 91.3091 12.8079L91.2917 12.522C91.2917 12.4862 91.3439 12.379 91.4657 12.2003C91.5874 12.0037 91.657 11.8965 91.7092 11.8787L91.8136 11.7357C91.8136 11.6463 91.8484 11.557 91.9527 11.4676C92.0571 11.3783 92.1267 11.2711 92.1963 11.1817C92.2484 11.0923 92.3702 10.9673 92.5442 10.86L92.8572 10.5384C93.1008 10.2882 93.3443 10.0916 93.64 9.94865C93.6748 9.93078 93.7618 9.85929 93.8835 9.7342C94.0053 9.6091 94.1444 9.51975 94.3184 9.46614C94.4749 9.41253 94.6315 9.32318 94.788 9.23383C94.9446 9.14447 95.0664 9.09085 95.1533 9.09085H95.2403C95.2751 9.09085 95.449 9.0015 95.7795 8.8228H95.8317C95.8665 8.8228 95.9187 8.85854 96.0231 8.91215H96.0404L96.197 8.8228C96.2318 8.80493 96.2492 8.80493 96.3014 8.80493C96.7188 8.80493 96.9624 9.10873 96.9971 9.69845C97.0145 9.82355 97.0493 9.89503 97.1015 9.89503C97.1711 9.89503 97.2755 9.76994 97.3972 9.51975C97.519 9.26956 97.7973 9.14447 98.1974 9.14447C98.4931 9.14447 98.6322 9.34104 98.6322 9.71632C98.6322 10.1631 98.4409 10.592 98.0408 11.003C98.006 11.0566 97.9886 11.1281 97.9886 11.1817L97.8495 11.6106V11.6285C97.8495 11.6642 97.8147 11.7357 97.7625 11.8072C97.7103 11.8786 97.6755 11.9501 97.6755 12.0037L97.6929 12.2718L97.6581 12.5577C97.6581 12.6828 97.6755 12.7722 97.7277 12.8258C97.9538 12.7722 98.1104 12.6828 98.1974 12.5399C98.3017 12.4148 98.3713 12.3433 98.4061 12.3254L98.5105 12.2897C98.4931 12.2003 98.5626 12.111 98.6496 12.0395ZM95.2577 12.0395C95.2925 11.8786 95.3621 11.7714 95.5012 11.6821C95.6404 11.5927 95.7274 11.5212 95.7447 11.4319C95.8665 11.3425 96.0578 11.1638 96.3014 10.9136C96.5449 10.6635 96.6667 10.5026 96.6667 10.449C96.6667 10.4311 96.6493 10.4133 96.6319 10.4133H96.6145L96.5275 10.4669L96.3536 10.449L96.1622 10.4669L96.0231 10.3954L95.8839 10.4133L95.6752 10.3775C95.5708 10.3775 95.4664 10.3954 95.3969 10.449C95.3273 10.5026 95.1707 10.5384 94.9446 10.592C94.7185 10.6456 94.5271 10.7349 94.3532 10.8779C94.1792 11.0209 94.0401 11.0745 93.9705 11.0745C93.9183 11.1817 93.7618 11.3247 93.4835 11.5212C93.3269 11.5749 93.2225 11.6999 93.1703 11.8787C92.9964 12.0216 92.9094 12.111 92.9094 12.1288L92.8399 12.3075C92.7877 12.3611 92.7181 12.3969 92.6311 12.4326C92.5442 12.4684 92.5094 12.5399 92.492 12.6471C92.4746 12.7722 92.4398 12.8615 92.3528 12.9687C92.2658 13.0581 92.2311 13.1474 92.2311 13.2011C92.2311 13.5406 92.3006 13.7193 92.4224 13.7193C92.4746 13.7193 92.5963 13.6836 92.7703 13.6121C92.9442 13.5406 93.0486 13.487 93.066 13.4691C93.1008 13.4334 93.153 13.4155 93.2225 13.3798L93.4139 13.2725C93.4487 13.2368 93.4661 13.2189 93.5008 13.2189C93.5356 13.2189 93.5704 13.1832 93.6052 13.1475C93.64 13.1117 93.6922 13.0581 93.7792 13.0224C93.8661 12.9866 93.9357 12.9151 93.9879 12.8437C94.1097 12.7722 94.2836 12.6649 94.5445 12.522L94.7533 12.3612C94.8924 12.2897 94.9968 12.2361 95.0316 12.1825C95.1011 12.1288 95.1707 12.0931 95.2577 12.0395Z" fill="#1A1413"/>
<path d="M108.808 12.6828H108.843L108.947 12.7185C108.965 12.7185 108.982 12.7185 108.982 12.7007C108.982 12.5756 109.034 12.4862 109.139 12.3969C109.173 12.2718 109.243 12.1646 109.365 12.0931C109.487 12.0216 109.678 11.9144 109.939 11.7535L110.2 11.5212L110.321 11.4676L110.408 11.3604C110.478 11.271 110.548 11.2174 110.617 11.2174C110.722 11.2174 110.774 11.2532 110.774 11.3425L110.687 11.557L110.722 11.8965C110.722 12.0216 110.687 12.1288 110.6 12.236C110.513 12.3433 110.391 12.4683 110.2 12.6649L109.678 13.2368L109.4 13.3797C109.33 13.4155 109.278 13.4691 109.226 13.5227L108.826 13.8622C108.826 13.9516 108.791 14.0409 108.739 14.0767H108.582L108.495 14.1124C108.443 14.2375 108.304 14.3805 108.078 14.5056L107.938 14.6128C107.886 14.6485 107.851 14.6664 107.799 14.6664L107.521 14.6307L107.33 14.6664C107.277 14.6664 107.208 14.6307 107.103 14.5771C107.017 14.5234 106.912 14.4698 106.825 14.452C106.738 14.4341 106.616 14.2911 106.46 14.0588C106.321 13.8265 106.234 13.6835 106.216 13.6121C106.216 13.5763 106.199 13.5406 106.164 13.4691C106.129 13.3976 106.112 13.3619 106.112 13.344C106.112 13.3261 106.147 13.2547 106.199 13.1296V13.1117C106.199 13.0938 106.182 13.0402 106.147 12.9687C106.112 12.8972 106.095 12.79 106.095 12.6828C106.095 12.6292 106.077 12.5398 106.042 12.4505C106.095 12.3969 106.129 12.3611 106.129 12.3254C106.129 12.2896 106.112 12.2539 106.095 12.2003C106.077 12.1467 106.06 12.1109 106.06 12.0752L106.112 11.557L106.077 11.2889L106.095 11.0387C106.095 10.8957 106.042 10.8243 105.921 10.8243C105.868 10.8243 105.799 10.86 105.712 10.9494L105.642 10.9672C105.468 11.0566 105.329 11.1281 105.26 11.1996C105.19 11.2532 105.103 11.2889 105.034 11.2889C104.999 11.3246 104.912 11.3783 104.807 11.3961L104.72 11.4855C104.686 11.5212 104.633 11.557 104.564 11.6106C104.564 11.6284 104.442 11.7535 104.181 11.968C103.92 12.1824 103.694 12.379 103.503 12.5756C103.294 12.7543 103.155 12.8615 103.068 12.8794C102.981 12.8972 102.929 12.9866 102.929 13.1474C102.929 13.1832 102.877 13.2368 102.755 13.3083C102.737 13.3083 102.668 13.3797 102.546 13.5406C102.442 13.4512 102.372 13.4155 102.372 13.4155C102.285 13.4155 102.216 13.5406 102.181 13.755C102.146 13.8444 102.024 13.898 101.85 13.9159C101.833 13.9159 101.816 13.9695 101.781 14.0767L101.746 14.1124H101.589C101.572 14.1124 101.537 14.1482 101.45 14.2375C101.363 14.3269 101.294 14.3626 101.242 14.3805C101.155 14.5771 101.085 14.6664 101.015 14.6664C100.981 14.6664 100.946 14.6485 100.894 14.6307C100.841 14.5949 100.772 14.5771 100.702 14.5592C100.633 14.5413 100.546 14.452 100.459 14.309C100.372 14.166 100.32 14.041 100.32 13.9337C100.32 13.1653 100.459 12.7364 100.754 12.6649L100.772 12.6292V12.5398C100.772 12.4505 100.807 12.379 100.894 12.3433C100.981 12.3075 101.05 12.2182 101.137 12.1109C101.224 11.9858 101.276 11.9322 101.294 11.9144H101.433C101.468 11.9144 101.468 11.8429 101.468 11.6999C101.468 11.6642 101.485 11.6106 101.52 11.5748C101.555 11.5391 101.572 11.4855 101.572 11.4319C101.572 11.3604 101.624 11.2532 101.711 11.1102C101.798 10.9672 101.85 10.8779 101.85 10.8421L101.833 10.8064C101.659 10.9672 101.537 11.0566 101.468 11.0745C101.398 11.0923 101.294 11.1817 101.155 11.3783L100.998 11.3425C100.702 11.557 100.528 11.6821 100.476 11.6999C100.407 11.7357 100.337 11.8071 100.25 11.9322C100.25 11.968 100.233 12.0037 100.18 12.0216C100.128 12.0395 100.041 12.0931 99.9196 12.1824H99.8674C99.6934 12.1824 99.6064 12.0573 99.6064 11.8071L99.8152 11.2174C99.8674 11.0387 100.024 10.8779 100.25 10.7349C100.476 10.6098 100.668 10.4847 100.824 10.3596C100.981 10.2345 101.137 10.1809 101.294 10.1809L101.363 10.0737C101.589 9.98435 101.746 9.8414 101.833 9.64482C101.92 9.44825 102.024 9.35889 102.163 9.35889C102.529 9.35889 102.824 9.50185 103.016 9.78778C103.207 10.0737 103.311 10.2882 103.311 10.4669L103.329 10.7528C103.329 10.8421 103.311 10.9851 103.277 11.1638C103.19 11.2889 103.155 11.3782 103.155 11.4497C103.155 11.5033 103.19 11.5391 103.259 11.5391C103.294 11.5391 103.346 11.5033 103.416 11.4497C103.485 11.3961 103.555 11.3425 103.642 11.2889C103.729 11.2353 103.781 11.1995 103.781 11.1638C103.851 11.003 103.972 10.8779 104.129 10.8243C104.303 10.7528 104.407 10.6992 104.442 10.6634L104.546 10.5741L104.633 10.4132C104.825 10.3239 104.947 10.2524 104.999 10.1809C105.051 10.1095 105.138 10.0558 105.242 10.038C105.347 10.0201 105.468 9.94862 105.59 9.85927L105.747 9.82352L105.886 9.73417C105.903 9.7163 105.938 9.69843 106.008 9.68056C106.077 9.66269 106.182 9.62695 106.303 9.57333C106.442 9.51972 106.529 9.50186 106.564 9.50186C106.912 9.50186 107.19 9.64482 107.382 9.93074C107.591 10.2167 107.677 10.449 107.677 10.6277L107.66 10.8064L107.695 11.0923V11.1281L107.608 11.6999L107.625 11.8965C107.625 12.2182 107.556 12.4505 107.417 12.5756C107.382 12.5934 107.364 12.6292 107.364 12.6828V12.7721L107.573 13.2189C107.625 13.3797 107.677 13.4512 107.712 13.4512L108.043 13.3619C108.13 13.3261 108.217 13.2546 108.269 13.1474C108.321 13.1117 108.425 13.0402 108.565 12.8972C108.669 12.7364 108.721 12.6828 108.808 12.6828Z" fill="#1A1413"/>
<path d="M111.557 11.7178V11.6106C111.557 11.5391 111.626 11.3961 111.765 11.1638C111.905 10.9315 112.061 10.7885 112.235 10.7171C112.252 10.7171 112.252 10.717 112.252 10.6992L112.235 10.5383C112.27 10.5026 112.322 10.4133 112.444 10.2703C112.548 10.1273 112.653 10.0558 112.757 10.0737C112.826 9.96648 112.931 9.87714 113.035 9.78778C113.157 9.7163 113.261 9.60908 113.348 9.50186L113.731 9.26953C113.992 9.09083 114.183 9.00148 114.305 9.00148H114.462C114.549 8.85851 114.653 8.78704 114.792 8.78704C114.931 8.78704 115.001 8.80491 115.053 8.84065C115.07 8.85852 115.088 8.85851 115.088 8.85851C115.088 8.85851 115.14 8.82277 115.21 8.76916C115.279 8.71555 115.383 8.67981 115.488 8.67981C115.523 8.67981 115.662 8.73343 115.94 8.84065C116.027 8.7513 116.097 8.71555 116.166 8.71555C116.201 8.71555 116.236 8.73342 116.305 8.76916C116.375 8.8049 116.445 8.84065 116.514 8.87639C116.584 8.91213 116.653 9.03722 116.723 9.26953C116.792 9.50185 116.827 9.62695 116.827 9.64482C116.827 9.75204 116.74 9.89501 116.566 10.038C116.392 10.1809 116.218 10.2703 116.062 10.2703C116.01 10.2703 115.94 10.2167 115.853 10.1273C115.644 10.0916 115.47 10.038 115.331 9.96649C115.14 10.0022 115.001 10.0558 114.896 10.1273H114.879L114.792 10.038L114.705 10.0201H114.688C114.67 10.0558 114.635 10.0916 114.601 10.1631C114.496 10.2345 114.392 10.2882 114.322 10.306C114.235 10.3239 114.183 10.3596 114.131 10.4132C114.079 10.4669 114.009 10.5205 113.888 10.5741C113.766 10.6277 113.696 10.6992 113.644 10.8064C113.505 10.8779 113.418 10.9315 113.348 10.9494H113.296C113.244 11.0566 113.122 11.2532 112.913 11.5033L112.653 11.9501C112.6 12.0037 112.513 12.0752 112.426 12.1467C112.339 12.2182 112.287 12.2897 112.287 12.3433C112.287 12.3611 112.287 12.3969 112.305 12.4505V12.5577C112.305 12.5935 112.27 12.6471 112.218 12.7007C112.148 12.7543 112.113 12.8079 112.113 12.8258L112.131 13.0581L112.044 13.4155C112.044 13.6299 112.2 13.7372 112.496 13.7372H112.653L113.087 13.6657C113.227 13.6478 113.348 13.6299 113.435 13.6121C113.522 13.5942 113.592 13.5763 113.592 13.5763C113.609 13.5763 113.661 13.5406 113.748 13.4512H113.853L113.94 13.4334C113.975 13.2904 114.166 13.1653 114.514 13.076C114.601 12.9509 114.74 12.8615 114.931 12.8079C115.123 12.7543 115.314 12.6292 115.523 12.4326H115.679C115.697 12.4326 115.766 12.3969 115.871 12.3075C115.975 12.2182 116.079 12.1646 116.201 12.1109C116.323 12.0573 116.375 12.0216 116.41 11.9859C116.445 11.9501 116.497 11.9144 116.566 11.8965C116.688 11.6999 116.827 11.5748 117.001 11.5391L117.036 11.5033C117.14 11.414 117.21 11.3604 117.245 11.3604L117.366 11.3783C117.436 11.3783 117.471 11.3425 117.488 11.2532C117.506 11.1638 117.61 11.0387 117.819 10.8958C118.027 10.7528 118.149 10.6634 118.201 10.6634C118.323 10.6634 118.393 10.7349 118.393 10.8779C118.393 10.9851 118.341 11.0387 118.219 11.0566C118.288 11.2353 118.323 11.3425 118.323 11.3604C118.323 11.5927 118.219 11.7357 117.993 11.8071C117.958 11.825 117.958 11.8429 117.958 11.8608L117.94 12.0395C117.94 12.0395 117.94 12.0395 117.94 12.0573C117.94 12.0752 117.923 12.0931 117.906 12.1109L117.749 12.1288L117.714 12.1824C117.558 12.2718 117.384 12.4147 117.192 12.6113L116.984 12.8258H116.949C116.879 12.7543 116.827 12.7185 116.792 12.7185C116.758 12.7185 116.74 12.7722 116.688 12.8615C116.462 13.0938 116.288 13.2368 116.184 13.2725C116.149 13.2904 116.079 13.344 115.975 13.4334L115.766 13.5763H115.61C115.592 13.5942 115.575 13.6299 115.557 13.6657C115.54 13.7014 115.488 13.755 115.383 13.8444C115.279 13.9159 115.21 13.9873 115.157 14.041C115.105 14.0946 115.053 14.1482 114.966 14.1661L114.792 14.1303C114.74 14.2375 114.618 14.2912 114.462 14.2912C114.427 14.3269 114.357 14.3805 114.288 14.452C114.201 14.5413 114.148 14.5771 114.131 14.5771C114.114 14.5771 114.027 14.5413 113.922 14.452H113.905C113.835 14.452 113.801 14.5056 113.801 14.6128C113.801 14.72 113.731 14.7737 113.609 14.7737C113.487 14.7737 113.366 14.8094 113.261 14.8809H113.244C113.087 14.8809 112.983 14.8451 112.913 14.7915C112.844 14.7379 112.792 14.6843 112.74 14.6664C112.531 14.7379 112.409 14.7737 112.409 14.7737C112.322 14.7737 112.252 14.7379 112.183 14.6664L111.748 14.4341C111.713 14.4162 111.678 14.3269 111.609 14.1482L111.557 14.0588C111.331 14.0231 111.191 13.7908 111.122 13.3619L111.035 13.1117C111.017 13.0938 111.017 13.0581 111.017 13.0223C111.017 12.9509 111.052 12.8436 111.104 12.7007C111.157 12.5577 111.209 12.3611 111.261 12.1288C111.278 11.9322 111.383 11.7714 111.557 11.7178Z" fill="#1A1413"/>
<path d="M117.662 11.1102L117.818 10.9673H117.871C117.923 10.9673 117.992 10.9137 118.079 10.8064L118.184 10.7707C118.323 10.5562 118.445 10.449 118.532 10.4133L118.688 10.2882C118.723 10.2524 118.758 10.2346 118.81 10.2167C118.862 10.1988 118.949 10.1274 119.053 10.0023C119.175 9.89504 119.262 9.82355 119.332 9.82355C119.401 9.82355 119.453 9.82355 119.488 9.84142C119.523 9.75207 119.61 9.68059 119.732 9.59124C119.854 9.50189 119.958 9.41253 120.027 9.30531L120.167 9.2517C120.271 9.19808 120.375 9.1266 120.462 9.03725C120.549 8.9479 120.654 8.91215 120.793 8.91215C120.984 8.91215 121.193 9.01938 121.402 9.21595C121.61 9.4304 121.715 9.62697 121.715 9.80568L121.541 10.6277C121.419 11.2353 121.297 11.5391 121.158 11.5749L121.123 11.7893C121.036 11.8608 120.984 11.9144 120.984 11.9501L121.036 12.2003C121.036 12.2361 121.002 12.2897 120.932 12.3612C120.915 12.3612 120.915 12.379 120.915 12.4148V12.8437C120.915 12.9151 120.862 12.9866 120.775 13.0224C120.793 13.0402 120.81 13.0581 120.828 13.0581C120.862 13.0224 120.967 13.0045 121.106 13.0045L121.262 13.0224L121.489 12.79C121.541 12.7722 121.61 12.7364 121.68 12.7007C121.767 12.6471 121.906 12.5756 122.115 12.4862L123.454 11.4319C123.645 11.2532 123.767 11.146 123.872 11.146C123.976 11.146 124.028 11.2175 124.028 11.3425C124.028 11.5034 123.993 11.6285 123.941 11.7178C123.889 11.825 123.837 11.9501 123.785 12.0752C123.732 12.2182 123.68 12.3254 123.611 12.379C123.541 12.4326 123.489 12.5041 123.454 12.5577C123.419 12.6292 123.298 12.7186 123.124 12.8437C122.95 12.9688 122.793 13.0939 122.671 13.2189C122.55 13.344 122.445 13.4334 122.358 13.487L121.923 13.8087L121.871 13.9159C121.854 13.9338 121.802 13.9516 121.68 14.0052C121.558 14.0588 121.471 14.1125 121.384 14.1839L121.21 14.2912C121.175 14.3269 121.106 14.3448 121.019 14.3448C120.932 14.3448 120.845 14.3984 120.775 14.4699C120.706 14.5414 120.654 14.5771 120.619 14.5771L120.462 14.5592L120.254 14.6128C120.132 14.6128 119.993 14.5414 119.836 14.3984C119.68 14.2554 119.593 14.0946 119.593 13.9516V13.898L119.61 13.7551C119.61 13.7193 119.593 13.6478 119.558 13.5406C119.523 13.4334 119.506 13.3619 119.506 13.344L119.523 13.2011L119.506 13.1475C119.506 12.9688 119.523 12.8437 119.54 12.79C119.575 12.7364 119.593 12.665 119.593 12.5756C119.61 12.4862 119.627 12.4148 119.627 12.3612L119.68 12.0931C119.714 12.0038 119.732 11.9501 119.784 11.9323C119.801 11.8787 119.819 11.7893 119.871 11.6463L119.906 11.4676L120.01 11.3247C120.062 11.2711 120.097 11.1996 120.114 11.0924C120.132 11.003 120.167 10.8958 120.219 10.7886C120.271 10.6813 120.306 10.6277 120.306 10.6098C120.306 10.5205 120.271 10.4848 120.184 10.4848C120.149 10.4848 120.08 10.5384 119.923 10.6456L119.749 10.592C119.732 10.592 119.697 10.6277 119.627 10.6992C119.627 10.7349 119.593 10.7528 119.54 10.7528C119.488 10.7707 119.419 10.8243 119.366 10.9136L119.279 10.9315L119.14 10.8779H119.106C119.036 10.8779 119.001 10.9494 118.984 11.1102C118.914 11.2175 118.81 11.2889 118.688 11.3247L118.462 11.3783C118.392 11.414 118.34 11.4676 118.305 11.5749C118.271 11.6642 118.201 11.7536 118.097 11.8429C117.992 11.9323 117.923 11.968 117.888 11.968C117.697 11.968 117.61 11.8608 117.61 11.6463L117.697 11.146L117.662 11.1102ZM122.08 5.87417L122.028 5.46315V5.40954C122.028 5.08788 122.132 4.90917 122.358 4.87343C122.41 4.87343 122.55 4.81982 122.793 4.73047C122.915 4.76621 123.037 4.87343 123.176 5.05214C123.315 5.24871 123.385 5.40954 123.385 5.55251C123.385 5.57038 123.367 5.60612 123.35 5.64186C123.332 5.69547 123.315 5.78482 123.315 5.90992C123.315 6.05288 123.245 6.1601 123.124 6.26733C123.002 6.37455 122.863 6.41029 122.724 6.41029C122.637 6.41029 122.515 6.33881 122.358 6.21372C122.167 6.10649 122.08 5.9814 122.08 5.87417Z" fill="#1A1413"/>
<path d="M129.316 13.6478L128.829 14.0767C128.794 14.0409 128.777 14.0409 128.742 14.0409C128.673 14.0409 128.586 14.0945 128.499 14.2375C128.394 14.3626 128.325 14.4162 128.29 14.4162L128.186 14.3983C128.012 14.5234 127.89 14.6128 127.82 14.6307C127.751 14.6485 127.664 14.6843 127.542 14.7379C127.438 14.7915 127.333 14.8272 127.264 14.8272C127.177 14.8272 127.107 14.863 127.055 14.9166C127.003 14.9702 126.864 14.9881 126.655 14.9881L126.498 14.9702C126.411 15.0059 126.359 15.0238 126.324 15.0238C126.272 15.0238 126.203 14.9881 126.15 14.9345C126.098 14.8808 126.029 14.8451 125.942 14.8272C125.855 14.8094 125.802 14.7736 125.716 14.6843C125.629 14.5949 125.576 14.5234 125.507 14.4877C125.437 14.4519 125.385 14.3983 125.35 14.3447L125.211 14.2196C125.089 14.1303 124.985 13.9873 124.881 13.755C124.776 13.5227 124.724 13.3618 124.724 13.2368V13.201L124.741 13.0044L124.724 12.7721C124.759 12.7364 124.776 12.6828 124.828 12.5934V12.2539L125.072 11.414C125.089 11.3782 125.055 11.3246 124.985 11.271C124.915 11.3782 124.846 11.4318 124.776 11.4497C124.707 11.4676 124.654 11.5212 124.637 11.5927C124.62 11.6642 124.567 11.7178 124.515 11.7178L124.394 11.682C124.376 11.6999 124.341 11.7714 124.307 11.8965C124.254 12.0216 124.167 12.0931 124.063 12.0931C123.941 12.0931 123.872 12.0394 123.872 11.9501L123.889 11.7714L123.837 11.5033C123.837 11.4497 123.889 11.3425 123.993 11.1817C124.098 11.0208 124.202 10.9315 124.289 10.8957C124.376 10.8779 124.463 10.8064 124.515 10.6991C124.585 10.5919 124.724 10.4668 124.933 10.306C125.055 10.2703 125.159 10.1809 125.246 10.0379C125.35 9.96646 125.472 9.89498 125.611 9.85924C125.768 9.80563 125.889 9.73415 125.959 9.64479C126.029 9.55544 126.272 9.41248 126.655 9.19803C127.037 9.00146 127.316 8.89423 127.49 8.89423C127.542 8.89423 127.629 8.87636 127.716 8.84062C127.82 8.80488 127.907 8.78701 127.977 8.75127C128.064 8.7334 128.151 8.69766 128.238 8.62617C128.325 8.57256 128.394 8.55469 128.446 8.55469L128.742 8.66192C128.968 8.71553 129.09 8.76914 129.142 8.80488C129.16 8.82275 129.229 8.85849 129.351 8.89423C129.473 8.94784 129.612 9.00145 129.734 9.07294C129.873 9.14442 129.942 9.28739 129.942 9.50183C129.821 9.68054 129.768 9.76988 129.768 9.78776C129.768 9.8235 129.838 9.85924 129.995 9.91285C130.047 10.0201 130.134 10.1452 130.238 10.3239L130.342 10.6813L130.36 11.5391L130.342 11.6284C130.273 11.6999 130.238 11.7356 130.238 11.7714L130.273 11.9858L130.186 12.2718C130.169 12.3611 130.134 12.4147 130.082 12.4505C130.029 12.4862 130.012 12.5041 129.995 12.5577L129.942 12.647C129.925 12.6649 129.908 12.7364 129.855 12.8257C129.803 12.933 129.768 13.0044 129.716 13.0581C129.664 13.1117 129.629 13.1832 129.612 13.2546C129.594 13.3261 129.56 13.3797 129.508 13.4155C129.455 13.4512 129.421 13.4869 129.386 13.5227C129.421 13.5942 129.368 13.6299 129.316 13.6478ZM126.15 13.9158L126.185 14.1482L126.203 14.166H126.359L126.411 14.1839C126.55 14.2196 126.655 14.2196 126.724 14.2196C126.933 14.2196 127.107 14.166 127.229 14.0588C127.351 13.9516 127.455 13.898 127.525 13.898C127.594 13.898 127.664 13.8443 127.716 13.7371C127.768 13.6299 127.803 13.5763 127.82 13.5763H127.959L127.994 13.5584C127.994 13.3976 128.064 13.2904 128.203 13.2189C128.342 13.1474 128.446 13.0581 128.499 12.9508C128.551 12.8257 128.62 12.7543 128.69 12.6828C128.76 12.6292 128.812 12.5398 128.847 12.4505L128.933 12.3254C128.968 12.2896 128.968 12.236 128.968 12.1645L129.16 11.7893C129.194 11.6105 129.212 11.4855 129.212 11.3782C129.212 11.2353 129.142 11.1102 128.986 11.0387C128.829 10.9672 128.76 10.7885 128.76 10.5383C128.76 10.3775 128.847 10.2345 129.003 10.0916C129.16 9.94859 129.247 9.87711 129.247 9.84136C129.247 9.80562 129.229 9.78776 129.194 9.78776C129.177 9.78776 129.09 9.8235 128.968 9.87711C128.916 9.96646 128.673 10.1094 128.238 10.2703C128.099 10.1988 128.012 10.163 128.012 10.163C127.977 10.163 127.925 10.1988 127.89 10.2881C127.855 10.3775 127.803 10.4311 127.768 10.4668H127.629C127.612 10.4668 127.577 10.5204 127.49 10.6098C127.42 10.6991 127.316 10.7528 127.211 10.7528L127.09 10.8779C127.09 10.9851 127.038 11.1102 126.881 11.2174L126.777 11.3604C126.707 11.4497 126.62 11.5391 126.516 11.6463L126.324 12.1109C126.255 12.2896 126.203 12.4326 126.203 12.5219C126.185 12.5577 126.133 12.6113 126.063 12.647C125.994 12.7006 125.959 12.7543 125.959 12.8257C125.959 12.8436 125.976 12.8793 126.029 12.933C126.081 12.9866 126.098 13.0223 126.098 13.0581L126.063 13.201L126.029 13.5942L126.15 13.9158Z" fill="#1A1413"/>
</svg>
