<svg width="239" height="43" viewBox="0 0 239 43" fill="none" xmlns="http://www.w3.org/2000/svg">
<path d="M1.25176 16.1667L1.28386 15.7378V15.5728L1.44434 15.0449C1.70111 14.2531 1.95789 13.6922 2.24676 13.2963C2.53562 12.9333 2.6961 12.6694 2.6961 12.5044C2.7282 12.3395 2.82449 12.1745 2.98497 12.0095C3.14545 11.8116 3.27384 11.6466 3.33803 11.5146L3.49852 11.2837C3.49852 11.0527 3.6269 10.7888 3.91577 10.5249C4.20464 10.2609 4.36512 10.03 4.39722 9.86499C4.42931 9.70002 4.6219 9.43606 4.97496 9.00715C4.97496 8.90817 5.10334 8.67723 5.36011 8.38029C5.61688 8.08335 5.77737 7.8524 5.84156 7.72043C5.90575 7.58845 6.06623 7.48947 6.32301 7.39049C6.3551 7.12655 6.48349 6.8956 6.70817 6.73063C6.90075 6.56566 7.06123 6.40069 7.15752 6.26872C7.25381 6.13674 7.3822 6.03776 7.54268 5.93878L7.73525 5.70783C7.83154 5.57585 8.02412 5.3779 8.37718 5.11395C8.73024 4.85001 8.92282 4.65205 9.01911 4.52008L9.50056 4.32211L9.56475 4.25614L9.59685 4.02518C9.66105 3.99219 9.72523 3.9262 9.85362 3.76124C9.98201 3.59627 10.0783 3.49729 10.1746 3.43131L10.6881 2.9034C10.8807 2.77143 11.0733 2.67246 11.2017 2.60647C11.3622 2.54049 11.4264 2.4415 11.4905 2.30953C11.5547 2.17755 11.7473 2.04558 12.1646 1.9136C12.3892 1.61666 12.7102 1.41871 13.1275 1.38572C13.288 1.12177 13.7373 0.824831 14.4755 0.494899C15.2137 0.164966 15.7594 0 16.0483 0C16.3371 0 16.5939 0.0329892 16.8186 0.0989757L17.1074 0.0659905C17.1716 0.0989838 17.2679 0.131977 17.4605 0.230957H17.4926L17.6531 0.263942C18.1024 0.791834 18.295 1.31973 18.295 1.9136C18.295 2.17755 18.295 2.50749 18.2629 2.87042C18.1345 3.33232 18.0703 3.69524 18.0703 3.95919C18.0703 4.12416 18.0061 4.35511 17.8777 4.61905L17.7173 5.14694C17.6531 5.90578 17.3963 6.3017 16.947 6.3017C16.2729 6.3017 15.9199 5.97177 15.9199 5.3119C15.9199 4.88299 16.0803 4.52008 16.4334 4.25614C17.0432 3.86022 17.3642 3.20034 17.3642 2.30953C17.3642 2.07857 17.2679 1.94661 17.0753 1.94661H17.0432C16.9149 2.0126 16.8186 2.04559 16.7544 2.04559L16.4013 1.94661H16.3692L16.2087 2.01258C16.1766 1.97959 16.0803 2.01259 15.9199 2.14456C15.7594 2.24354 15.5668 2.34253 15.2779 2.44151C15.0212 2.54049 14.7323 2.73844 14.4755 3.03538C14.2187 3.33232 13.8978 3.56327 13.5768 3.69525C13.2559 3.82722 12.967 4.09116 12.7102 4.45409C12.7102 4.48708 12.7102 4.48707 12.6781 4.48707L12.293 4.45409C12.2288 4.45409 12.1646 4.61905 12.0362 4.94899L11.9078 5.01498H11.8115C11.7473 5.04797 11.6831 5.11396 11.5547 5.24593L11.3301 5.44388C11.2659 5.67484 11.1054 5.87279 10.8807 5.97177L10.656 6.36769C10.5597 6.43368 10.4314 6.49967 10.303 6.59865C10.1746 6.69763 10.0462 6.76362 9.98201 6.82961C9.91781 6.89559 9.82153 7.02756 9.72524 7.25851C9.62895 7.52246 9.34008 7.72042 8.85863 7.91838C8.82653 7.98436 8.79444 8.01737 8.79444 8.05036C8.79444 8.08335 8.79444 8.11635 8.82654 8.21533V8.24831C8.82654 8.51226 8.50557 8.90817 7.86364 9.43606V9.50205C7.86364 9.63402 7.76735 9.89798 7.54268 10.2939C7.318 10.6898 7.15752 10.9538 6.99703 11.1187C6.83655 11.2837 6.77235 11.3827 6.77235 11.4157V11.6796C6.77235 11.8776 6.67607 12.0095 6.51559 12.0755C6.3551 12.2075 6.22672 12.3395 6.16252 12.4055C6.16252 12.6694 6.06623 12.8674 5.84156 12.9993C5.61688 13.1313 5.5206 13.2303 5.45641 13.3293L5.58479 13.5602V13.6262C5.58479 13.9891 5.39221 14.2201 5.03915 14.3521V14.4181C5.03915 14.55 4.94286 14.748 4.75028 14.9789C4.5577 15.2429 4.39722 15.4079 4.26883 15.4738C4.23673 15.4738 4.20463 15.5068 4.20463 15.5398L4.26883 16.0677C3.94787 16.7936 3.6269 17.3215 3.30594 17.7174C3.17755 17.7504 3.11336 17.8164 3.11336 17.8823L3.17755 18.1793V18.2453C3.17755 18.5752 3.11336 18.8061 3.01707 18.9051C2.92078 19.0041 2.85659 19.1031 2.85659 19.1361L2.98497 19.4C2.98497 19.499 2.92078 19.598 2.82449 19.664C2.7282 19.7299 2.66401 19.7629 2.66401 19.8289C2.66401 19.8619 2.66401 19.8949 2.6961 19.9279V20.0269C2.6961 20.1259 2.59981 20.4888 2.43933 21.1157V21.3796L2.37514 21.6436C2.37514 21.6766 2.40723 21.7425 2.47143 21.8745C2.53562 22.0065 2.56772 22.1385 2.56772 22.2375L2.43933 22.5014C2.40723 22.5344 2.40724 22.5674 2.40724 22.6004C2.40724 22.8313 2.47143 23.1613 2.56772 23.5242C2.66401 23.9201 2.85658 24.0851 3.11336 24.0851C3.53061 24.0851 3.78738 24.0191 3.88367 23.9201C3.97996 23.8211 4.23673 23.5902 4.68608 23.2273C5.13543 22.8643 5.42431 22.6334 5.58479 22.4684C5.74527 22.3034 5.84156 22.2374 5.90576 22.2044C6.00204 22.1715 6.323 21.7755 6.93284 20.9837C7.54267 20.2248 8.05622 19.532 8.50557 18.9051C8.53767 18.8721 8.56976 18.8061 8.60186 18.6412C8.63396 18.4762 8.79443 18.3112 9.01911 18.0803C9.24379 17.8493 9.59685 17.4204 10.0462 16.7606L10.3993 16.3976C10.6881 16.0017 10.8486 15.7378 10.8807 15.6388C10.9128 15.5398 11.0091 15.4408 11.1696 15.3419C11.3301 15.2429 11.4264 15.1109 11.4905 14.9459C11.5547 14.781 11.6831 14.682 11.8115 14.682C11.972 14.649 12.0362 14.583 12.0362 14.484L12.0041 14.0881C12.1646 13.7912 12.3892 13.6262 12.6139 13.5272C12.5818 13.4612 12.5818 13.3953 12.5818 13.2963C12.5818 12.9993 12.7102 12.8014 12.967 12.7024C13.2238 12.6034 13.3521 12.5374 13.3842 12.4385C13.3842 12.3395 13.4163 12.2405 13.4805 12.1085L13.5447 11.9436C13.641 11.7126 13.7373 11.5476 13.8336 11.4487L14.0583 11.0857L14.4434 10.6898C14.4434 10.6568 14.4434 10.6238 14.4755 10.6238L14.4113 10.1949C14.4113 10.1289 14.5718 10.0299 14.8928 9.89797L14.9249 9.83198V9.50205C14.9249 9.40307 15.0533 9.2711 15.2779 9.13913C15.3421 8.87519 15.4705 8.67722 15.6631 8.57824C15.6952 8.24831 15.7915 7.95138 16.0162 7.72043C16.2087 7.48947 16.4013 7.25852 16.5618 6.99457C16.7223 6.76362 16.9469 6.63163 17.2358 6.63163C17.3963 6.63163 17.6852 6.76362 18.1024 6.99457C18.5197 7.22552 18.7444 7.58844 18.7444 8.01735C18.7444 8.08334 18.6802 8.21532 18.5518 8.47927C18.4234 8.74321 18.295 9.23812 18.1987 10.03C17.9419 10.7558 17.7494 11.1847 17.6852 11.3167C17.7494 11.4816 17.8136 11.6466 17.8136 11.7456C17.8136 11.9106 17.7173 12.1085 17.4926 12.3395C17.4605 12.5704 17.3963 12.7684 17.3321 12.9334V13.2303C17.3321 13.4612 17.1716 13.6592 16.8186 13.7582C16.7865 13.7582 16.7223 13.9231 16.6581 14.2201C16.5939 14.55 16.5618 14.715 16.5618 14.715L16.626 15.2429C16.626 15.4078 16.5618 15.5728 16.4655 15.6718C16.3692 15.7708 16.2408 15.9357 16.0483 16.1997C15.8557 16.4636 15.7915 16.5956 15.7915 16.6616C15.7915 16.8925 15.7594 17.0575 15.7273 17.1895C15.6952 17.3214 15.631 17.4534 15.631 17.6184C15.631 17.7834 15.5668 17.9153 15.4705 18.0473C15.3742 18.1793 15.31 18.2782 15.2779 18.3442C15.3421 18.5092 15.4063 18.6082 15.4063 18.6412C15.4063 18.7072 15.3742 18.8721 15.2779 19.1031C15.1495 19.2351 15.0854 19.334 15.0854 19.433C15.0854 19.433 15.1175 19.532 15.2137 19.697C15.1816 19.8619 15.1174 20.0599 15.0212 20.3238L14.9891 20.4228L15.0533 21.5116C15.0533 21.5446 15.0212 21.6106 14.8928 21.7426V21.8415C14.8928 21.9735 14.9249 22.0395 15.0212 22.0395C15.0854 22.0395 15.2779 21.9405 15.5989 21.7426C15.9199 21.5446 16.1124 21.4126 16.1766 21.3136C16.305 21.0827 16.8186 20.7197 17.7494 20.1589L20.1887 18.0143C20.3492 17.8493 20.4776 17.7504 20.5418 17.7504C20.7664 17.7504 20.8627 17.8493 20.8627 18.0473C20.8627 18.3442 20.7985 18.6742 20.6701 19.0701V19.367C20.6701 19.697 20.5097 20.0269 20.1566 20.3238C20.1245 20.4228 20.0603 20.5218 19.8998 20.5878C19.7394 20.6538 19.6431 20.7528 19.5789 20.8517C19.5147 20.9507 19.3863 21.0827 19.1616 21.1817C18.9369 21.2806 18.7764 21.4126 18.6481 21.5116L18.4876 21.5776C18.295 21.6766 18.1666 21.8085 18.1024 22.0065C18.0382 22.2045 17.974 22.3034 17.9098 22.3034C17.621 22.3034 17.2358 22.5674 16.7544 23.0623L16.5297 23.1283L16.305 23.2932C16.1766 23.3922 16.0803 23.4582 16.0162 23.4582L15.7273 23.4252L14.7323 23.6232C14.5718 23.6232 14.4434 23.4912 14.2829 23.2602H13.9941L13.7373 22.9633C13.4484 22.8643 13.1596 22.5014 12.9349 21.9075C12.7102 21.3136 12.5818 20.7857 12.5818 20.3568C12.5818 20.0929 12.646 19.664 12.7423 19.1031C12.8386 18.5422 12.9349 18.1133 12.9349 17.8493C12.9349 17.5524 12.967 17.2885 13.0954 17.0245C13.1917 16.7606 13.2559 16.5296 13.2559 16.3317C13.2559 16.2657 13.32 16.1007 13.4163 15.8038C13.5126 15.5068 13.5768 15.1769 13.5768 14.8799C13.5768 14.847 13.5447 14.847 13.5126 14.847C12.8707 15.8368 12.4213 16.3976 12.1967 16.4966C12.1004 16.5626 12.0041 16.6286 11.9078 16.7606C12.0362 16.9915 12.1004 17.0905 12.1004 17.1235C12.1004 17.3215 11.8436 17.6844 11.3622 18.1793L11.1696 18.6082C11.1054 18.6742 11.0412 18.7072 11.0091 18.7072L10.5918 18.6742L10.4635 18.8391L10.5918 19.2351C10.4635 19.532 10.2709 19.697 10.0783 19.763L10.0141 19.8289L9.98201 20.0269L9.78943 20.1589C9.75734 20.1589 9.75734 20.1589 9.75734 20.1919L9.82152 20.5878C9.75733 20.6538 9.69314 20.7527 9.59685 20.8187C9.50056 20.8847 9.40428 21.0497 9.30799 21.3136C9.2117 21.5776 9.0833 21.7095 8.85863 21.7095L8.69814 21.6436H8.66606L8.63396 22.0065L8.66606 22.1715C8.66606 22.2704 8.56976 22.4024 8.37718 22.5344L8.18461 22.7324C8.18461 22.8973 8.05622 23.1283 7.76735 23.3922C7.47848 23.6892 7.2859 23.9531 7.12542 24.184C6.90074 24.283 6.67607 24.514 6.45139 24.8109C6.03414 25.1738 5.77737 25.4048 5.71317 25.5038C5.61688 25.6028 5.4885 25.6688 5.26382 25.7017C5.10334 25.8667 4.87867 25.9987 4.62189 26.0317C4.36512 26.0647 4.14045 26.1306 3.94787 26.2296C3.75529 26.2956 3.6269 26.3286 3.5948 26.3286C3.14545 26.3286 2.66401 26.1306 2.21466 25.7677C1.89369 25.7677 1.66902 25.6357 1.57273 25.4378L0.770314 24.6789C0.25677 23.8871 0 23.0293 0 22.1385C0 21.9735 0.0320926 21.8085 0.0962856 21.6766C0.160479 21.5446 0.192571 21.4456 0.192571 21.4126C0.192571 21.3466 0.160479 21.3136 0.0962856 21.2477C0.0320926 21.1817 0 21.1157 0 21.0827C0 20.9837 0.0962895 20.8517 0.320965 20.7198C0.160483 20.5548 0.0962856 20.4228 0.0962856 20.2908C0.0962856 20.1919 0.160479 20.0269 0.256768 19.8619C0.353058 19.697 0.417255 19.598 0.481448 19.598C0.545641 19.598 0.60983 19.664 0.738216 19.7959C0.738216 19.8289 0.738218 19.8289 0.770314 19.8289C0.834507 19.8289 0.834501 19.796 0.834501 19.763C0.834501 19.631 0.770316 19.532 0.64193 19.466C0.513544 19.4 0.417249 19.2351 0.385152 19.0371C0.320959 18.9711 0.320965 18.9381 0.320965 18.9381L0.64193 17.4534C0.73822 17.0575 0.930797 16.6946 1.25176 16.3976V16.1667Z" fill="#1A1413"/>
<path d="M21.0553 21.2142V21.0823C21.0553 20.9173 21.0553 20.7523 21.0874 20.6533C21.0232 20.4554 20.959 20.2574 20.959 20.0925C20.959 20.0595 21.0232 19.8945 21.1516 19.5646L21.312 18.9707C21.4083 18.7397 21.4404 18.6078 21.4725 18.6078C21.4083 18.4098 21.3441 18.2779 21.3441 18.2779C21.3441 17.9809 21.4404 17.75 21.6009 17.552C21.7614 17.354 21.8898 17.0901 22.0182 16.7272L22.4033 15.5394L23.0132 13.9887C23.0132 13.9557 23.0773 13.8568 23.2057 13.6918C23.302 13.5268 23.3983 13.3949 23.4625 13.2629C23.5267 13.1309 23.623 12.9659 23.7514 12.735L23.9439 12.702C24.0081 12.636 24.0081 12.603 24.0081 12.537C24.0081 12.504 23.976 12.405 23.9439 12.2401L24.5859 11.1183L24.971 10.2935C25.0994 10.0625 25.2278 9.93057 25.3883 9.86458C25.6451 9.36969 25.8697 9.10573 26.0302 9.00675C26.0944 8.7758 26.2549 8.51186 26.4475 8.21492L26.8005 8.18192C26.8647 8.01695 26.9289 7.85198 26.9931 7.786L27.0252 7.39009C27.0252 7.45608 27.0573 7.45608 27.1215 7.3241C27.1857 7.19213 27.282 6.96117 27.4104 6.63123L27.9239 6.03736L28.0844 5.77342C28.1486 5.67444 28.2449 5.50948 28.3733 5.24554C28.5658 5.17955 28.7263 5.01457 28.8547 4.81661L29.2399 4.48668C29.2078 4.3547 29.3683 4.02478 29.6892 3.52989C29.9139 3.43091 30.1065 3.33193 30.267 3.19995L30.5237 3.13396C30.5237 2.67206 30.6842 2.37512 31.0052 2.21016L31.2298 2.04519C31.4224 1.94621 31.5508 1.88023 31.5508 1.88023L31.6792 1.84722C31.8397 1.78123 32.0002 1.78125 32.1927 1.78125C32.6742 1.78125 33.0914 1.94621 33.4445 2.30913C33.8297 2.67206 34.0222 3.06798 34.0222 3.52989C34.0222 3.69485 33.9259 3.89281 33.7334 4.09077L33.6692 4.25574C33.5087 4.98159 33.3803 5.31151 33.284 5.31151C33.2198 5.31151 33.1556 5.34452 33.0914 5.4105C33.0593 5.83941 33.0272 6.07035 33.0272 6.13634C32.8026 6.16933 32.7063 6.46628 32.7063 6.99417C32.6742 7.06016 32.5779 7.19213 32.4174 7.39009C32.2569 7.58805 32.1285 7.85199 32.0644 8.14893C31.9681 8.47887 31.8718 8.64383 31.7755 8.64383H31.5829L31.6471 8.94076C31.6471 9.10572 31.5508 9.3037 31.3903 9.46866C31.2298 9.63363 31.1015 9.83159 31.0694 10.0296C31.0373 10.2275 30.8768 10.4585 30.62 10.7224L30.4274 11.0193C30.3632 11.1513 30.267 11.2833 30.1386 11.4152C30.0102 11.5472 29.9139 11.7782 29.8176 12.0751L29.3362 12.9989C28.9831 13.6258 28.7263 13.9227 28.5658 13.9227C28.4375 14.4176 28.3733 14.7146 28.3412 14.7806C28.3091 14.8465 28.2128 14.9455 28.0844 15.0115C27.956 15.0775 27.8276 15.1765 27.7634 15.3414C27.6992 15.5064 27.6029 15.6054 27.5067 15.7044L27.1857 16.4302C26.9931 16.5292 26.8326 16.6942 26.7363 16.9251C26.5438 16.9911 26.4154 17.1561 26.3512 17.453C26.3191 17.519 26.2228 17.618 26.1586 17.8159L25.5167 18.4758C25.1957 18.7068 25.0031 19.0037 24.971 19.3006C24.9389 19.6306 24.7785 19.7625 24.4896 19.7625C24.2649 19.7625 23.9761 19.6636 23.5588 19.4656H23.5267C23.4946 19.6306 23.3983 19.8615 23.2699 20.0595L23.3341 20.5874C23.3341 20.6534 23.2378 21.0493 23.0453 21.8081C23.1415 22.0061 23.2057 22.138 23.2057 22.204L23.1736 22.6329L23.2699 23.1608C23.3341 23.5898 23.4946 23.7877 23.7193 23.7877L24.1686 23.8537C24.2007 23.8537 24.3612 23.7547 24.6501 23.5568L25.3562 23.1608C25.3883 23.1608 25.3883 23.1608 25.3883 23.1938C25.5167 23.2598 25.613 23.2598 25.6772 23.2598C25.8056 23.2598 25.8697 23.1608 25.8697 22.9629V22.6989C25.9339 22.567 26.0302 22.501 26.1586 22.468C26.2549 22.435 26.3512 22.369 26.4475 22.303C26.5438 22.204 26.608 22.171 26.6401 22.171H26.8326C27.0252 22.171 27.1215 21.9401 27.1215 21.5112C27.1857 21.4782 27.2499 21.4452 27.3141 21.3462H27.5388C27.635 21.3462 27.7313 21.2142 27.8597 20.9503C27.9881 20.6863 28.0523 20.5544 28.1165 20.4884C28.3412 20.4554 28.5016 20.4224 28.5979 20.3894C29.0152 19.6306 29.3041 19.2676 29.5287 19.2676H29.6571C29.8818 19.0697 29.9781 18.8717 30.0102 18.7068C30.0423 18.5418 30.1065 18.4428 30.2028 18.3768C30.299 18.3108 30.3953 18.2778 30.4916 18.1789C30.5879 18.1129 30.6521 18.0799 30.6521 18.0799C30.8447 18.0799 30.941 18.1459 30.941 18.2779L30.8768 18.8057L31.0052 19.3996C31.0052 19.4656 30.941 19.5646 30.8447 19.6966C30.7484 19.8615 30.6842 20.0265 30.6842 20.1915C30.6842 20.5544 30.62 20.7523 30.4916 20.7853C30.3632 20.8183 30.267 20.8843 30.1707 21.0493C30.0744 21.2142 29.946 21.3462 29.7534 21.4452C29.5608 21.5772 29.4324 21.7421 29.3362 21.9731L29.0152 22.0391L28.8226 22.138C28.6621 22.534 28.5016 22.7979 28.3412 22.8639C28.1807 22.9629 27.956 23.2268 27.6992 23.6887C27.6671 23.6887 27.635 23.6887 27.635 23.7217L27.3462 23.6887C27.2178 23.8867 27.1215 24.0187 27.0252 24.0517C26.8968 24.0847 26.8326 24.1506 26.7363 24.2826C26.6722 24.3816 26.5438 24.4806 26.3191 24.5466C26.1265 24.6125 25.9981 24.7115 25.966 24.8105C25.9018 24.9095 25.8376 24.9755 25.7414 24.9755C25.6451 24.9755 25.5488 25.0414 25.4525 25.1074C25.3562 25.2064 25.292 25.2394 25.2278 25.2394C25.1957 25.2394 25.0994 25.2394 24.971 25.2064H24.9068C24.6822 25.3714 24.5217 25.4374 24.3933 25.4374C24.2328 25.4374 24.1044 25.4704 24.0402 25.5033C23.9761 25.4374 23.8477 25.4044 23.6872 25.3714C23.5267 25.3384 23.3662 25.2724 23.1415 25.1734C22.9169 25.2394 22.7885 25.2394 22.7564 25.2394C22.5317 25.2394 22.2749 25.0085 21.954 24.5795C21.633 24.1506 21.4725 23.7217 21.4725 23.3258C21.4725 23.3258 21.4083 23.2268 21.2479 23.0289C21.0874 22.8309 21.0232 22.6329 21.0232 22.435V22.237L21.0553 22.0061V21.7751L21.0874 21.6761C21.2799 21.6432 21.3762 21.6102 21.3762 21.6102L21.0553 21.2142ZM24.8748 16.1003L25.2599 15.8693C25.3241 15.6714 25.4846 15.4074 25.7414 15.1105C25.9981 14.8136 26.2228 14.6816 26.3191 14.6816H26.4796C26.4796 14.5826 26.5117 14.5166 26.5438 14.4176C26.5759 14.3187 26.608 14.2197 26.608 14.0547C26.608 13.9887 26.7684 13.7578 27.1215 13.4278L27.282 13.0979C27.4104 12.768 27.6671 12.504 28.1165 12.2731C28.277 11.9102 28.4375 11.7122 28.5016 11.7122L28.6621 11.6792C28.7263 11.4813 28.8226 11.3163 28.951 11.1513L29.0152 11.0523V10.7554C29.0152 10.7224 29.1115 10.6234 29.272 10.4255C29.4324 10.2275 29.5608 10.0625 29.625 9.89757C29.6892 9.7326 29.7855 9.60064 29.946 9.53465C30.1065 9.46867 30.1707 9.27071 30.2349 9.03975L30.5237 9.00675C30.5237 8.84178 30.5237 8.7428 30.5558 8.67682L30.5879 8.47887C30.6521 8.3139 30.8768 7.91798 31.2298 7.25811L31.5187 6.53226C31.5187 6.46627 31.5829 6.3673 31.6792 6.26832C31.7755 6.16934 31.8397 6.00436 31.8397 5.8064L32.0002 5.17955C32.0002 4.88261 31.936 4.75064 31.8397 4.75064C31.7113 4.84962 31.5829 4.9156 31.4866 4.94859C31.3903 4.98158 31.294 5.21253 31.1656 5.64144C30.7805 5.74042 30.5558 5.90539 30.5237 6.20233C30.4595 6.46627 30.3311 6.69724 30.0744 6.8952L29.946 7.12613C29.9139 7.25811 29.7855 7.42309 29.5929 7.55506C29.3682 7.72003 29.1757 7.98396 28.9831 8.34688C28.3412 9.2377 28.0202 9.6996 27.956 9.76559L27.7634 9.99654L27.4746 9.96356C27.5388 10.1615 27.5388 10.2935 27.5388 10.3265C27.5388 10.3925 27.5067 10.4914 27.4104 10.5574C27.3462 10.6234 27.282 10.7224 27.2499 10.8214C27.2178 10.9204 27.1215 11.0523 27.0252 11.1843C26.8968 11.3163 26.8005 11.5472 26.7042 11.8442C26.608 12.1411 26.5438 12.3391 26.4475 12.3721L26.1907 12.3391C26.0302 12.4381 25.9339 12.537 25.9339 12.636L25.9981 12.8999C25.9981 12.9659 25.966 12.9989 25.9018 13.0649C25.8376 13.1309 25.7734 13.2629 25.7093 13.4938C25.6451 13.6918 25.4846 14.0217 25.2278 14.4176C24.971 14.8466 24.7785 15.2755 24.618 15.7374C24.4575 16.1993 24.3291 16.4962 24.2007 16.6282C24.2328 16.6612 24.2649 16.6612 24.3291 16.6612C24.5538 16.6282 24.7143 16.4302 24.8748 16.1003Z" fill="#1A1413"/>
<path d="M31.9679 17.948L32.353 17.618C32.6419 17.5851 32.8345 17.4201 32.8345 17.1231C32.8666 16.8262 33.0592 16.5622 33.4443 16.3643L33.669 16.0344C33.8616 15.8364 34.3751 15.6054 35.2096 15.2755C35.4343 15.1435 35.5627 15.0446 35.659 14.9456C35.6911 14.9126 35.6911 14.9126 35.7232 14.9126L36.012 14.9786C36.1725 14.9786 36.3972 14.9456 36.654 14.8466C36.9107 14.7476 37.1675 14.7146 37.3922 14.7146L38.1946 14.6816C38.2267 14.6816 38.3551 14.7146 38.5156 14.7806C38.676 14.8466 38.8686 14.8796 39.0933 14.8796C39.3822 14.8796 39.6068 15.0116 39.8636 15.2755C40.0883 15.5395 40.2167 15.7704 40.2167 16.0014C40.2167 16.3973 40.0241 16.7932 39.6068 17.2221C39.1896 17.651 38.9007 17.882 38.6439 17.915C38.4193 18.1459 38.2588 18.2779 38.1625 18.3439C38.0341 18.4099 37.9378 18.5089 37.8094 18.6078C37.681 18.7068 37.5848 18.7728 37.5206 18.7728C37.4564 18.7728 37.4243 18.7728 37.3922 18.7068C37.3601 18.6738 37.328 18.6408 37.2638 18.6408C37.0712 18.6408 36.8465 18.9048 36.6219 19.3997L36.2688 19.3667C36.0441 19.4987 35.9157 19.6636 35.8515 19.8286C35.7874 19.9935 35.659 20.0925 35.4664 20.0925C35.017 20.5874 34.6961 20.8184 34.5356 20.8184C34.5035 20.8184 34.4072 20.7854 34.2788 20.7524C34.1825 20.8844 34.1183 21.0163 34.1183 21.1483C34.1183 21.3133 34.0221 21.3793 33.8295 21.4123L33.5727 21.6432L33.3801 21.6102L32.995 22.0061C32.8024 22.0061 32.6098 22.0721 32.4172 22.2041C32.3851 22.3691 32.353 22.567 32.2888 22.798C32.2246 23.0289 32.2247 23.1609 32.2247 23.1939C32.2247 23.5568 32.5456 23.7548 33.2196 23.7548L34.1183 23.6228C34.343 23.6228 34.5677 23.5568 34.7924 23.4249C34.9849 23.2929 35.2096 23.2269 35.4664 23.2269C35.5306 23.2269 35.659 23.1939 35.8195 23.1609L36.012 23.2269C36.1083 23.0289 36.2688 22.864 36.4935 22.699C36.7182 22.534 36.9107 22.468 37.0712 22.468L37.2638 22.3691C37.2959 22.2041 37.3922 22.1051 37.4885 22.0721L37.649 21.9402C37.7452 21.8412 37.8415 21.7752 37.9378 21.7752H38.1946L38.2588 21.7422C38.4193 21.4123 38.6118 21.2143 38.9007 21.1483C39.1575 21.0823 39.3501 20.9834 39.4143 20.8514C39.4785 20.7194 39.6068 20.6534 39.7673 20.6204C39.9278 20.5874 40.0883 20.5214 40.2167 20.3565C40.3451 20.1915 40.4734 20.0595 40.666 19.9276C40.8265 19.7956 40.9549 19.6966 41.0191 19.6306C41.0833 19.5646 41.1475 19.5317 41.2117 19.5317C41.2759 19.5317 41.34 19.5976 41.34 19.6966C41.34 19.7956 41.3721 19.8616 41.4042 19.8616C41.4363 19.8616 41.4684 19.8286 41.4684 19.7956C41.4684 19.7626 41.4684 19.6966 41.4363 19.5976V19.4657C41.4363 19.2677 41.5326 19.1357 41.7252 19.0697L42.5597 18.5088C42.5918 18.2449 42.656 18.0799 42.7844 18.047C42.9128 18.014 43.0091 17.948 43.0733 17.882C43.1374 17.816 43.2016 17.783 43.2658 17.783C43.4263 17.783 43.5226 17.882 43.5226 18.0799L43.4263 18.5748L43.5226 19.1027C43.5226 19.1687 43.4584 19.3007 43.33 19.4327C43.2016 19.5646 43.1374 19.7626 43.0412 20.0595C42.977 20.3235 42.8807 20.4885 42.7844 20.5214H42.656C42.4313 20.7524 42.2387 20.9174 42.1104 20.9504C41.982 20.9834 41.8857 21.0823 41.7894 21.1813L41.1475 21.9402C41.0191 22.0721 40.9228 22.1711 40.8265 22.3031C40.7302 22.4021 40.666 22.468 40.6339 22.468L40.4734 22.3031C40.4734 22.2701 40.4413 22.2701 40.4093 22.2701C40.2809 22.2701 40.2167 22.3361 40.1846 22.501C40.1525 22.666 40.0883 22.798 39.992 22.897C39.6068 23.0619 39.3822 23.2269 39.2538 23.3919L39.1254 23.4249H38.8044C38.6439 23.4249 38.5156 23.5568 38.4835 23.8208C38.4193 24.0847 38.2267 24.2167 37.9378 24.2497C37.649 24.2827 37.4243 24.3487 37.2959 24.4806C37.2638 24.5136 37.1996 24.5466 37.1354 24.5466C37.0391 24.5796 36.8786 24.6786 36.6219 24.8436L35.0491 25.4374C34.9208 25.5034 34.8566 25.5364 34.7924 25.5364L34.2788 25.6024C34.2146 25.6024 34.1183 25.5364 34.0541 25.4374C33.99 25.3385 33.9258 25.2725 33.8937 25.2725L33.5406 25.3715C33.2838 25.4374 33.0592 25.4704 32.8345 25.4704C32.7061 25.4704 32.5777 25.4374 32.4172 25.3385C32.2568 25.2395 32.1605 25.1735 32.0642 25.1405C31.7111 25.1405 31.4543 24.8436 31.2939 24.2827L31.0692 24.3157C31.005 24.3157 30.8445 23.8538 30.5556 22.93C30.4914 22.831 30.3631 22.765 30.2026 22.699C30.0421 22.666 29.9458 22.534 29.9458 22.3361C29.9458 21.7422 30.0742 21.3793 30.2989 21.1813C30.5556 20.9834 30.684 20.8184 30.7161 20.7194L30.9729 19.7296C31.005 19.6966 31.1013 19.5646 31.1655 19.3337L31.5827 18.5088C31.679 18.5088 31.8074 18.3109 31.9679 17.948ZM35.9478 16.7602L35.7232 16.8592C35.659 16.8922 35.5306 16.9912 35.2738 17.1891C35.017 17.3871 34.7924 17.552 34.5677 17.684C34.343 17.816 34.0862 18.1129 33.8616 18.6408C33.6369 19.1687 33.5085 19.4657 33.5085 19.5317C33.5085 19.5976 33.5406 19.6306 33.6369 19.6306L34.2788 19.3337C34.5035 19.2347 34.7282 19.0697 34.9529 18.9048C35.1454 18.7398 35.4664 18.5089 35.8515 18.2449L36.012 18.0799C36.0441 18.014 36.1404 17.948 36.3651 17.816C36.5577 17.684 36.7182 17.552 36.8144 17.4201L37.007 17.3541C37.2317 17.0242 37.4243 16.7932 37.649 16.7272C37.8736 16.6612 37.9699 16.5623 37.9699 16.4963C37.9699 16.3313 37.8415 16.2653 37.6169 16.2653C37.5206 16.2653 37.3601 16.3313 37.1675 16.4633H36.7182C36.654 16.4633 36.5256 16.5293 36.3009 16.6942L35.9478 16.7602Z" fill="#1A1413"/>
<path d="M36.0766 42.3956C36.0445 42.2967 35.9803 42.1647 35.884 42.0327C35.7877 41.9008 35.7556 41.7358 35.7556 41.6038L35.6914 40.68L35.7235 39.1623C35.7556 39.1293 35.7877 39.0303 35.8519 38.8324C36.1408 37.6776 36.3333 37.0508 36.3975 36.9188C36.4938 36.7868 36.5259 36.6218 36.558 36.3909C36.6864 36.2259 36.7827 35.995 36.9432 35.698C37.0716 35.3681 37.1678 35.1371 37.1678 34.9392C37.1678 34.7412 37.2962 34.6092 37.4567 34.4773C37.5851 34.1143 37.7456 33.8174 37.9703 33.6195L38.1628 33.2895C38.4196 32.8936 38.6764 32.6627 38.9332 32.6297C39.2862 31.9038 39.8319 31.145 40.538 30.4191C41.2762 29.6603 41.8218 29.2313 42.1428 29.1324C42.207 28.9674 42.3354 28.8354 42.4638 28.7364C42.5922 28.6375 42.7526 28.5055 42.881 28.3735L43.2341 28.0766C43.4588 27.3177 43.6192 26.8228 43.7476 26.5919C43.876 26.3609 43.9402 26.031 44.0365 25.6351C44.1328 25.2392 44.197 24.9092 44.3254 24.6783L44.3575 24.3154C44.3575 24.2824 44.4217 24.1834 44.55 23.9854C44.6784 23.7875 44.8068 23.3586 44.9031 22.6987C44.9031 22.5667 44.9673 22.4348 45.0636 22.2368C45.1599 22.0388 45.2241 21.9399 45.2241 21.9069L45.1599 21.445V21.379C45.1599 21.313 45.192 21.214 45.2883 21.082L45.7376 20.0922C45.7697 19.9933 45.8018 19.9273 45.8339 19.8613C45.866 19.7953 45.8981 19.6963 45.8981 19.4983L46.0586 19.0035C46.0907 18.9375 46.0907 18.8385 46.0907 18.6405L46.2833 17.9147L46.2512 17.5188C45.7697 17.8157 45.3846 18.0796 45.0957 18.3106L44.7105 18.5086C44.6463 18.5745 44.55 18.7065 44.4217 19.0035L44.1007 19.2344C43.876 19.4654 43.7476 19.6303 43.7476 19.6633C43.7476 19.7953 43.5872 19.9273 43.2983 20.0592C43.0094 20.1912 42.8168 20.3892 42.7847 20.6531V20.7191C42.6564 20.8511 42.528 20.9171 42.3996 20.9171C42.207 20.9171 42.0144 20.8181 41.8218 20.6201C41.6293 20.4222 41.533 20.2242 41.533 20.0922C41.533 19.6303 41.5972 19.3664 41.6935 19.2674C41.7897 19.1684 41.886 19.0694 41.9823 18.9045C42.0786 18.7395 42.3033 18.5745 42.6885 18.4096C42.9773 18.0137 43.2341 17.7827 43.4267 17.6837C43.6192 17.5847 43.876 17.3538 44.1649 16.9249C44.9031 16.364 45.4809 15.9681 45.8981 15.7371C45.9302 15.7371 46.0265 15.6052 46.2191 15.3742C46.4116 15.1432 46.7647 14.8463 47.3424 14.4834L47.5671 14.2194C47.6634 14.0875 47.8239 14.0215 48.0807 14.0215C48.4016 14.0215 48.7226 14.2194 49.0115 14.5824C49.3003 14.9783 49.4608 15.3412 49.4608 15.7371C49.4608 15.9681 49.3966 16.166 49.2682 16.364L49.1398 16.7269C49.0757 17.0899 49.0115 17.3868 48.9152 17.5847C48.8189 18.1456 48.7547 18.6405 48.7226 19.0694C48.5621 19.3334 48.3695 19.8283 48.209 20.5541L47.9523 21.412C47.9523 21.7089 47.8881 22.0058 47.7276 22.3028C47.5671 22.5667 47.4708 22.9297 47.4387 23.3916L47.2783 23.6225L47.2462 23.9524C47.2462 24.0184 47.2141 24.0844 47.182 24.1174C47.1499 24.1504 47.0857 24.2824 47.0215 24.5133C46.9252 24.7443 46.861 24.9422 46.7968 25.0742C46.6684 25.3052 46.6042 25.7011 46.6042 26.262L46.6363 26.361C46.54 26.361 46.4116 26.5589 46.2833 26.8558C46.1228 27.1858 46.0586 27.3507 46.0586 27.4167C46.0586 27.4827 46.0907 27.5157 46.1228 27.5157L46.8931 27.2848C47.1499 27.2188 47.3424 27.1858 47.4708 27.1858C47.5992 27.1858 47.7276 27.1528 47.8239 27.1198C47.9202 27.0868 48.2411 27.0208 48.7868 26.9218C49.3324 26.8228 49.6855 26.7899 49.9102 26.7899L50.2953 26.8228L51.2261 26.6579C51.2582 26.6249 51.3545 26.6249 51.4829 26.6249C52.1569 26.6249 52.7347 26.8228 53.1198 27.2188C53.5371 27.6147 53.7297 28.1096 53.7297 28.6375C53.7297 29.2973 53.3766 29.6603 52.6705 29.6933H52.5421L52.2853 29.7262C52.1248 29.7262 51.9322 29.5283 51.8039 29.1654C51.6434 28.8024 51.4829 28.6045 51.3224 28.6045L50.9694 28.7035C50.8089 28.6045 50.6484 28.5715 50.5521 28.5715C50.4558 28.5715 50.3274 28.5385 50.2311 28.4725C50.1348 28.4065 49.9744 28.3405 49.7497 28.2746C49.5571 28.2086 49.2682 28.1426 48.9473 28.0106C48.53 28.1096 48.2732 28.1756 48.1449 28.1756H47.9202L47.0215 28.4395H46.861L46.5079 28.3405C46.3475 28.5055 45.9944 28.6705 45.5129 28.8684C45.4487 28.9344 45.3846 29.0994 45.3525 29.2973C45.3204 29.4953 45.2562 29.6933 45.1278 29.8582L45.0636 30.1222C44.9994 30.2211 44.9352 30.3201 44.8389 30.3861C44.7426 30.4521 44.6784 30.5181 44.6784 30.5511C44.6784 30.5841 44.7105 30.6831 44.7426 30.848V30.914C44.7426 30.947 44.7426 30.98 44.7105 31.013L44.6784 31.2439V31.4419C44.6784 31.5079 44.6142 31.5739 44.5179 31.6728C44.4217 31.7718 44.2612 31.9698 44.1649 32.2337L44.1007 32.2997C44.0365 32.3657 44.0365 32.3987 44.0365 32.4647L44.0686 33.1246C44.0686 33.2895 43.9723 33.4215 43.7476 33.4545C43.5872 33.8174 43.523 34.0484 43.4909 34.2133C43.4588 34.3783 43.3946 34.5103 43.2983 34.6093L42.5922 35.863C42.5922 35.995 42.528 36.1929 42.4317 36.4569C42.3354 36.7208 42.2712 36.8858 42.2712 36.9847C42.207 37.0507 42.1107 37.1167 42.0465 37.1827C41.886 37.7436 41.7898 38.0405 41.7256 38.1065C41.6614 38.1725 41.5972 38.3375 41.533 38.6674C41.3083 38.8324 41.1478 39.0633 41.0836 39.3273C41.0194 39.6242 40.8268 39.8881 40.5059 40.1191C40.1849 40.9109 39.6714 41.6698 38.9653 42.4286" fill="#1A1413"/>
<path d="M38.7728 39.5918H38.837C38.9333 39.5918 39.0295 39.5588 39.1258 39.5258L38.9654 39.1299C38.9654 38.9649 39.0616 38.701 39.2542 38.404C39.4468 38.1071 39.6394 37.7442 39.832 37.3482C40.0245 36.9523 40.2171 36.6884 40.4097 36.5894L40.2492 36.3254C40.3455 36.0285 40.4097 35.7646 40.4418 35.5996L42.1108 31.3764C42.3676 30.7826 42.4639 30.3866 42.4639 30.2217C42.1429 30.4526 41.9183 30.7166 41.7257 30.9805C41.7257 31.0135 41.5652 31.1455 41.2763 31.4095C40.9874 31.6734 40.6986 31.8714 40.4739 32.0033L39.5752 33.2571C39.4468 33.455 39.3184 33.587 39.19 33.653C38.7728 34.4118 38.516 34.9397 38.4197 35.2037C38.3234 35.4676 38.2271 35.6326 38.1308 35.6986L37.9383 36.1935L37.7136 36.5894L37.6815 37.0843C37.5852 37.3482 37.4889 37.5132 37.4247 37.6122C37.3605 37.7112 37.2963 37.7772 37.2963 37.8431L37.3605 38.701C37.1358 38.9979 37.0396 39.2619 37.0396 39.4928L37.1679 40.3176C37.2 40.6146 37.2642 40.7795 37.3605 40.7795C37.4247 40.7795 37.521 40.7136 37.6494 40.5486C37.7778 40.3836 37.9383 40.2846 38.0666 40.2517C38.195 40.2187 38.3234 40.1527 38.4518 40.0867C38.5481 39.8557 38.6444 39.6908 38.7728 39.5918Z" fill="#1A1413"/>
<path d="M49.3647 6.20312C49.7178 6.20312 50.1029 6.3681 50.456 6.73102C50.8091 7.06095 51.0016 7.42387 51.0016 7.7538C51.0016 7.81978 50.9696 7.88577 50.8733 7.98475C50.8091 8.08373 50.7128 8.28169 50.5844 8.57862C50.456 8.87556 50.1671 9.00753 49.6857 9.00753C49.2042 9.00753 48.8833 8.77657 48.6265 8.28168C48.4018 7.78678 48.2734 7.48985 48.2734 7.35788C48.2734 7.29189 48.2734 7.2259 48.3055 7.12692C48.3376 7.02794 48.3376 6.86299 48.3697 6.66503C48.3697 6.46708 48.4981 6.36809 48.7549 6.36809L49.1721 6.26911C49.2042 6.20313 49.2684 6.20312 49.3647 6.20312Z" fill="#1A1413"/>
<path d="M65.6697 20.8184L65.9586 20.5545C66.1512 20.5545 66.2475 20.4555 66.2796 20.2906C66.3117 20.1256 66.4401 19.9606 66.6968 19.8616C66.9215 19.7627 67.1462 19.5647 67.3388 19.2348C67.5313 18.9048 67.756 18.7729 67.9486 18.7729C68.0128 18.7729 68.1091 18.8389 68.2054 18.9708C68.3017 19.1028 68.3659 19.2018 68.3659 19.2678C68.3659 19.6967 68.2375 20.1256 67.9807 20.5875L67.9165 21.1154L67.7881 21.3793C67.5955 21.4783 67.4671 21.6103 67.4351 21.7093C67.3709 21.8412 67.2425 21.9732 66.9857 22.1382L66.7931 22.4021C66.5042 22.5011 66.3438 22.6331 66.2475 22.831C66.1512 23.029 66.0228 23.161 65.8623 23.161C65.7018 23.161 65.5093 23.3259 65.3167 23.5569C65.1883 23.6229 65.0278 23.6889 64.8673 23.7218L64.8352 23.9198C64.7069 24.0518 64.5143 24.1508 64.2254 24.2167C63.9686 24.2827 63.744 24.3817 63.6156 24.4477C63.4872 24.5137 63.3909 24.5467 63.3588 24.5467C63.1341 24.5467 62.9094 24.4807 62.7169 24.4147C62.5243 24.3487 62.2996 24.2497 62.107 24.2167C62.0428 24.1508 61.9786 24.0518 61.9786 23.9528C61.9786 23.8538 61.9145 23.7548 61.7861 23.5899C61.6577 23.4249 61.6256 23.2269 61.6256 22.996L61.6898 22.6331C61.6898 22.5671 61.6577 22.5341 61.5935 22.4351C61.5293 22.3691 61.4972 22.3031 61.4972 22.2372C61.4972 22.1712 61.4972 22.1382 61.5293 22.1382C61.5614 22.1052 61.5614 22.0722 61.5614 22.0392C61.5614 21.9732 61.5614 21.9072 61.5293 21.8082C61.4972 21.7422 61.4972 21.6763 61.4972 21.6103L61.5935 20.6535C61.5935 20.5875 61.5614 20.5545 61.5293 20.5545C61.4972 20.5545 61.4009 20.6205 61.2404 20.7525C61.112 20.8844 60.9515 20.9504 60.7911 20.9504C60.6948 21.0164 60.5985 21.1814 60.5343 21.4453C60.438 21.5773 60.3096 21.6763 60.1491 21.7752L60.085 21.8742C60.0529 21.9732 59.9566 22.0392 59.7961 22.1052C59.6356 22.1712 59.5072 22.2372 59.443 22.3361L59.2504 22.5341L58.8974 22.5011C58.8653 22.5341 58.8011 22.6331 58.6727 22.831C58.5764 23.029 58.4159 23.194 58.2554 23.3259L56.8111 24.5137C56.6506 24.6127 56.4259 24.7446 56.1692 24.9096L56.0408 25.0086C55.0458 25.7014 54.3397 26.0314 53.9224 26.0314C53.5693 26.0314 53.1842 25.9324 52.7348 25.7344C52.2855 25.5365 52.0287 25.3055 51.9966 25.0416L51.804 24.2497C51.6757 24.0848 51.6436 23.8208 51.6436 23.4909C51.6436 23.3259 51.6436 23.2269 51.6757 23.1939V23.095L51.6436 22.4681C51.6436 22.3031 51.7719 22.2372 51.9966 22.2372L51.9645 21.7093C51.9645 21.6433 52.0608 21.4453 52.2855 21.1154C52.5102 20.7525 52.6385 20.5545 52.7348 20.5215L52.9274 20.2576C52.9274 20.0926 52.9916 19.9276 53.1842 19.7627C53.3768 19.5977 53.5051 19.3997 53.6335 19.2348C53.7619 19.0698 53.9545 18.8389 54.2755 18.6409L54.8532 18.047C55.3026 17.5851 55.784 17.2222 56.2975 16.9583C56.3617 16.9253 56.5222 16.7933 56.7469 16.5623C56.9716 16.3314 57.2284 16.1664 57.5493 16.0674C57.8382 15.9685 58.1271 15.8035 58.4159 15.6385C58.7048 15.4736 58.9295 15.3746 59.0899 15.3746H59.2504C59.3146 15.3746 59.6356 15.2096 60.2454 14.8797H60.3738C60.438 14.8797 60.5343 14.9457 60.7269 15.0446H60.759L61.0478 14.8797C61.112 14.8467 61.1441 14.8467 61.2404 14.8467C62.0107 14.8467 62.4601 15.4076 62.5243 16.4963C62.5564 16.7273 62.6206 16.8593 62.7169 16.8593C62.8452 16.8593 63.0378 16.6283 63.2625 16.1664C63.4872 15.7045 64.0007 15.4736 64.739 15.4736C65.2846 15.4736 65.5414 15.8365 65.5414 16.5293C65.5414 17.3542 65.1883 18.146 64.4501 18.9048C64.3859 19.0038 64.3538 19.1358 64.3538 19.2348L64.097 20.0266V20.0596C64.097 20.1256 64.0328 20.2576 63.9365 20.3895C63.8402 20.5215 63.7761 20.6535 63.7761 20.7525L63.8081 21.2474L63.7439 21.7752C63.7439 22.0062 63.7761 22.1712 63.8723 22.2701C64.2896 22.1712 64.5464 22.0062 64.739 21.7423C64.9315 21.5113 65.0599 21.3793 65.1241 21.3463L65.3167 21.2803C65.413 21.1154 65.5414 20.9504 65.6697 20.8184ZM59.443 20.8184C59.5072 20.5215 59.6356 20.3235 59.8924 20.1586C60.1491 19.9936 60.3096 19.8616 60.3417 19.6967C60.5664 19.5317 60.9195 19.2018 61.3688 18.7399C61.8182 18.278 62.0428 17.981 62.0428 17.8821C62.0428 17.8491 62.0107 17.8161 61.9786 17.8161H61.9465L61.7861 17.915L61.4651 17.8821L61.112 17.915L60.8553 17.7831L60.5985 17.8161L60.2133 17.7501C60.0207 17.7501 59.8282 17.7831 59.6998 17.8821C59.5393 17.981 59.2825 18.047 58.8653 18.146C58.448 18.245 58.095 18.4099 57.774 18.6739C57.453 18.9378 57.1963 19.0368 57.0679 19.0368C56.9716 19.2348 56.6827 19.4987 56.1692 19.8616C55.8803 19.9606 55.6877 20.1916 55.5914 20.5215C55.2705 20.7855 55.11 20.9504 55.11 20.9834L54.9816 21.3133C54.8853 21.4123 54.7569 21.4783 54.5964 21.5443C54.4359 21.6103 54.3718 21.7423 54.3397 21.9402C54.3076 22.1712 54.2434 22.3361 54.0829 22.5341C53.9224 22.732 53.8582 22.864 53.8582 22.963C53.8582 23.5899 53.9866 23.9198 54.2113 23.9198C54.3076 23.9198 54.5322 23.8538 54.8532 23.7218C55.1742 23.5899 55.3667 23.4909 55.3988 23.4579C55.463 23.3919 55.5593 23.3589 55.6877 23.2929L56.0408 23.095C56.105 23.029 56.1371 22.996 56.2013 22.996C56.2655 22.996 56.3297 22.93 56.3938 22.864C56.458 22.798 56.5543 22.699 56.7148 22.6331C56.8753 22.5341 57.0037 22.4351 57.1 22.3031C57.3246 22.1712 57.6456 21.9732 58.1271 21.7093L58.5122 21.4123C58.8011 21.2804 58.9616 21.1814 59.0258 21.0824C59.122 20.9834 59.2504 20.9174 59.443 20.8184Z" fill="#1A1413"/>
<path d="M84.4463 22.0064H84.5105L84.703 22.0724C84.7351 22.0724 84.7672 22.0724 84.7672 22.0394C84.7672 21.8085 84.8635 21.6435 85.0561 21.4785C85.1203 21.2476 85.2487 21.0496 85.4734 20.9177C85.698 20.7857 86.0511 20.5877 86.5325 20.2908L87.014 19.8619L87.2387 19.7629L87.3992 19.5649C87.5275 19.4 87.6559 19.301 87.7843 19.301C87.9769 19.301 88.0732 19.367 88.0732 19.5319L87.9127 19.9279L87.9769 20.5547C87.9769 20.7857 87.9127 20.9836 87.7522 21.1816C87.5917 21.3796 87.3671 21.6105 87.014 21.9734L86.0511 23.0292L85.5376 23.2932C85.4092 23.3591 85.3129 23.4581 85.2166 23.5571L84.4784 24.184C84.4784 24.3489 84.4142 24.5139 84.3179 24.5799H84.029L83.8685 24.6459C83.7722 24.8768 83.5155 25.1408 83.0982 25.3717L82.8414 25.5697C82.7451 25.6357 82.681 25.6687 82.5847 25.6687L82.0711 25.6027L81.7181 25.6687C81.6218 25.6687 81.4934 25.6027 81.3008 25.5037C81.1403 25.4047 80.9477 25.3057 80.7873 25.2728C80.6268 25.2398 80.4021 24.9758 80.1132 24.5469C79.8565 24.118 79.696 23.8541 79.6639 23.7221C79.6639 23.6561 79.6318 23.5901 79.5676 23.4581C79.5034 23.3262 79.4713 23.2602 79.4713 23.2272C79.4713 23.1942 79.5355 23.0622 79.6318 22.8313V22.7983C79.6318 22.7653 79.5997 22.6663 79.5355 22.5343C79.4713 22.4023 79.4392 22.2044 79.4392 22.0064C79.4392 21.9075 79.4071 21.7425 79.3429 21.5775C79.4392 21.4785 79.5034 21.4126 79.5034 21.3466C79.5034 21.2806 79.4713 21.2146 79.4392 21.1156C79.4071 21.0166 79.375 20.9506 79.375 20.8847L79.4713 19.9279L79.4071 19.433L79.4392 18.9711C79.4392 18.7071 79.3429 18.5751 79.1182 18.5751C79.022 18.5751 78.8936 18.6411 78.7331 18.8061L78.6047 18.8391C78.2837 19.004 78.027 19.136 77.8986 19.268C77.7702 19.367 77.6097 19.433 77.4813 19.433C77.4171 19.499 77.2566 19.5979 77.0641 19.6309L76.9036 19.7299C76.8394 19.7959 76.7431 19.8619 76.6147 19.9609C76.6147 19.9938 76.39 20.2248 75.9086 20.6207C75.4271 21.0166 75.0099 21.3796 74.6568 21.7425C74.2717 22.0724 74.0149 22.2704 73.8544 22.3034C73.6939 22.3364 73.5976 22.5013 73.5976 22.7983C73.5976 22.8642 73.5013 22.9632 73.2767 23.0952C73.2446 23.0952 73.1162 23.2272 72.8915 23.5241C72.6989 23.3591 72.5705 23.2932 72.5705 23.2932C72.4101 23.2932 72.2817 23.5241 72.2175 23.92C72.1533 24.085 71.9286 24.184 71.6076 24.217C71.5755 24.217 71.5435 24.316 71.4793 24.5139L71.4151 24.5799H71.2225C71.1904 24.5799 71.1262 24.6459 70.9657 24.8109C70.8052 24.9758 70.6768 25.0418 70.5805 25.0748C70.4201 25.4377 70.2917 25.6027 70.1633 25.6027C70.0991 25.6027 70.0349 25.5697 69.9386 25.5367C69.8423 25.4707 69.7139 25.4377 69.5856 25.4047C69.4572 25.3717 69.2967 25.2068 69.1362 24.9428C68.9757 24.6789 68.8794 24.4479 68.8794 24.25C68.8794 22.8313 69.1362 22.0394 69.6818 21.9075L69.714 21.8415V21.6765C69.714 21.5115 69.7781 21.3796 69.9386 21.3136C70.0991 21.2476 70.2275 21.0826 70.388 20.8847C70.5485 20.6537 70.6448 20.5547 70.6768 20.5217H70.9336C70.9978 20.5217 70.9978 20.3898 70.9978 20.1258C70.9978 20.0598 71.0299 19.9608 71.0941 19.8949C71.1583 19.8289 71.1904 19.7299 71.1904 19.6309C71.1904 19.4989 71.2867 19.301 71.4472 19.037C71.6076 18.7731 71.7039 18.6081 71.7039 18.5421L71.6718 18.4762C71.3509 18.7731 71.1262 18.9381 70.9978 18.9711C70.8694 19.004 70.6768 19.169 70.4201 19.5319L70.1312 19.466C69.6177 19.8619 69.2646 20.0928 69.1683 20.1258C69.0399 20.1918 68.9115 20.3238 68.7511 20.5547C68.7511 20.6207 68.7189 20.6867 68.6227 20.7197C68.5264 20.7527 68.3659 20.8517 68.1412 21.0166H68.0449C67.724 21.0166 67.5635 20.7857 67.5635 20.3238L67.9486 19.235C68.0449 18.9051 68.3338 18.6081 68.7511 18.3442C69.1683 18.1132 69.5214 17.8823 69.8102 17.6513C70.0991 17.4204 70.388 17.3214 70.6768 17.3214L70.8052 17.1234C71.2225 16.9585 71.5114 16.6945 71.6718 16.3316C71.8323 15.9687 72.0249 15.8037 72.2817 15.8037C72.9878 15.8037 73.5013 16.0676 73.8544 16.5955C74.2075 17.1234 74.4 17.5193 74.4 17.8493L74.4321 18.3772C74.4321 18.5421 74.4 18.8061 74.3358 19.136C74.1754 19.367 74.1112 19.5319 74.1112 19.6639C74.1112 19.7629 74.1754 19.8289 74.3038 19.8289C74.3679 19.8289 74.4642 19.7629 74.5926 19.6639C74.721 19.5649 74.8494 19.466 75.0099 19.367C75.1704 19.268 75.2667 19.202 75.2667 19.136C75.395 18.8391 75.6197 18.6081 75.9086 18.5091C76.2295 18.3772 76.4221 18.2782 76.4863 18.2122L76.6789 18.0472L76.8394 17.7503C77.1924 17.5853 77.4171 17.4534 77.5134 17.3214C77.6097 17.1894 77.7702 17.0904 77.9628 17.0574C78.1553 17.0245 78.38 16.8925 78.6047 16.7275L78.8936 16.6615L79.1503 16.4966C79.1824 16.4636 79.2466 16.4306 79.375 16.3976C79.5034 16.3646 79.696 16.2986 79.9207 16.1996C80.1774 16.1006 80.3379 16.0677 80.4021 16.0677C81.044 16.0677 81.5576 16.3316 81.9106 16.8595C82.2958 17.3874 82.4563 17.8163 82.4563 18.1462L82.4242 18.4762L82.4884 19.004V19.07L82.3279 20.1258L82.36 20.4887C82.36 21.0826 82.2316 21.5115 81.9748 21.7425C81.9106 21.7755 81.8785 21.8415 81.8785 21.9404V22.1054L82.2637 22.9302C82.36 23.2272 82.4563 23.3591 82.5205 23.3591L83.1303 23.1942C83.2908 23.1282 83.4513 22.9962 83.5476 22.7983C83.6439 22.7323 83.8364 22.6003 84.0611 22.3364C84.1574 22.1054 84.2858 22.0064 84.4463 22.0064Z" fill="#1A1413"/>
<path d="M88.6507 23.9532L88.4902 22.9634C88.4902 22.8975 88.5223 22.7655 88.5865 22.6005C88.6507 22.6005 88.7149 22.5675 88.7791 22.5345L88.6828 22.1716C88.6828 21.7097 88.8112 21.3468 89.0359 21.0169C89.2926 20.6869 89.421 20.456 89.4531 20.357C89.4852 20.258 89.6457 19.8621 89.9988 19.2352C90.3197 18.6083 90.5765 18.1794 90.737 18.0145L90.8333 17.7505L90.9938 17.7175C91.2826 17.2226 91.6999 16.7937 92.2134 16.4308C92.3739 16.1339 92.5986 15.9029 92.8553 15.7379C93.1121 15.573 93.2726 15.441 93.3689 15.342C93.4652 15.243 93.5936 15.21 93.754 15.1771L93.8182 15.1441C94.1713 14.7811 94.4923 14.5832 94.749 14.5832C94.8453 14.4842 95.0058 14.3852 95.2626 14.2862H95.4552C95.5193 14.2862 95.6156 14.2532 95.6798 14.2202C95.744 14.1543 95.8403 14.1543 95.9045 14.1543C95.9687 14.1543 96.0971 14.2203 96.2897 14.3192C96.4823 14.1213 96.6427 14.0223 96.7711 14.0223C97.0279 14.0223 97.3168 14.1213 97.5735 14.3192C97.8303 14.5172 98.0229 14.7811 98.0871 15.0781C98.1513 15.375 98.2155 15.54 98.2797 15.606C98.3439 15.6719 98.376 15.705 98.4401 15.8039C98.5364 15.8039 98.6648 15.573 98.8253 15.0781L99.05 14.7811C99.403 14.3192 99.6277 13.7913 99.7561 13.1975C99.7882 13.1645 99.8203 13.0655 99.8524 12.8675C99.9166 12.6696 100.045 12.3726 100.238 11.9107C100.591 11.3828 100.879 10.8219 101.008 10.2611L101.233 9.93113C101.393 9.83215 101.457 9.70018 101.489 9.6012C101.489 9.46923 101.554 9.37025 101.586 9.27127C101.65 9.17229 101.714 9.04032 101.81 8.90835C101.907 8.74339 101.971 8.6444 102.003 8.6114C102.035 8.57841 102.131 8.38046 102.228 8.08352C102.324 7.78658 102.452 7.62162 102.581 7.58862C102.709 7.55563 102.869 7.48964 103.03 7.35767L103.062 7.22571L102.998 6.96175C102.998 6.79678 103.158 6.53283 103.479 6.13692C103.8 5.741 104.057 5.44407 104.185 5.18013C104.346 4.91618 104.571 4.55326 104.924 4.02536C105.277 3.49747 105.501 3.20053 105.662 3.06855L106.079 2.60666C106.272 2.30972 106.561 2.17773 106.914 2.17773C107.202 2.17773 107.491 2.34271 107.78 2.63965C108.069 2.93659 108.23 3.23353 108.23 3.53047C108.23 3.62945 108.165 3.8604 108.005 4.25632L107.973 4.48726C107.973 4.68522 107.909 4.94917 107.78 5.21311C107.652 5.51005 107.556 5.70801 107.523 5.87297L106.464 8.51243C106.336 8.57842 106.272 8.6114 106.24 8.6114C105.919 9.33725 105.662 9.73318 105.469 9.79917V10.1951C105.469 10.3271 105.373 10.426 105.212 10.492L105.148 10.525C105.052 11.0199 104.892 11.3828 104.731 11.5808C104.571 11.7787 104.41 12.0097 104.346 12.2407C104.282 12.4716 104.121 12.6036 103.961 12.6036C103.8 12.6036 103.704 12.8675 103.704 13.3624C103.64 13.6264 103.543 13.7584 103.319 13.7584C103.126 13.7584 102.998 13.9233 102.966 14.2533C102.902 14.5832 102.677 14.7811 102.228 14.7811C102.099 14.8471 102.035 14.9461 102.003 15.0451L102.163 15.54C102.163 15.606 101.939 15.9359 101.457 16.4638L101.297 16.9587C101.072 17.0577 100.879 17.7175 100.719 18.9383L100.494 20.258L100.526 20.7859L100.462 21.0498L100.687 21.8417L100.655 22.2706C100.655 22.4685 100.719 22.5675 100.879 22.5675C100.944 22.5675 101.136 22.4685 101.393 22.2046L101.65 22.1056C102.452 21.6767 102.934 21.2808 103.126 20.9179C103.19 20.8519 103.255 20.8189 103.383 20.7529C103.511 20.6869 103.608 20.6209 103.672 20.5549C103.736 20.456 103.768 20.39 103.832 20.357C104.603 19.8291 105.084 19.4002 105.309 19.0043C105.533 18.6083 105.758 18.3774 106.015 18.3114L106.175 18.1464C106.336 18.0145 106.464 17.9485 106.561 17.9485C106.785 17.9485 106.882 18.0145 106.882 18.1464L106.721 18.6743C106.849 19.0372 106.914 19.2352 106.914 19.2682C106.914 19.7301 106.721 19.9941 106.336 20.093C106.175 20.258 106.047 20.456 105.951 20.6869C105.854 20.9179 105.662 21.0498 105.341 21.0828C105.116 21.3798 104.924 21.5777 104.763 21.6767C104.603 21.7757 104.506 21.8747 104.506 21.9736V22.1386C104.41 22.3036 104.314 22.4026 104.25 22.4356L103.897 22.3696C103.832 22.5345 103.736 22.7325 103.576 22.9964C103.511 22.9305 103.447 22.9305 103.415 22.9305C103.255 22.9305 103.094 23.0294 102.998 23.2604C102.902 23.4913 102.805 23.5903 102.741 23.5903H102.324C102.26 23.6233 102.163 23.7223 102.035 23.8543C101.907 23.9862 101.65 24.0522 101.329 24.0522L100.751 24.1512C100.205 24.1512 99.6919 23.9862 99.2104 23.5903C98.729 23.2274 98.5043 22.8975 98.4722 22.6005C98.4401 22.3036 98.3438 21.9407 98.1513 21.5117L98.1192 20.7199C97.9908 19.8951 97.8303 19.4662 97.6377 19.4662L97.6056 19.7301L97.4451 19.7961C97.3809 20.192 97.2526 20.39 97.06 20.39C96.9958 20.423 96.8995 20.489 96.8032 20.5879L96.7069 20.6539C96.6427 20.6869 96.5785 20.7859 96.4822 20.9838C96.386 21.1818 96.1292 21.4458 95.7119 21.8087C95.5515 22.3036 95.391 22.5345 95.3268 22.5345L95.1021 22.3696H95.07C94.9737 22.3696 94.8774 22.5345 94.8132 22.8315C94.749 23.1284 94.6207 23.2934 94.4281 23.2934C94.3639 23.2934 94.3318 23.3924 94.2997 23.5573C94.2676 23.7223 94.1392 23.8543 93.9787 23.8873C93.8182 23.9203 93.6578 24.1182 93.4973 24.4151C93.3368 24.7121 93.2726 24.8771 93.2084 24.8771C93.1763 24.8771 93.1442 24.877 93.1121 24.8441L92.7912 24.91C92.727 25.009 92.6307 25.141 92.5344 25.339C92.4381 25.3719 92.3097 25.4379 92.2455 25.5039C91.8603 25.8998 91.3468 26.0978 90.7049 26.0978C90.2555 26.0978 89.9025 25.9988 89.6457 25.8009C89.3889 25.6029 89.2284 25.4379 89.1643 25.306C89.1001 25.174 89.0038 24.976 88.8754 24.7781C88.7791 24.5141 88.7149 24.2502 88.6507 23.9532ZM96.1934 19.5651L96.3218 19.3012C96.5464 19.2352 96.6748 19.0373 96.739 18.7073C96.8353 18.6413 97.0921 18.2784 97.5093 17.7175C97.9266 17.1237 98.1192 16.7937 98.1192 16.7277C97.9908 16.5958 97.8624 16.5298 97.7019 16.5298C97.6698 16.5298 97.6056 16.5628 97.4773 16.5958C97.3489 16.6288 97.2205 16.6947 97.0921 16.6947C96.9637 16.7277 96.8353 16.7607 96.6748 16.8597L96.1934 16.7937C96.065 16.7937 95.744 16.9917 95.2626 17.3546L94.8453 17.2886C94.7811 17.2886 94.6528 17.4536 94.4602 17.7835L93.4973 18.5753H93.401C93.2405 18.5753 93.1121 18.7403 93.0479 19.0702C92.8232 19.3672 92.6307 19.5651 92.4381 19.6641C92.2455 19.7631 92.1171 19.9281 92.0529 20.126V20.39C91.6999 20.7859 91.5394 21.0828 91.5394 21.3138C91.2826 21.5777 91.1221 21.8417 91.0258 22.1386C90.9296 22.4355 90.8654 22.6995 90.737 22.8975C90.8012 23.0624 90.8333 23.2934 90.8333 23.5573C90.8654 23.8213 90.9938 23.9532 91.2184 23.9532C91.5715 23.9532 91.9887 23.7223 92.4381 23.2934C92.4702 23.2604 92.5665 23.1944 92.7591 23.0624C92.9516 22.9635 93.2084 22.7325 93.5294 22.3696C93.8503 22.0396 94.0429 21.8417 94.075 21.8417C94.2034 21.7097 94.2676 21.6437 94.2997 21.6437L94.4602 21.4787C94.4602 21.4128 94.5244 21.3798 94.6207 21.3138C94.7169 21.2478 94.8774 21.1158 95.0379 20.9179C95.1984 20.7199 95.3589 20.5879 95.4552 20.5549C95.5514 20.5219 95.6157 20.456 95.6477 20.39C95.6798 20.324 95.744 20.258 95.8403 20.192C95.9366 20.126 95.9687 20.06 95.9687 19.9941L96.0008 19.7631L96.1934 19.5651ZM102.709 11.7128L102.516 12.2737C102.677 12.2407 102.837 12.0757 102.934 11.7458C103.319 11.1849 103.576 10.8549 103.704 10.723C103.864 10.723 103.993 10.624 104.089 10.393C104.185 10.1951 104.314 9.96412 104.538 9.76617C104.538 9.66719 104.635 9.50223 104.827 9.23828C105.02 8.97434 105.148 8.80937 105.212 8.67739C105.277 8.57842 105.373 8.41345 105.566 8.24849C105.726 8.08352 105.919 7.75359 106.047 7.32468C106.207 6.89577 106.336 6.63182 106.464 6.53284C106.561 6.43386 106.625 6.2689 106.625 6.00496C106.625 5.64203 106.593 5.44407 106.561 5.44407C106.464 5.44407 106.368 5.51006 106.304 5.67502C106.24 5.83999 106.111 6.00496 105.951 6.23591L105.309 7.32468C105.052 7.75359 104.892 8.11652 104.827 8.38047C104.731 8.64441 104.667 8.77637 104.538 8.84236C104.41 8.90835 104.314 9.00734 104.153 9.2053L103.897 9.46924C103.832 9.6342 103.8 9.79917 103.736 10.0301L103.576 10.1951V10.558C103.576 10.723 103.479 10.8879 103.287 11.0199C103.094 11.1519 102.998 11.2509 102.998 11.2839L102.709 11.7128Z" fill="#1A1413"/>
<path d="M108.84 16.4311L109.128 16.3651L109.225 16.1012C109.835 15.7382 110.284 15.3753 110.541 15.0454C110.573 14.9794 110.637 14.9464 110.701 14.8804C110.797 14.8144 110.894 14.7485 110.99 14.6165C111.471 14.1216 112.017 13.8906 112.659 13.8906C113.397 13.8906 113.814 14.3525 113.879 15.3093L113.975 15.6063C114.071 15.7712 114.232 16.1672 114.392 16.695C114.585 17.2559 114.649 17.5859 114.649 17.7178C114.649 18.0808 114.553 18.4107 114.328 18.7736C114.168 18.8726 113.718 19.3345 113.076 20.2253L112.884 20.3573C112.787 20.5883 112.659 20.8192 112.499 21.0502C112.242 21.1491 112.113 21.2481 112.113 21.3471V21.677C112.113 21.71 112.081 21.743 112.017 21.842C111.953 21.908 111.889 22.0729 111.792 22.2709L111.632 22.5019C111.568 22.5679 111.536 22.6668 111.471 22.8318C111.407 22.9968 111.343 23.1287 111.247 23.2607C111.15 23.3927 111.118 23.4917 111.118 23.5577C111.118 23.7556 111.375 23.8546 111.857 23.8546C111.889 23.8546 111.985 23.8216 112.145 23.7556L112.402 23.8216C112.434 23.8216 112.499 23.7886 112.595 23.6896C112.691 23.5906 112.852 23.5247 113.044 23.4917C113.269 23.4257 113.429 23.3597 113.59 23.2607C113.75 23.1617 113.943 23.0627 114.168 22.9968C114.392 22.9308 114.585 22.7988 114.809 22.6338C115.002 22.4689 115.195 22.3369 115.387 22.2709C115.58 22.2049 115.772 22.073 115.933 21.908C116.093 21.743 116.286 21.5781 116.511 21.4461C116.735 21.3141 117.056 20.9842 117.538 20.5223C117.827 20.2913 118.051 20.1263 118.147 20.1263C118.18 20.1263 118.276 19.9614 118.468 19.6315C118.661 19.3015 118.886 19.1036 119.142 19.1036C119.399 19.1036 119.528 19.2355 119.528 19.4995C119.528 19.6314 119.463 19.7634 119.335 19.8954V19.9944L119.367 20.2913C119.399 20.3243 119.399 20.3903 119.399 20.4563C119.399 20.5223 119.335 20.5883 119.271 20.6872C119.175 20.7862 119.11 20.9182 119.078 21.0832C119.046 21.2481 118.918 21.3471 118.725 21.4131C118.661 21.71 118.565 21.842 118.436 21.908C118.308 21.941 118.147 22.0729 117.923 22.3039C117.698 22.5348 117.409 22.7658 117.024 23.0628C116.639 23.3597 116.382 23.5906 116.222 23.7556C116.061 23.9206 115.965 23.9866 115.933 23.9866C115.901 23.9866 115.869 23.9536 115.772 23.9206C115.708 23.8546 115.644 23.8546 115.612 23.8546C115.548 23.8546 115.483 23.9536 115.451 24.1185L115.387 24.3165C115.227 24.4155 115.13 24.4815 115.098 24.4815L115.002 24.4485H114.938C114.777 24.4485 114.713 24.5144 114.713 24.6134L114.809 24.8114V24.8444C114.809 25.0093 114.713 25.1083 114.521 25.1083C114.392 25.1083 113.975 25.3393 113.301 25.8342L112.755 25.9331L112.306 26.1971C112.145 26.0981 112.049 26.0651 112.017 26.0651L111.728 26.1641L111.183 26.1971C111.183 26.1971 110.926 26.0651 110.509 25.8012C110.059 25.5372 109.802 25.2733 109.706 25.0423C109.61 24.7784 109.514 24.5144 109.385 24.2505C109.257 23.9866 109.193 23.7886 109.193 23.6896C109.193 23.0627 109.257 22.6338 109.353 22.3699C109.449 22.1059 109.514 21.908 109.546 21.776C109.578 21.644 109.642 21.5121 109.77 21.3471C109.899 21.1821 109.995 20.9512 110.059 20.6212C110.412 19.8624 110.669 19.4005 110.797 19.2355C110.926 19.0706 111.054 18.8726 111.118 18.6087L111.375 18.2787C111.407 18.2457 111.439 18.1468 111.471 17.9818C111.536 17.8168 111.568 17.7178 111.664 17.6848C111.76 17.5199 111.824 17.3879 111.824 17.3549C111.824 16.992 111.664 16.794 111.343 16.794C111.279 16.794 111.215 16.86 111.15 16.992C111.086 17.124 110.894 17.2559 110.637 17.3879C110.38 17.5199 110.188 17.6189 110.156 17.6848C110.091 17.7508 109.963 17.8168 109.738 17.9158C109.514 18.0148 109.353 18.1798 109.193 18.3777L108.872 18.5427C108.775 18.7736 108.679 18.9386 108.615 18.9386C108.551 18.9716 108.294 19.0376 107.909 19.1366C107.877 19.1366 107.812 19.2355 107.716 19.3675C107.62 19.4995 107.459 19.5655 107.299 19.5655C107.138 19.7304 107.01 19.8954 106.85 20.0934C106.785 20.0934 106.657 20.1594 106.464 20.2583L106.079 20.3573C105.983 20.4233 105.855 20.5553 105.758 20.7202C105.63 20.8852 105.405 20.9842 105.084 20.9842C104.892 20.9842 104.795 20.8192 104.795 20.5223C104.795 19.8954 105.02 19.4005 105.437 19.0046C105.855 18.6416 106.176 18.4437 106.4 18.4107C106.625 18.3777 106.721 18.3117 106.785 18.1797C106.85 18.0478 106.946 17.9488 107.171 17.8498C107.363 17.7508 107.588 17.5859 107.845 17.2889C108.101 16.992 108.39 16.794 108.679 16.695L108.84 16.4311Z" fill="#1A1413"/>
<path d="M133.394 20.8184L133.683 20.5545C133.876 20.5545 133.972 20.4555 134.004 20.2906C134.036 20.1256 134.165 19.9606 134.421 19.8616C134.646 19.7627 134.871 19.5647 135.063 19.2348C135.256 18.9048 135.481 18.7729 135.673 18.7729C135.737 18.7729 135.834 18.8389 135.93 18.9708C136.026 19.1028 136.09 19.2018 136.09 19.2678C136.09 19.6967 135.962 20.1256 135.705 20.5875L135.641 21.1154L135.513 21.3793C135.32 21.4783 135.192 21.6103 135.16 21.7093C135.095 21.8412 134.967 21.9732 134.71 22.1382L134.518 22.4021C134.229 22.5011 134.068 22.6331 133.972 22.831C133.876 23.029 133.747 23.161 133.587 23.161C133.426 23.194 133.234 23.3259 133.041 23.5569C132.913 23.6229 132.752 23.6889 132.592 23.7218L132.56 23.9198C132.431 24.0518 132.239 24.1508 131.982 24.2167C131.725 24.2827 131.501 24.3817 131.372 24.4477C131.244 24.5137 131.147 24.5467 131.115 24.5467C130.891 24.5467 130.666 24.4807 130.473 24.4147C130.281 24.3157 130.056 24.2497 129.864 24.2167C129.799 24.1508 129.735 24.0518 129.735 23.9528C129.735 23.8538 129.671 23.7548 129.543 23.5899C129.446 23.4249 129.382 23.2269 129.382 22.996L129.446 22.6331C129.446 22.5671 129.414 22.5341 129.35 22.4351C129.286 22.3691 129.254 22.3031 129.254 22.2372C129.254 22.1712 129.254 22.1382 129.286 22.1382C129.318 22.1052 129.318 22.0722 129.318 22.0392C129.318 21.9732 129.318 21.9072 129.286 21.8082C129.254 21.7422 129.254 21.6763 129.254 21.6103L129.35 20.6535C129.35 20.5875 129.318 20.5545 129.286 20.5545C129.222 20.5545 129.157 20.6205 129.029 20.7525C128.901 20.8844 128.74 20.9504 128.58 20.9504C128.483 21.0164 128.387 21.1814 128.323 21.4453C128.227 21.5773 128.098 21.6763 127.938 21.7752L127.874 21.8742C127.842 21.9732 127.745 22.0392 127.585 22.1052C127.424 22.1712 127.296 22.2372 127.232 22.3361L127.039 22.5341L126.686 22.5011C126.654 22.5341 126.59 22.6331 126.461 22.831C126.365 23.029 126.205 23.194 126.044 23.3259L124.6 24.5137C124.439 24.6127 124.215 24.7446 123.958 24.9096L123.862 25.0086C122.867 25.7014 122.16 26.0314 121.743 26.0314C121.422 26.0314 121.005 25.9324 120.556 25.7344C120.106 25.5365 119.85 25.3055 119.817 25.0416L119.625 24.2497C119.529 24.0848 119.464 23.8208 119.464 23.4909C119.464 23.3259 119.464 23.2269 119.496 23.1939V23.095L119.464 22.4681C119.464 22.3031 119.593 22.2372 119.817 22.2372L119.785 21.7093C119.785 21.6433 119.882 21.4453 120.106 21.1154C120.331 20.7525 120.491 20.5545 120.556 20.5215L120.748 20.2576C120.748 20.0926 120.812 19.9276 121.005 19.7627C121.198 19.5977 121.326 19.3997 121.454 19.2348C121.551 19.0698 121.775 18.8389 122.096 18.6409L122.674 18.047C123.123 17.5851 123.573 17.2222 124.118 16.9583C124.183 16.9253 124.343 16.7933 124.568 16.5623C124.792 16.3314 125.049 16.1664 125.37 16.0674C125.659 15.9685 125.948 15.8035 126.237 15.6385C126.526 15.4736 126.75 15.3746 126.911 15.3746H127.071C127.135 15.3746 127.456 15.2096 128.066 14.8797H128.162C128.227 14.8797 128.323 14.9457 128.516 15.0446H128.548L128.837 14.8797C128.901 14.8467 128.933 14.8467 129.029 14.8467C129.799 14.8467 130.249 15.4076 130.313 16.4963C130.345 16.7273 130.409 16.8593 130.506 16.8593C130.634 16.8593 130.827 16.6283 131.051 16.1664C131.276 15.7045 131.789 15.4736 132.528 15.4736C133.073 15.4736 133.33 15.8365 133.33 16.5293C133.33 17.3542 132.977 18.146 132.239 18.9048C132.175 19.0038 132.142 19.1358 132.142 19.2348L131.886 20.0266V20.0596C131.886 20.1256 131.821 20.2576 131.725 20.3895C131.629 20.5215 131.565 20.6535 131.565 20.7525L131.597 21.2474L131.533 21.7752C131.533 22.0062 131.565 22.1712 131.661 22.2701C132.078 22.1712 132.367 22.0062 132.528 21.7423C132.72 21.5113 132.849 21.3793 132.913 21.3463L133.105 21.2803C133.105 21.1154 133.234 20.9504 133.394 20.8184ZM127.135 20.8184C127.2 20.5215 127.328 20.3235 127.585 20.1586C127.842 19.9936 128.002 19.8616 128.034 19.6967C128.259 19.5317 128.612 19.2018 129.061 18.7399C129.511 18.278 129.735 17.981 129.735 17.8821C129.735 17.8491 129.703 17.8161 129.671 17.8161H129.639L129.478 17.915L129.157 17.8821L128.804 17.915L128.548 17.7831L128.291 17.8161L127.906 17.7501C127.713 17.7501 127.521 17.7831 127.392 17.8821C127.264 17.981 126.975 18.047 126.558 18.146C126.14 18.245 125.787 18.4099 125.466 18.6739C125.145 18.9378 124.889 19.0368 124.76 19.0368C124.664 19.2348 124.375 19.4987 123.862 19.8616C123.573 19.9606 123.38 20.1916 123.284 20.5215C122.963 20.7855 122.802 20.9504 122.802 20.9834L122.674 21.3133C122.578 21.4123 122.449 21.4783 122.289 21.5443C122.128 21.6103 122.064 21.7423 122.032 21.9402C122 22.1712 121.936 22.3361 121.775 22.5341C121.615 22.699 121.551 22.864 121.551 22.963C121.551 23.5899 121.679 23.9198 121.904 23.9198C122 23.9198 122.225 23.8538 122.546 23.7218C122.867 23.5899 123.059 23.4909 123.091 23.4579C123.155 23.3919 123.252 23.3589 123.38 23.2929L123.733 23.095C123.797 23.029 123.829 22.996 123.894 22.996C123.958 22.996 124.022 22.93 124.086 22.864C124.15 22.798 124.247 22.699 124.407 22.6331C124.568 22.5341 124.696 22.4351 124.792 22.3031C125.017 22.1712 125.338 21.9732 125.819 21.7093L126.205 21.4123C126.461 21.2804 126.654 21.1814 126.718 21.0824C126.814 20.9834 126.943 20.9174 127.135 20.8184Z" fill="#1A1413"/>
<path d="M150.662 15.342L150.886 15.111V14.946C150.886 14.8801 150.951 14.7481 151.079 14.4841C151.207 14.2202 151.336 14.0552 151.432 13.9562C151.528 13.8573 151.625 13.7583 151.657 13.6263C151.721 13.4943 151.817 13.4284 152.01 13.3954C151.946 13.2634 151.881 13.1644 151.881 13.0984L151.817 12.7355C151.817 12.7025 151.849 12.6695 151.946 12.5705L152.042 12.4056C152.106 12.3396 152.202 12.3066 152.299 12.2076C152.395 12.1416 152.459 12.0426 152.459 11.8777C152.459 11.7457 152.555 11.5477 152.716 11.3168C152.876 11.0858 153.005 10.9539 153.101 10.9539C153.197 10.9539 153.262 10.9209 153.326 10.8879C153.39 10.8219 153.454 10.8219 153.486 10.8219C153.55 10.8219 153.615 10.8879 153.679 10.9869C153.743 11.0858 153.775 11.1518 153.807 11.1518C153.903 11.1518 153.968 11.0858 153.968 10.9539C153.968 10.8879 153.903 10.8549 153.807 10.8219C153.711 10.7889 153.615 10.7229 153.583 10.6239C153.55 10.525 153.518 10.426 153.486 10.36C153.454 10.294 153.422 10.228 153.422 10.228C153.422 10.129 153.486 9.99708 153.583 9.86511C153.711 9.73313 153.807 9.66714 153.903 9.66714C154 9.66714 154.096 9.60115 154.192 9.50217C154.032 9.43618 153.968 9.33721 153.968 9.23823C154.128 9.07326 154.257 8.84232 154.417 8.54538C154.578 8.24844 154.738 8.08347 154.898 8.08347C154.931 8.08347 154.995 8.11647 155.091 8.14946C155.123 8.08347 155.187 7.91849 155.284 7.62156L155.155 7.22565C155.38 6.89572 155.573 6.66475 155.669 6.63176L155.829 6.53279C155.893 6.16986 156.214 5.87293 156.728 5.60898C157.402 4.88313 157.787 4.52021 157.948 4.52021C157.98 4.52021 158.012 4.55319 158.108 4.65217L158.301 4.5862C158.365 4.5862 158.397 4.61918 158.397 4.71816C157.98 5.11408 157.787 5.31205 157.787 5.34504H157.819C157.851 5.31205 157.916 5.27906 157.948 5.24607C158.012 5.18008 158.108 5.11408 158.237 4.9821C158.237 5.04809 158.269 5.04809 158.301 5.04809C158.429 4.88313 158.525 4.68517 158.525 4.48721C158.525 4.45421 158.461 4.42122 158.301 4.32224L158.269 4.22327C158.269 4.15728 158.493 3.89333 158.943 3.49741C159.392 3.10149 159.873 2.73859 160.387 2.44165L160.58 2.21069C160.644 2.14471 160.708 2.11172 160.772 2.11172C160.868 2.11172 161.029 2.17769 161.221 2.30967L161.286 2.27668C161.254 2.2107 161.254 2.11171 161.254 1.97974C161.254 1.91375 161.318 1.84776 161.414 1.81477C161.542 1.61681 161.799 1.45185 162.216 1.31987C162.634 1.1879 162.923 1.05592 163.051 0.923951L163.436 0.758985C163.629 0.725992 163.821 0.693003 163.95 0.66001C164.11 0.594023 164.271 0.594019 164.463 0.594019C164.495 0.594019 164.592 0.561038 164.752 0.462059C164.913 0.363079 165.041 0.330078 165.105 0.330078C165.169 0.330078 165.33 0.429054 165.522 0.594019C165.522 0.627012 165.555 0.627025 165.587 0.627025L165.843 0.462059H165.875C166.036 0.627025 166.229 0.79199 166.453 0.956956C166.967 1.35287 167.256 1.84776 167.256 2.40864L167.159 3.23347L167.191 3.89333C167.191 4.12429 167.095 4.32224 166.903 4.48721C166.806 5.08108 166.71 5.47702 166.582 5.74096C166.453 6.00491 166.325 6.33483 166.261 6.76374C166.164 7.19265 165.811 7.81952 165.169 8.61135C165.169 8.64434 165.105 8.74332 164.945 8.94128C164.784 9.13924 164.592 9.50217 164.367 9.99707C164.014 10.393 163.789 10.6899 163.693 10.9209C163.597 11.1518 163.436 11.3168 163.147 11.4158H163.083L163.147 11.8447C162.666 12.6365 162.216 13.0324 161.735 13.0324C161.446 13.0324 161.157 12.9005 160.901 12.6365C160.644 12.3726 160.483 12.1086 160.483 11.8447C160.483 11.2178 161.189 10.459 162.634 9.53518C162.666 9.53518 162.698 9.53517 162.794 9.56816L162.955 9.30422C162.891 9.20524 162.891 9.13924 162.891 9.10625C162.891 8.94128 163.083 8.71034 163.468 8.47939C163.629 8.11647 163.821 7.91851 164.046 7.88552L164.784 6.69775L164.848 6.4998V6.20285C164.848 6.13687 164.977 6.03789 165.234 5.87292L165.266 5.80693V5.41103C165.266 5.24607 165.362 5.11409 165.555 5.01511C165.619 4.94912 165.651 4.75116 165.715 4.38823C165.779 4.02531 165.875 3.72838 166.036 3.43144C165.972 2.83757 165.908 2.44164 165.811 2.30967C165.715 2.17769 165.555 2.11172 165.362 2.11172C165.201 2.11172 164.88 2.2107 164.463 2.44165C164.046 2.6726 163.789 2.77158 163.661 2.77158C163.597 2.77158 163.565 2.73858 163.5 2.70559C163.436 2.6726 163.404 2.6396 163.34 2.6396C163.276 2.6396 163.211 2.70558 163.147 2.83755C163.083 2.96952 163.019 3.06851 162.923 3.06851C162.826 3.1015 162.73 3.1675 162.602 3.26648C162.473 3.36546 162.281 3.49743 162.056 3.59641L161.767 3.99231L161.446 4.22327C161.414 4.48721 161.254 4.61919 160.965 4.61919C160.901 4.61919 160.804 4.78416 160.644 5.0811L160.483 5.24607H160.194L160.162 5.41103V5.60898C160.162 5.67497 160.13 5.74095 160.034 5.80693L159.328 6.59878L159.199 6.66477H159.039L158.975 6.69775C158.943 7.15966 158.814 7.39061 158.59 7.42361C158.59 7.58857 158.397 7.81952 158.044 8.08347L157.883 8.28142H157.627L157.595 8.31442C157.691 8.38041 157.723 8.4464 157.723 8.47939C157.723 8.54538 157.659 8.71034 157.498 8.9083C157.338 9.13925 157.242 9.20523 157.177 9.17224C157.113 9.53516 157.017 9.83211 156.824 10.129L156.664 10.426C156.6 10.5579 156.503 10.6569 156.439 10.7229V10.8879C156.439 11.2178 156.118 11.5148 155.508 11.8117L155.605 12.3066C155.54 12.4056 155.444 12.5705 155.316 12.7685L155.155 13.1314C155.091 13.3624 154.995 13.4943 154.898 13.5603C154.866 13.6593 154.802 13.7913 154.738 13.8573C154.642 13.9562 154.61 14.0222 154.61 14.0882L154.642 14.3522C154.449 14.7151 154.353 14.946 154.321 15.111C154.289 15.276 154.224 15.4079 154.128 15.5399C154.032 15.6719 153.968 15.8039 153.903 15.9688C153.839 16.1338 153.743 16.2988 153.55 16.4637C153.39 17.0246 153.326 17.3216 153.326 17.3875L153.069 17.6185C153.069 17.6515 153.037 17.7505 152.973 17.9154L152.941 18.0804V18.3443C152.941 18.5093 152.78 18.7073 152.459 18.9382C152.62 19.0042 152.684 19.1032 152.684 19.2351C152.684 19.5321 152.62 19.763 152.523 19.895C152.427 20.06 152.331 20.225 152.267 20.3569C152.202 20.5219 152.106 20.7198 151.978 20.9838C152.106 21.0828 152.17 21.1817 152.17 21.3137L152.01 22.6005L152.138 22.9634C152.106 22.9964 152.042 23.0294 151.881 23.0624C151.914 23.2273 151.978 23.3593 152.106 23.4583C152.234 23.5572 152.427 23.8872 152.684 24.4151C152.748 24.4811 152.844 24.4811 153.005 24.4811C153.165 24.4811 153.262 24.4811 153.326 24.4481C153.39 24.4151 153.583 24.3821 153.807 24.3491C154.064 24.3161 154.353 24.1841 154.61 23.9862H154.898C155.187 23.9862 155.412 23.8872 155.54 23.6562C155.669 23.4253 155.797 23.3263 155.893 23.3263C155.99 23.3263 156.182 23.2603 156.439 23.1613H156.535C156.6 23.0624 156.632 22.9964 156.696 22.9304C156.76 22.8974 156.856 22.7654 157.017 22.5675C157.177 22.3695 157.306 22.2705 157.434 22.2705C157.883 21.9736 158.204 21.7096 158.461 21.4787C158.493 21.4457 158.557 21.4457 158.686 21.4127C158.782 21.4127 158.878 21.3467 158.943 21.2147C159.007 21.1158 159.296 20.8188 159.777 20.3899C160.291 19.961 160.58 19.6311 160.676 19.3671C160.772 19.1032 160.901 19.0042 161.029 19.0042C161.093 19.0042 161.157 19.0042 161.286 19.0372H161.318C161.382 19.0372 161.414 18.9712 161.414 18.8722C161.446 18.7733 161.703 18.5423 162.184 18.2454C162.184 17.9814 162.409 17.7505 162.762 17.5855L163.404 16.9256L163.693 16.9586C163.757 16.8926 163.821 16.7937 163.821 16.6287C163.821 16.4637 163.918 16.3318 164.11 16.2658H164.271L164.367 16.1998C164.463 15.7709 164.592 15.5729 164.784 15.5729H164.945C165.041 15.5729 165.105 15.4409 165.105 15.21C165.105 14.979 165.362 14.7811 165.908 14.6821L166.293 14.4841C166.325 14.4512 166.389 14.4182 166.453 14.4182C166.774 14.4182 166.935 14.6821 166.935 15.21C166.935 15.342 166.87 15.4739 166.774 15.5399L166.517 15.7709L166.485 16.1008L165.811 16.7277C165.715 16.8267 165.651 16.9256 165.619 17.0906C165.619 17.2556 165.555 17.3216 165.522 17.3216C165.49 17.3875 165.394 17.4535 165.298 17.4865C165.169 17.5195 165.105 17.5855 165.073 17.6845C164.913 18.1134 164.624 18.3773 164.239 18.4433C164.014 18.9382 163.821 19.2351 163.629 19.3341C163.436 19.4331 163.34 19.5321 163.308 19.6311C163.244 19.961 163.083 20.126 162.794 20.093C162.313 20.5549 162.024 20.9178 161.896 21.1818C161.896 21.2147 161.896 21.2147 161.863 21.2147L161.607 21.1818C161.575 21.2147 161.51 21.2807 161.414 21.4127C161.318 21.5447 161.157 21.6107 160.997 21.6436C160.804 21.6436 160.676 21.7756 160.612 21.9736C160.547 22.2045 160.451 22.3035 160.387 22.3695C160.323 22.4355 160.259 22.5015 160.162 22.6334C160.098 22.7654 160.002 22.8314 159.938 22.8314C159.841 22.8314 159.745 22.7324 159.681 22.5015C159.585 22.5675 159.488 22.6664 159.392 22.7984L159.488 23.0624C159.488 23.1284 159.456 23.1613 159.424 23.1943C159.36 23.2273 159.296 23.3593 159.167 23.5573C159.039 23.7882 158.718 23.9202 158.237 23.9862C158.204 23.9862 158.172 24.0851 158.076 24.2501C158.012 24.4151 157.819 24.5141 157.562 24.5471C157.306 24.943 157.081 25.1409 156.921 25.1409L156.118 25.4049C155.99 25.4049 155.861 25.4049 155.765 25.3719C155.701 25.5369 155.605 25.6358 155.508 25.6358L155.252 25.7018C155.155 25.8338 155.059 25.8998 154.931 25.8998C154.77 25.8998 154.674 25.8338 154.674 25.7348C154.674 25.7018 154.674 25.6688 154.706 25.6358V25.5698C154.706 25.5039 154.674 25.4709 154.642 25.4709C154.642 26.0317 154.481 26.2957 154.224 26.2957C154.16 26.2957 154.032 26.2297 153.807 26.1307H153.775L153.422 26.3287C153.39 26.3617 153.358 26.3617 153.262 26.3617C152.78 26.3617 152.331 26.1967 151.881 25.9328H151.753C151.368 25.9328 151.079 25.7018 150.854 25.2399L150.822 25.1739C150.533 25.1079 150.341 24.91 150.309 24.58C150.244 24.5141 150.148 24.3821 149.924 24.1841C149.891 24.0192 149.827 23.8542 149.763 23.6892C149.667 23.5243 149.635 23.4583 149.635 23.4253L149.217 21.9736C149.153 21.5447 149.153 21.2148 149.153 20.9178L149.121 20.7528V20.6539L149.185 20.126L149.153 19.928C149.153 19.829 149.282 19.4331 149.506 18.7733C149.731 18.1134 149.891 17.6185 149.956 17.2886C150.02 16.9586 150.084 16.7607 150.116 16.6947L150.662 15.342Z" fill="#1A1413"/>
<path d="M180.35 20.8184L180.639 20.5545C180.832 20.5545 180.928 20.4555 180.96 20.2906C180.992 20.1256 181.121 19.9606 181.378 19.8616C181.634 19.7627 181.827 19.5647 182.019 19.2348C182.212 18.9048 182.437 18.7729 182.629 18.7729C182.694 18.7729 182.79 18.8389 182.886 18.9708C182.982 19.1028 183.047 19.2018 183.047 19.2678C183.047 19.6967 182.918 20.1256 182.661 20.5875L182.597 21.1154L182.469 21.3793C182.276 21.4783 182.148 21.6103 182.116 21.7093C182.052 21.8412 181.923 21.9732 181.666 22.1382L181.474 22.4021C181.185 22.5011 181.024 22.6331 180.928 22.831C180.832 23.029 180.704 23.161 180.543 23.161C180.383 23.194 180.19 23.3259 179.997 23.5569C179.869 23.6229 179.709 23.6889 179.548 23.7218L179.516 23.9198C179.388 24.0518 179.195 24.1508 178.938 24.2167C178.681 24.2827 178.457 24.3817 178.328 24.4477C178.2 24.5137 178.104 24.5467 178.072 24.5467C177.847 24.5467 177.622 24.4807 177.43 24.4147C177.237 24.3487 177.012 24.2497 176.82 24.2167C176.756 24.1508 176.691 24.0518 176.691 23.9528C176.691 23.8538 176.627 23.7548 176.499 23.5899C176.403 23.4249 176.338 23.2269 176.338 22.996L176.403 22.6331C176.403 22.5671 176.37 22.5341 176.306 22.4351C176.242 22.3691 176.21 22.3031 176.21 22.2372C176.21 22.1712 176.21 22.1382 176.242 22.1382C176.274 22.1052 176.274 22.0722 176.274 22.0392C176.274 21.9732 176.274 21.9072 176.242 21.8082C176.21 21.7422 176.21 21.6763 176.21 21.6103L176.306 20.6535C176.306 20.5875 176.274 20.5545 176.242 20.5545C176.21 20.5545 176.114 20.6205 175.985 20.7525C175.857 20.8844 175.696 20.9504 175.536 20.9504C175.44 21.0164 175.343 21.1814 175.279 21.4453C175.183 21.5773 175.055 21.6763 174.894 21.7752L174.83 21.8742C174.798 21.9732 174.701 22.0392 174.541 22.1052C174.38 22.1712 174.252 22.2372 174.22 22.3361L174.027 22.5341L173.674 22.5011C173.642 22.5341 173.578 22.6331 173.45 22.831C173.353 23.029 173.193 23.194 173.032 23.3259L171.588 24.5137C171.428 24.6127 171.203 24.7446 170.946 24.9096L170.85 25.0086C169.855 25.7014 169.149 26.0314 168.732 26.0314C168.411 26.0314 167.993 25.9324 167.544 25.7344C167.095 25.5365 166.838 25.3055 166.806 25.0416L166.613 24.2497C166.517 24.0848 166.453 23.8208 166.453 23.4909C166.453 23.3259 166.453 23.2269 166.485 23.1939V23.095L166.453 22.4681C166.453 22.3031 166.581 22.2372 166.806 22.2372L166.774 21.7093C166.774 21.6433 166.87 21.4453 167.095 21.1154C167.319 20.7525 167.448 20.5545 167.544 20.5215L167.736 20.2576C167.736 20.0926 167.801 19.9276 167.993 19.7627C168.186 19.5977 168.314 19.3997 168.443 19.2348C168.539 19.0698 168.764 18.8389 169.085 18.6409L169.662 18.047C170.112 17.5851 170.561 17.2222 171.107 16.9583C171.171 16.9253 171.331 16.7933 171.556 16.5623C171.781 16.3314 172.037 16.1664 172.358 16.0674C172.647 15.9685 172.936 15.8035 173.225 15.6385C173.514 15.4736 173.739 15.3746 173.899 15.3746H174.06C174.124 15.3746 174.445 15.2096 175.055 14.8797H175.151C175.215 14.8797 175.311 14.9457 175.504 15.0446H175.536L175.825 14.8797C175.889 14.8467 175.921 14.8467 176.017 14.8467C176.788 14.8467 177.237 15.4076 177.301 16.4963C177.333 16.7273 177.398 16.8593 177.494 16.8593C177.622 16.8593 177.815 16.6283 178.04 16.1664C178.264 15.7045 178.778 15.4736 179.516 15.4736C180.062 15.4736 180.318 15.8365 180.318 16.5293C180.318 17.3542 179.965 18.146 179.227 18.9048C179.163 19.0038 179.131 19.1358 179.131 19.2348L178.874 20.0266V20.0596C178.874 20.1256 178.81 20.2576 178.714 20.3895C178.617 20.5215 178.553 20.6535 178.553 20.7525L178.585 21.2474L178.521 21.7752C178.521 22.0062 178.553 22.1712 178.649 22.2701C179.067 22.1712 179.355 22.0062 179.516 21.7423C179.709 21.5113 179.837 21.3793 179.901 21.3463L180.094 21.2803C180.062 21.1154 180.19 20.9504 180.35 20.8184ZM174.092 20.8184C174.156 20.5215 174.284 20.3235 174.541 20.1586C174.798 19.9936 174.958 19.8616 174.99 19.6967C175.215 19.5317 175.568 19.2018 176.017 18.7399C176.467 18.278 176.691 17.981 176.691 17.8821C176.691 17.8491 176.659 17.8161 176.627 17.8161H176.595L176.435 17.915L176.114 17.8821L175.761 17.915L175.504 17.7831L175.247 17.8161L174.862 17.7501C174.669 17.7501 174.477 17.7831 174.348 17.8821C174.22 17.981 173.931 18.047 173.514 18.146C173.097 18.245 172.744 18.4099 172.423 18.6739C172.102 18.9378 171.845 19.0368 171.716 19.0368C171.62 19.2348 171.331 19.4987 170.818 19.8616C170.529 19.9606 170.336 20.1916 170.24 20.5215C169.919 20.7855 169.759 20.9504 169.759 20.9834L169.63 21.3133C169.534 21.4123 169.406 21.4783 169.245 21.5443C169.085 21.6103 169.02 21.7423 168.988 21.9402C168.956 22.1712 168.892 22.3361 168.732 22.5341C168.571 22.699 168.507 22.864 168.507 22.963C168.507 23.5899 168.635 23.9198 168.86 23.9198C168.956 23.9198 169.181 23.8538 169.502 23.7218C169.823 23.5899 170.015 23.4909 170.047 23.4579C170.112 23.3919 170.208 23.3589 170.336 23.2929L170.689 23.095C170.754 23.029 170.786 22.996 170.85 22.996C170.914 22.996 170.978 22.93 171.042 22.864C171.107 22.798 171.203 22.699 171.363 22.6331C171.524 22.5671 171.652 22.4351 171.749 22.3031C171.973 22.1712 172.294 21.9732 172.776 21.7093L173.161 21.4123C173.418 21.2804 173.61 21.1814 173.674 21.0824C173.803 20.9834 173.931 20.9174 174.092 20.8184Z" fill="#1A1413"/>
<path d="M199.095 22.0069H199.159L199.352 22.0729C199.384 22.0729 199.416 22.0728 199.416 22.0399C199.416 21.8089 199.512 21.6439 199.705 21.479C199.769 21.248 199.897 21.0501 200.122 20.9181C200.347 20.7861 200.7 20.5882 201.181 20.2912L201.662 19.8623L201.887 19.7633L202.048 19.5654C202.176 19.4004 202.304 19.3014 202.433 19.3014C202.625 19.3014 202.722 19.3674 202.722 19.5324L202.561 19.9283L202.625 20.5552C202.625 20.7861 202.561 20.9841 202.401 21.182C202.24 21.38 202.016 21.6109 201.662 21.9739L200.7 23.0296L200.186 23.2936C200.058 23.3596 199.961 23.4586 199.865 23.5575L199.127 24.1844C199.127 24.3494 199.063 24.5143 198.966 24.5803H198.678L198.517 24.6463C198.421 24.8773 198.164 25.1412 197.747 25.3722L197.49 25.5701C197.394 25.6361 197.329 25.6691 197.233 25.6691L196.72 25.6031L196.367 25.6691C196.27 25.6691 196.142 25.6031 195.949 25.5041C195.789 25.4052 195.596 25.3062 195.436 25.2732C195.275 25.2402 195.051 24.9763 194.762 24.5473C194.505 24.1184 194.344 23.8545 194.312 23.7225C194.312 23.6565 194.28 23.5905 194.216 23.4586C194.152 23.3266 194.12 23.2606 194.12 23.2276C194.12 23.1946 194.184 23.0626 194.28 22.8317V22.7987C194.28 22.7657 194.248 22.6667 194.184 22.5347C194.12 22.4028 194.088 22.2048 194.088 22.0069C194.088 21.9079 194.056 21.7429 193.991 21.578C194.088 21.479 194.152 21.413 194.152 21.347C194.152 21.281 194.12 21.215 194.088 21.116C194.056 21.0171 194.024 20.9511 194.024 20.8851L194.12 19.9283L194.056 19.4334L194.088 18.9715C194.088 18.7075 193.991 18.5756 193.767 18.5756C193.67 18.5756 193.542 18.6416 193.382 18.8065L193.253 18.8395C192.932 19.0045 192.675 19.1365 192.547 19.2684C192.419 19.3674 192.258 19.4334 192.13 19.4334C192.066 19.4994 191.905 19.5984 191.713 19.6314L191.552 19.7963C191.488 19.8623 191.392 19.9283 191.263 20.0273C191.263 20.0603 191.039 20.2912 190.557 20.6871C190.076 21.0831 189.658 21.446 189.305 21.8089C188.92 22.1388 188.663 22.3368 188.503 22.3698C188.342 22.4028 188.246 22.5677 188.246 22.8647C188.246 22.9307 188.15 23.0297 187.925 23.1616C187.893 23.1616 187.765 23.2936 187.54 23.5905C187.347 23.4256 187.219 23.3596 187.219 23.3596C187.059 23.3596 186.93 23.5905 186.866 23.9865C186.802 24.1514 186.577 24.2504 186.256 24.2834C186.224 24.2834 186.192 24.3824 186.128 24.5803L186.064 24.6463H185.775C185.743 24.6463 185.678 24.7123 185.518 24.8773C185.357 25.0422 185.229 25.1082 185.133 25.1412C184.972 25.5041 184.844 25.6691 184.716 25.6691C184.651 25.6691 184.587 25.6361 184.491 25.6031C184.395 25.5371 184.266 25.5041 184.138 25.4712C184.009 25.4382 183.849 25.2732 183.688 25.0092C183.528 24.7453 183.432 24.5143 183.432 24.3164C183.432 22.8977 183.688 22.1058 184.234 21.9739L184.266 21.9079V21.7429C184.266 21.578 184.33 21.446 184.491 21.38C184.651 21.314 184.78 21.149 184.94 20.9511C185.101 20.7201 185.197 20.6212 185.229 20.5882H185.486C185.55 20.5882 185.55 20.4562 185.55 20.1922C185.55 20.1263 185.582 20.0273 185.646 19.9613C185.711 19.8953 185.743 19.7963 185.743 19.6973C185.743 19.5654 185.839 19.3674 185.999 19.1035C186.16 18.8395 186.256 18.6746 186.256 18.6086L186.224 18.5426C185.903 18.8395 185.678 19.0045 185.55 19.0375C185.422 19.0705 185.229 19.2354 184.972 19.5984L184.683 19.5324C184.138 19.9283 183.817 20.1592 183.721 20.1922C183.592 20.2582 183.464 20.3902 183.303 20.6211C183.303 20.6871 183.271 20.7531 183.175 20.7861C183.079 20.8191 182.918 20.9181 182.693 21.0831H182.597C182.276 21.0831 182.116 20.8521 182.116 20.3902L182.501 19.3014C182.597 18.9715 182.886 18.6745 183.303 18.4106C183.721 18.1796 184.074 17.9487 184.362 17.7177C184.651 17.4868 184.94 17.3878 185.229 17.3878L185.357 17.1898C185.775 17.0249 186.064 16.7609 186.224 16.398C186.385 16.0351 186.577 15.8701 186.834 15.8701C187.508 15.8701 188.054 16.1341 188.407 16.662C188.76 17.1899 188.952 17.5858 188.952 17.9157L188.984 18.4436C188.984 18.6086 188.952 18.8725 188.888 19.2024C188.728 19.4334 188.663 19.5984 188.663 19.7303C188.663 19.8293 188.728 19.8953 188.856 19.8953C188.92 19.8953 189.016 19.8293 189.145 19.7303C189.273 19.6313 189.402 19.5324 189.562 19.4334C189.723 19.3344 189.819 19.2684 189.819 19.2024C189.947 18.9055 190.172 18.6745 190.461 18.5756C190.782 18.4436 190.974 18.3446 191.039 18.2786L191.231 18.1137L191.392 17.8167C191.745 17.6518 191.969 17.5198 192.066 17.3878C192.162 17.2558 192.322 17.1569 192.515 17.1239C192.708 17.0909 192.932 16.9589 193.157 16.7939L193.446 16.728L193.703 16.563C193.735 16.53 193.799 16.497 193.927 16.464C194.056 16.431 194.248 16.365 194.473 16.266C194.73 16.1671 194.89 16.1341 194.954 16.1341C195.596 16.1341 196.11 16.398 196.463 16.9259C196.848 17.4538 197.009 17.8827 197.009 18.2126L196.976 18.5426L197.041 19.0705V19.1365L196.88 20.1922L196.912 20.5552C196.912 21.149 196.784 21.5779 196.527 21.8089C196.463 21.8419 196.431 21.9079 196.431 22.0069V22.1718L196.816 22.9967C196.912 23.2936 197.009 23.4256 197.073 23.4256L197.683 23.2606C197.843 23.1946 198.004 23.0626 198.1 22.8647C198.196 22.7987 198.389 22.6667 198.645 22.4028C198.838 22.1058 198.934 22.0069 199.095 22.0069Z" fill="#1A1413"/>
<path d="M204.166 20.2251V20.0271C204.166 19.8951 204.295 19.6312 204.552 19.2023C204.808 18.7734 205.097 18.5094 205.418 18.3774C205.45 18.3774 205.45 18.3774 205.45 18.3444L205.418 18.0475C205.482 17.9815 205.579 17.8166 205.803 17.5526C205.996 17.2887 206.188 17.1567 206.381 17.1897C206.509 16.9917 206.702 16.8268 206.895 16.6618C207.119 16.5298 207.312 16.3319 207.472 16.1339L208.178 15.705C208.66 15.3751 209.013 15.2101 209.238 15.2101H209.526C209.687 14.9461 209.88 14.8142 210.136 14.8142C210.393 14.8142 210.521 14.8472 210.618 14.9132C210.65 14.9462 210.682 14.9461 210.682 14.9461C210.682 14.9461 210.778 14.8802 210.907 14.7812C211.035 14.6822 211.228 14.6162 211.42 14.6162C211.484 14.6162 211.741 14.7152 212.255 14.9132C212.415 14.7482 212.544 14.6822 212.672 14.6822C212.736 14.6822 212.8 14.7152 212.929 14.7812C213.057 14.8472 213.185 14.9132 213.314 14.9791C213.442 15.0451 213.571 15.2761 213.699 15.705C213.827 16.1339 213.892 16.3649 213.892 16.3979C213.892 16.5958 213.731 16.8598 213.41 17.1237C213.089 17.3877 212.768 17.5526 212.479 17.5526C212.383 17.5526 212.255 17.4536 212.094 17.2887C211.709 17.2227 211.388 17.1237 211.131 16.9917C210.778 17.0577 210.521 17.1567 210.329 17.2887H210.297L210.136 17.1237L209.976 17.0907H209.944C209.912 17.1567 209.847 17.2227 209.783 17.3546C209.591 17.4866 209.398 17.5856 209.27 17.6186C209.109 17.6516 209.013 17.7176 208.917 17.8166C208.82 17.9155 208.692 18.0145 208.467 18.1135C208.243 18.2125 208.114 18.3445 208.018 18.5424C207.761 18.6744 207.601 18.7734 207.472 18.8064H207.376C207.28 19.0043 207.055 19.3672 206.67 19.8291L206.188 20.654C206.092 20.7529 205.932 20.8849 205.771 21.0169C205.611 21.1489 205.514 21.2808 205.514 21.3798C205.514 21.4128 205.514 21.4788 205.547 21.5778V21.7757C205.547 21.8417 205.482 21.9407 205.386 22.0397C205.258 22.1387 205.193 22.2376 205.193 22.2706L205.226 22.6995L205.065 23.3594C205.065 23.7553 205.354 23.9533 205.9 23.9533H206.188L206.991 23.8213C207.248 23.7883 207.472 23.7553 207.633 23.7223C207.793 23.6894 207.922 23.6564 207.922 23.6564C207.954 23.6564 208.05 23.5904 208.211 23.4254H208.403L208.564 23.3924C208.628 23.1285 208.981 22.8975 209.623 22.7326C209.783 22.5016 210.04 22.3366 210.393 22.2377C210.746 22.1387 211.099 21.9077 211.484 21.5448H211.773C211.805 21.5448 211.934 21.4788 212.126 21.3138C212.319 21.1489 212.511 21.0499 212.736 20.9509C212.961 20.8519 213.057 20.7859 213.121 20.72C213.185 20.654 213.282 20.588 213.41 20.555C213.635 20.1921 213.892 19.9611 214.213 19.8951L214.277 19.8291C214.469 19.6642 214.598 19.5652 214.662 19.5652L214.887 19.5982C215.015 19.5982 215.079 19.5322 215.111 19.3672C215.143 19.2023 215.336 18.9713 215.721 18.7074C216.106 18.4434 216.331 18.2785 216.427 18.2785C216.652 18.2785 216.78 18.4104 216.78 18.6744C216.78 18.8723 216.684 18.9713 216.459 19.0043C216.588 19.3342 216.652 19.5322 216.652 19.5652C216.652 19.9941 216.459 20.258 216.042 20.39C215.978 20.423 215.978 20.456 215.978 20.489L215.946 20.8189C215.946 20.8189 215.946 20.8189 215.946 20.8519C215.946 20.8849 215.914 20.9179 215.882 20.9509L215.593 20.9839L215.529 21.0829C215.24 21.2479 214.919 21.5118 214.566 21.8747L214.18 22.2706H214.116C213.988 22.1387 213.892 22.0727 213.827 22.0727C213.763 22.0727 213.731 22.1717 213.635 22.3366C213.218 22.7655 212.897 23.0295 212.704 23.0955C212.64 23.1285 212.511 23.2274 212.319 23.3924L211.934 23.6564H211.645C211.613 23.6893 211.581 23.7553 211.549 23.8213C211.516 23.8873 211.42 23.9863 211.228 24.1513C211.035 24.2832 210.907 24.4152 210.81 24.5142C210.714 24.6132 210.618 24.7121 210.457 24.7451L210.136 24.6791C210.04 24.8771 209.815 24.9761 209.526 24.9761C209.462 25.0421 209.334 25.141 209.206 25.273C209.045 25.438 208.949 25.504 208.917 25.504C208.885 25.504 208.724 25.438 208.531 25.273H208.499C208.371 25.273 208.307 25.372 208.307 25.57C208.307 25.7679 208.178 25.8669 207.954 25.8669C207.729 25.8669 207.504 25.9329 207.312 26.0649H207.28C206.991 26.0649 206.798 25.9989 206.67 25.8999C206.542 25.8009 206.445 25.7019 206.349 25.6689C205.964 25.8009 205.739 25.8669 205.739 25.8669C205.579 25.8669 205.45 25.8009 205.322 25.6689L204.519 25.24C204.455 25.207 204.391 25.0421 204.263 24.7121L204.166 24.5472C203.749 24.4812 203.492 24.0523 203.364 23.2604L203.203 22.7985C203.171 22.7655 203.171 22.6995 203.171 22.6336C203.171 22.5016 203.236 22.3036 203.332 22.0397C203.428 21.7757 203.524 21.4128 203.621 20.9839C203.653 20.621 203.845 20.324 204.166 20.2251Z" fill="#1A1413"/>
<path d="M215.432 19.1028L215.721 18.8388H215.817C215.913 18.8388 216.042 18.7399 216.202 18.5419L216.395 18.4759C216.651 18.08 216.876 17.882 217.037 17.8161L217.325 17.5851C217.39 17.5191 217.454 17.4861 217.55 17.4531C217.646 17.4201 217.807 17.2882 217.999 17.0572C218.224 16.8593 218.385 16.7273 218.513 16.7273C218.641 16.7273 218.738 16.7273 218.802 16.7603C218.866 16.5953 219.027 16.4633 219.251 16.2984C219.476 16.1334 219.668 15.9684 219.797 15.7705L220.054 15.6715C220.246 15.5725 220.439 15.4405 220.599 15.2756C220.76 15.1106 220.952 15.0446 221.209 15.0446C221.562 15.0446 221.947 15.2426 222.332 15.6055C222.718 16.0014 222.91 16.3643 222.91 16.6943L222.589 18.212C222.365 19.3337 222.14 19.8946 221.883 19.9606L221.819 20.3565C221.658 20.4885 221.562 20.5875 221.562 20.6535L221.658 21.1154C221.658 21.1814 221.594 21.2803 221.466 21.4123C221.434 21.4123 221.434 21.4453 221.434 21.5113V22.3031C221.434 22.4351 221.337 22.5671 221.177 22.6331C221.209 22.666 221.241 22.699 221.273 22.699C221.337 22.6331 221.53 22.6001 221.787 22.6001L222.076 22.6331L222.493 22.2041C222.589 22.1712 222.718 22.1052 222.846 22.0392C223.006 21.9402 223.263 21.8082 223.648 21.6433L226.12 19.6967C226.473 19.3667 226.698 19.1688 226.89 19.1688C227.083 19.1688 227.179 19.3008 227.179 19.5317C227.179 19.8286 227.115 20.0596 227.019 20.2246C226.922 20.4225 226.826 20.6535 226.73 20.8844C226.633 21.1484 226.537 21.3463 226.409 21.4453C226.28 21.5443 226.184 21.6763 226.12 21.7752C226.056 21.9072 225.831 22.0722 225.51 22.3031C225.189 22.5341 224.9 22.765 224.675 22.996C224.451 23.2269 224.258 23.3919 224.098 23.4909L223.295 24.0848L223.199 24.2827C223.167 24.3157 223.071 24.3487 222.846 24.4477C222.621 24.5467 222.461 24.6456 222.3 24.7776L221.979 24.9756C221.915 25.0416 221.787 25.0746 221.626 25.0746C221.466 25.0746 221.305 25.1735 221.177 25.3055C221.049 25.4375 220.952 25.5035 220.888 25.5035L220.599 25.4705L220.214 25.5695C219.989 25.5695 219.733 25.4375 219.444 25.1735C219.155 24.9096 218.994 24.6126 218.994 24.3487V24.2497L219.027 23.9858C219.027 23.9198 218.994 23.7878 218.93 23.5899C218.866 23.3919 218.834 23.2599 218.834 23.2269L218.866 22.963L218.834 22.864C218.834 22.5341 218.866 22.3031 218.898 22.2041C218.962 22.1052 218.994 21.9732 218.994 21.8082C219.027 21.6433 219.059 21.5113 219.059 21.4123L219.155 20.9174C219.219 20.7525 219.251 20.6535 219.347 20.6205C219.38 20.5215 219.412 20.3565 219.508 20.0926L219.572 19.7627L219.765 19.4987C219.861 19.3997 219.925 19.2677 219.957 19.0698C219.989 18.9048 220.054 18.7069 220.15 18.5089C220.246 18.3109 220.31 18.212 220.31 18.179C220.31 18.014 220.246 17.948 220.086 17.948C220.022 17.948 219.893 18.047 219.604 18.245L219.283 18.146C219.251 18.146 219.187 18.212 219.059 18.3439C219.059 18.4099 218.994 18.4429 218.898 18.4429C218.802 18.4759 218.673 18.5749 218.577 18.7399L218.417 18.7729L218.16 18.6739H218.096C217.967 18.6739 217.903 18.8059 217.871 19.1028C217.743 19.3008 217.55 19.4327 217.325 19.4987L216.908 19.5977C216.78 19.6637 216.683 19.7627 216.619 19.9606C216.555 20.1256 216.427 20.2905 216.234 20.4555C216.042 20.6205 215.913 20.6865 215.849 20.6865C215.496 20.6865 215.335 20.4885 215.335 20.0926L215.496 19.1688L215.432 19.1028ZM223.584 9.43577L223.488 8.67693V8.57796C223.488 7.98408 223.681 7.65415 224.098 7.58816C224.194 7.58816 224.451 7.48918 224.9 7.32422C225.125 7.39021 225.35 7.58816 225.606 7.91809C225.863 8.28102 225.991 8.57795 225.991 8.8419C225.991 8.87489 225.959 8.94088 225.927 9.00686C225.895 9.10584 225.863 9.27081 225.863 9.50176C225.863 9.76571 225.735 9.96367 225.51 10.1616C225.285 10.3596 225.029 10.4256 224.772 10.4256C224.611 10.4256 224.387 10.2936 224.098 10.0627C223.745 9.86469 223.584 9.63373 223.584 9.43577Z" fill="#1A1413"/>
<path d="M236.937 23.7878L236.038 24.5797C235.974 24.5137 235.942 24.5137 235.877 24.5137C235.749 24.5137 235.589 24.6127 235.428 24.8766C235.235 25.1076 235.107 25.2066 235.043 25.2066L234.85 25.1735C234.529 25.4045 234.305 25.5695 234.176 25.6025C234.048 25.6354 233.887 25.7014 233.663 25.8004C233.47 25.8994 233.278 25.9654 233.149 25.9654C232.989 25.9654 232.86 26.0314 232.764 26.1304C232.668 26.2293 232.411 26.2623 232.026 26.2623L231.737 26.2293C231.576 26.2953 231.48 26.3283 231.416 26.3283C231.32 26.3283 231.191 26.2623 231.095 26.1633C230.999 26.0644 230.87 25.9984 230.71 25.9654C230.549 25.9324 230.453 25.8664 230.293 25.7014C230.132 25.5365 230.036 25.4045 229.907 25.3385C229.779 25.2725 229.683 25.1736 229.619 25.0746L229.362 24.8436C229.137 24.6786 228.945 24.4147 228.752 23.9858C228.559 23.5569 228.463 23.2599 228.463 23.029V22.963L228.495 22.6001L228.463 22.1712C228.527 22.1052 228.559 22.0062 228.656 21.8412V21.2144L229.105 19.6637C229.137 19.5977 229.073 19.4987 228.945 19.3997C228.816 19.5977 228.688 19.6967 228.559 19.7297C228.431 19.7627 228.335 19.8616 228.303 19.9936C228.271 20.1256 228.174 20.2246 228.078 20.2246L227.853 20.1586C227.821 20.1916 227.757 20.3235 227.693 20.5545C227.596 20.7855 227.436 20.9174 227.243 20.9174C227.019 20.9174 226.89 20.8184 226.89 20.6535L226.922 20.3235L226.826 19.8286C226.826 19.7297 226.922 19.5317 227.115 19.2348C227.308 18.9378 227.5 18.7729 227.661 18.7069C227.821 18.6739 227.982 18.5419 228.078 18.3439C228.206 18.146 228.463 17.9151 228.848 17.6181C229.073 17.5521 229.266 17.3872 229.426 17.1232C229.619 16.9912 229.843 16.8593 230.1 16.7933C230.389 16.6943 230.614 16.5623 230.742 16.3974C230.87 16.2324 231.32 15.9685 232.026 15.5725C232.732 15.2096 233.245 15.0116 233.566 15.0116C233.663 15.0116 233.823 14.9787 233.984 14.9127C234.176 14.8467 234.337 14.8137 234.465 14.7477C234.626 14.7147 234.786 14.6487 234.947 14.5167C235.107 14.4178 235.235 14.3848 235.332 14.3848L235.877 14.5827C236.295 14.6817 236.519 14.7807 236.616 14.8467C236.648 14.8797 236.776 14.9457 237.001 15.0116C237.225 15.1106 237.482 15.2096 237.707 15.3416C237.964 15.4735 238.092 15.7375 238.092 16.1334C237.867 16.4634 237.771 16.6283 237.771 16.6613C237.771 16.7273 237.899 16.7933 238.188 16.8923C238.285 17.0902 238.445 17.3212 238.638 17.6511L238.83 18.311L238.862 19.8946L238.83 20.0596C238.702 20.1916 238.638 20.2576 238.638 20.3235L238.702 20.7195L238.541 21.2474C238.509 21.4123 238.445 21.5113 238.349 21.5773C238.253 21.6433 238.22 21.6763 238.188 21.7753L238.092 21.9402C238.06 21.9732 238.028 22.1052 237.932 22.2701C237.835 22.4681 237.771 22.6001 237.675 22.6991C237.579 22.798 237.514 22.93 237.482 23.062C237.45 23.194 237.386 23.2929 237.29 23.3589C237.193 23.4249 237.129 23.4909 237.065 23.5569C237.129 23.6889 237.033 23.7548 236.937 23.7878ZM231.095 24.2827L231.159 24.7117L231.191 24.7446H231.48L231.576 24.7776C231.833 24.8436 232.026 24.8436 232.154 24.8436C232.539 24.8436 232.86 24.7446 233.085 24.5467C233.31 24.3487 233.502 24.2497 233.631 24.2497C233.759 24.2497 233.887 24.1508 233.984 23.9528C234.08 23.7548 234.144 23.6559 234.176 23.6559H234.433L234.497 23.6229C234.497 23.3259 234.626 23.128 234.882 22.996C235.139 22.864 235.332 22.6991 235.428 22.5011C235.524 22.2702 235.653 22.1382 235.781 22.0062C235.91 21.9072 236.006 21.7423 236.07 21.5773L236.23 21.3463C236.295 21.2804 236.295 21.1814 236.295 21.0494L236.648 20.3565C236.712 20.0266 236.744 19.7957 236.744 19.5977C236.744 19.3338 236.616 19.1028 236.327 18.9708C236.038 18.8389 235.909 18.5089 235.909 18.047C235.909 17.7501 236.07 17.4861 236.359 17.2222C236.648 16.9582 236.808 16.8263 236.808 16.7603C236.808 16.6943 236.776 16.6613 236.712 16.6613C236.68 16.6613 236.519 16.7273 236.295 16.8263C236.198 16.9912 235.749 17.2552 234.947 17.5521C234.69 17.4202 234.529 17.3542 234.529 17.3542C234.465 17.3542 234.369 17.4201 234.305 17.5851C234.24 17.7501 234.144 17.8491 234.08 17.915H233.823C233.791 17.915 233.727 18.014 233.566 18.179C233.438 18.3439 233.245 18.4429 233.053 18.4429L232.828 18.6739C232.828 18.8718 232.732 19.1028 232.443 19.3008L232.251 19.5647C232.122 19.7297 231.962 19.8946 231.769 20.0926L231.416 20.9504C231.288 21.2804 231.191 21.5443 231.191 21.7093C231.159 21.7752 231.063 21.8742 230.935 21.9402C230.806 22.0392 230.742 22.1382 230.742 22.2701C230.742 22.3031 230.774 22.3691 230.87 22.4681C230.967 22.5671 230.999 22.6331 230.999 22.6991L230.935 22.963L230.87 23.6889L231.095 24.2827Z" fill="#1A1413"/>
</svg>
