<svg width="30" height="52" viewBox="0 0 30 52" fill="none" xmlns="http://www.w3.org/2000/svg">
<path d="M2.64095 28.985C2.64095 28.985 4.7109 9.45254 18.1916 15.1354C18.1916 15.1354 27.8629 19.9246 24.4188 32.5412H15.9477L21.1313 37.5092L17.6698 41.4228L11.6165 39.8502L13.8952 44.8003L3.49328 49.7683C3.49328 49.7683 0.901505 40.8867 2.62356 34.507L7.45922 33.256L2.64095 28.985Z" fill="#EC6228"/>
<path d="M18.8878 12.5084C18.8878 12.5084 13.1824 2.87618 18.8878 0.213481C18.8878 0.213481 20.4533 0.392186 21.3056 5.00277C21.3056 5.00277 24.5932 -1.21616 29.081 0.213481C29.081 0.213481 32.3685 5.00277 24.2453 9.80993L18.8878 12.5084Z" fill="#3AA064"/>
<path d="M1.24984 29.6997C1.24984 29.6997 3.31979 10.1673 16.8005 15.8501C16.8005 15.8501 26.4719 20.6394 23.0277 33.2559H14.5566L19.7402 38.2239L16.2787 42.1375L10.2254 40.5649L12.5041 45.5151L2.10217 50.4831C2.10217 50.4831 -0.489609 41.6014 1.23245 35.2217L6.06811 33.9707L1.24984 29.6997Z" stroke="#1A1413" stroke-miterlimit="10"/>
<path d="M17.4961 13.2232C17.4961 13.2232 11.7907 3.59103 17.4961 0.928325C17.4961 0.928325 19.0616 1.10703 19.9139 5.71761C19.9139 5.71761 23.2014 -0.501314 27.6892 0.928325C27.6892 0.928325 30.9768 5.71761 22.8536 10.5248L17.4961 13.2232Z" stroke="#1A1413" stroke-miterlimit="10"/>
</svg>
