<svg width="31" height="52" viewBox="0 0 31 52" fill="none" xmlns="http://www.w3.org/2000/svg">
<path d="M2.9991 29.2989C2.9991 29.2989 5.06905 9.76651 18.5498 15.4493C18.5498 15.4493 28.2211 20.2386 24.777 32.8552H16.3059L21.4894 37.8232L18.0279 41.7368L11.9747 40.1642L14.2533 45.1143L3.85144 50.0823C3.85144 50.0823 1.25966 41.2007 2.98171 34.8209L7.81738 33.57L2.9991 29.2989Z" fill="#EC6228"/>
<path d="M19.2459 12.8223C19.2459 12.8223 13.5405 3.19015 19.2459 0.527446C19.2459 0.527446 20.8114 0.706151 21.6638 5.31673C21.6638 5.31673 24.9513 -0.902192 29.4391 0.527446C29.4391 0.527446 32.7267 5.31673 24.6034 10.1239L19.2459 12.8223Z" fill="#3AA064"/>
<path d="M1.60799 30.0137C1.60799 30.0137 3.67794 10.4812 17.1587 16.164C17.1587 16.164 26.83 20.9533 23.3859 33.5699H14.9148L20.0983 38.5379L16.6368 42.4515L10.5836 40.8789L12.8622 45.829L2.46033 50.797C2.46033 50.797 -0.131454 41.9154 1.5906 35.5356L6.42627 34.2847L1.60799 30.0137Z" stroke="#1A1413" stroke-miterlimit="10"/>
<path d="M17.8542 13.5372C17.8542 13.5372 12.1488 3.90499 17.8542 1.24229C17.8542 1.24229 19.4197 1.42099 20.2721 6.03158C20.2721 6.03158 23.5596 -0.187349 28.0474 1.24229C28.0474 1.24229 31.3349 6.03158 23.2117 10.8387L17.8542 13.5372Z" stroke="#1A1413" stroke-miterlimit="10"/>
</svg>
